<svg width="32" height="23" viewBox="0 0 32 23" fill="none" xmlns="http://www.w3.org/2000/svg">
<path d="M14.786 11.2566L4.58733 2.16567H27.8147L17.616 11.2566L17.6148 11.2576C16.7853 12.0129 15.6167 12.0129 14.7872 11.2576L14.786 11.2566ZM28.7995 0.183496H3.52859C2.12923 0.183496 1.01406 1.17976 1.01406 2.48667V19.8467C1.01406 21.0834 2.12608 22.1498 3.52859 22.1498H28.7995C30.202 22.1498 31.3141 21.0834 31.3141 19.8467V2.48667C31.3141 1.17976 30.1989 0.183496 28.7995 0.183496ZM18.9224 12.4912L20.1424 11.442L28.1606 20.1004H4.2414L12.2596 11.442L13.4785 12.4902C15.0148 13.8878 17.3162 13.8841 18.9223 12.4913C18.9223 12.4912 18.9224 12.4912 18.9224 12.4912ZM3.16135 3.35822L10.925 10.2351L3.16135 18.5902V3.35822ZM29.1668 18.5876L21.476 10.235L29.1668 3.36025V18.5876Z" fill="url(#paint0_linear)" stroke="url(#paint1_linear)" stroke-width="0.3"/>
<defs>
<linearGradient id="paint0_linear" x1="1.16406" y1="0.333496" x2="21.7316" y2="28.8121" gradientUnits="userSpaceOnUse">
<stop stop-color="#0B63F6"/>
<stop offset="1" stop-color="#003CC5"/>
</linearGradient>
<linearGradient id="paint1_linear" x1="1.16406" y1="0.333496" x2="21.7316" y2="28.8121" gradientUnits="userSpaceOnUse">
<stop stop-color="#0B63F6"/>
<stop offset="1" stop-color="#003CC5"/>
</linearGradient>
</defs>
</svg>
