<svg width="23" height="32" viewBox="0 0 23 32" fill="none" xmlns="http://www.w3.org/2000/svg">
<g clip-path="url(#clip0)">
<path d="M11.3913 1C5.75105 1 1.16406 5.58699 1.16406 11.2273C1.16406 12.2361 1.31862 13.2067 1.5902 14.125C1.86293 15.0472 2.55676 16.445 3.4652 18.1413C4.37364 19.8376 5.48747 21.7927 6.57599 23.6491C8.75304 27.362 10.8161 30.6804 10.8161 30.6804C10.8776 30.7772 10.9626 30.8569 11.0632 30.9121C11.1638 30.9673 11.2766 30.9962 11.3913 30.9962C11.506 30.9962 11.6189 30.9673 11.7195 30.9121C11.82 30.8569 11.905 30.7772 11.9666 30.6804C11.9666 30.6804 14.0296 27.362 16.2067 23.6491C17.2952 21.7927 18.409 19.8376 19.3175 18.1413C20.2259 16.445 20.9197 15.0472 21.1925 14.125C21.4641 13.2067 21.6186 12.2361 21.6186 11.2273C21.6186 5.58699 17.0316 1 11.3913 1ZM11.3913 2.36364C16.2946 2.36364 20.255 6.32395 20.255 11.2273C20.255 12.1006 20.1291 12.9424 19.8928 13.7415C19.7013 14.3888 19.0187 15.8213 18.1243 17.4915C17.2298 19.1617 16.1181 21.1093 15.0348 22.9567C13.1647 26.146 11.8447 28.2635 11.3913 28.9972C10.9379 28.2635 9.61796 26.146 7.74787 22.9567C6.66461 21.1093 5.55284 19.1617 4.65838 17.4915C3.76392 15.8213 3.08135 14.3888 2.88991 13.7415C2.6536 12.9424 2.5277 12.1006 2.5277 11.2273C2.5277 6.32395 6.48802 2.36364 11.3913 2.36364ZM11.3913 6.45455C8.76349 6.45455 6.61861 8.59943 6.61861 11.2273C6.61861 13.8551 8.7635 16 11.3913 16C14.0192 16 16.1641 13.8551 16.1641 11.2273C16.1641 8.59943 14.0192 6.45455 11.3913 6.45455ZM11.3913 7.81818C13.2822 7.81818 14.8004 9.33639 14.8004 11.2273C14.8004 13.1182 13.2822 14.6364 11.3913 14.6364C9.50045 14.6364 7.98224 13.1182 7.98224 11.2273C7.98224 9.33639 9.50046 7.81818 11.3913 7.81818Z" fill="url(#paint0_linear)" stroke="url(#paint1_linear)"/>
</g>
<defs>
<linearGradient id="paint0_linear" x1="1.16406" y1="1" x2="29.0885" y2="20.0418" gradientUnits="userSpaceOnUse">
<stop stop-color="#0B63F6"/>
<stop offset="1" stop-color="#003CC5"/>
</linearGradient>
<linearGradient id="paint1_linear" x1="1.16406" y1="1" x2="29.0885" y2="20.0418" gradientUnits="userSpaceOnUse">
<stop stop-color="#0B63F6"/>
<stop offset="1" stop-color="#003CC5"/>
</linearGradient>
<clipPath id="clip0">
<rect x="0.164062" width="22" height="32" fill="white"/>
</clipPath>
</defs>
</svg>
