<svg width="31" height="29" viewBox="0 0 31 29" fill="none" xmlns="http://www.w3.org/2000/svg">
<path d="M22.6915 28.1192C22.6909 28.1192 22.6902 28.1192 22.6896 28.1192C17.8792 28.1165 12.3626 25.6716 7.55432 21.4117C7.54616 21.4045 7.53801 21.3971 7.52997 21.3896C2.85194 17.0112 0.1672 11.9876 0.164062 7.60717C0.164062 5.99431 1.07123 4.29802 2.71855 2.82994C3.85198 1.81999 5.52527 0.800781 6.70877 0.800781C8.53227 0.800781 9.01754 1.58607 9.75203 2.77475C9.93098 3.06444 10.1338 3.39274 10.3962 3.78985C10.5415 4.00891 10.7417 4.28671 10.9537 4.58074C12.3007 6.44957 13.1491 7.75641 12.6863 8.84933C12.3233 9.69987 11.3633 10.3979 10.4348 11.0728C10.0912 11.3227 9.59856 11.6807 9.38033 11.8971C9.54887 12.7504 10.7765 14.5569 12.9173 16.5061C15.0551 18.4529 17.0365 19.5705 17.9761 19.7263C18.2129 19.5274 18.6031 19.0821 18.8757 18.7713C19.6199 17.9223 20.3894 17.0447 21.3261 16.7162C21.5422 16.6403 21.779 16.6017 22.0295 16.6017C23.0988 16.6017 24.3551 17.3032 26.0131 18.2942C26.336 18.4871 26.641 18.6695 26.8835 18.8028C27.3178 19.0407 27.6783 19.2255 27.9965 19.3885C29.3017 20.0574 30.1641 20.4992 30.1641 22.1596C30.1641 23.2369 29.0442 24.7604 27.9342 25.7924C26.3222 27.2913 24.4603 28.1179 22.6915 28.1192ZM9.31696 19.7847C13.5941 23.5698 18.5925 25.8309 22.69 25.8339C25.1675 25.8311 27.5245 22.9046 27.6544 22.1393C27.6535 21.983 27.6435 21.9009 27.6362 21.8619C27.5082 21.7607 27.1154 21.5595 26.7657 21.3803C26.4492 21.218 26.0551 21.0161 25.5877 20.76C25.3031 20.6035 24.9789 20.4099 24.6358 20.2047C23.9857 19.8162 22.6784 19.0349 22.1219 18.9042C21.7787 19.123 21.1766 19.8098 20.837 20.1971C19.9761 21.1791 19.2326 22.0273 18.1841 22.0306C15.6296 22.0282 12.1487 19.0385 11.1425 18.1222C10.1363 17.206 6.85308 14.0361 6.85044 11.715C6.85044 10.754 7.78585 10.0741 8.86896 9.28665C9.29211 8.97914 10.0417 8.43428 10.2832 8.12289C10.1388 7.61528 9.28195 6.42649 8.85553 5.83501C8.63028 5.52258 8.41757 5.22741 8.24678 4.96995C7.96442 4.54268 7.74268 4.18398 7.56461 3.89566C7.36784 3.57718 7.14673 3.2195 7.03567 3.10294C6.99288 3.09632 6.90265 3.08717 6.73085 3.08637C5.88981 3.20396 2.67375 5.3498 2.67375 7.60648C2.67663 11.3373 5.15984 15.8893 9.31696 19.7847Z" fill="url(#paint0_linear)"/>
<defs>
<linearGradient id="paint0_linear" x1="0.164062" y1="0.800781" x2="27.3632" y2="30.6697" gradientUnits="userSpaceOnUse">
<stop stop-color="#0B63F6"/>
<stop offset="1" stop-color="#003CC5"/>
</linearGradient>
</defs>
</svg>
