<svg width="31" height="30" viewBox="0 0 31 30" fill="none" xmlns="http://www.w3.org/2000/svg">
<g clip-path="url(#clip0)">
<path fill-rule="evenodd" clip-rule="evenodd" d="M30.1327 14.0179C29.89 10.3957 28.3418 6.98442 25.7754 4.41676C23.2089 1.8491 19.7983 0.299334 16.1762 0.0549104V0.0209961H14.1766V0.0549104C10.5545 0.299334 7.14393 1.8491 4.57747 4.41676C2.01101 6.98442 0.462851 10.3957 0.22012 14.0179H0.179688V16.0071H0.213592C0.453238 19.6298 2.0006 23.0421 4.56784 25.6094C7.13508 28.1766 10.5474 29.724 14.1701 29.9636V30.0079H16.1697V29.9636C19.7921 29.7231 23.204 28.1755 25.7711 25.6084C28.3381 23.0414 29.8857 19.6295 30.1262 16.0071H30.1562V14.0179H30.1262H30.1327ZM9.56708 3.29229C8.52456 4.72444 7.73084 6.32201 7.21925 8.01793H4.21925C5.53151 5.9793 7.38246 4.34371 9.56708 3.29229ZM3.17577 10.0188H6.69099C6.41095 11.3355 6.24641 12.674 6.19925 14.0193H2.21447C2.31904 12.643 2.6436 11.2924 3.17577 10.0188ZM2.21447 16.0084H6.19925C6.24624 17.3519 6.41078 18.6888 6.69099 20.0036H3.17577C2.64267 18.7322 2.31807 17.3831 2.21447 16.0084ZM4.21794 22.0084H7.21794C7.73504 23.7041 8.53213 25.3013 9.5762 26.734C7.39021 25.6847 5.53875 24.0486 4.22838 22.0084H4.21794ZM14.1858 27.8779C12.1353 27.3327 10.364 25.1245 9.28273 22.0084H14.1858V27.8779ZM14.1858 20.0049H8.72837C8.43164 18.6921 8.25699 17.3547 8.20664 16.0097H14.1871V20.0049H14.1858ZM14.1858 14.0206H8.20534C8.25621 12.6739 8.43085 11.3348 8.72707 10.0201H14.1845V14.0206H14.1858ZM14.1858 8.02056H9.28273C10.364 4.90838 12.1353 2.70534 14.1858 2.15099V8.02056ZM26.1401 8.02056H23.1401C22.6264 6.32549 21.8328 4.72827 20.7923 3.29492C22.9777 4.34519 24.8289 5.98103 26.1401 8.02056ZM16.1853 2.15099C18.2449 2.70795 20.0097 4.91099 21.0884 8.02056H16.1853V2.15099ZM16.1853 10.024H21.6453C21.9402 11.3389 22.1149 12.6779 22.1671 14.0245H16.1892V10.024H16.1853ZM16.1853 16.0136H22.1632C22.1128 17.3586 21.9381 18.696 21.6414 20.0088H16.1814V16.0136H16.1853ZM16.1853 27.8832V22.0136H21.0753C19.9966 25.1271 18.2319 27.3353 16.1723 27.8832H16.1853ZM20.7819 26.7419C21.8199 25.307 22.6133 23.7102 23.1297 22.0162H26.1297C24.8204 24.0574 22.9686 25.6937 20.7819 26.7419ZM27.1732 20.0101H23.6514C23.9302 18.6949 24.0965 17.3583 24.1484 16.0149H28.1279C28.0283 17.39 27.7045 18.7395 27.1692 20.0101H27.1732ZM24.1484 14.0258C24.0963 12.6806 23.93 11.3423 23.6514 10.0253H27.1732C27.7076 11.298 28.0314 12.6491 28.1319 14.0258H24.1523H24.1484Z" fill="url(#paint0_linear)"/>
</g>
<defs>
<linearGradient id="paint0_linear" x1="0.179688" y1="0.0209961" x2="30.1666" y2="29.9975" gradientUnits="userSpaceOnUse">
<stop stop-color="#0B63F6"/>
<stop offset="1" stop-color="#003CC5"/>
</linearGradient>
<clipPath id="clip0">
<rect x="0.164062" y="0.03125" width="30" height="29.9596" fill="white"/>
</clipPath>
</defs>
</svg>
