<svg width="35" height="32" viewBox="0 0 35 32" fill="none" xmlns="http://www.w3.org/2000/svg">
<path d="M22.5597 24.4765C22.5593 24.4765 22.5589 24.4765 22.5585 24.4765C19.4895 24.4748 15.97 22.9134 12.9024 20.1929C12.8972 20.1883 12.892 20.1836 12.8869 20.1788C9.90233 17.3827 8.1895 14.1745 8.1875 11.377C8.1875 10.347 8.76626 9.2637 9.81723 8.32615C10.5403 7.68117 11.6079 7.03027 12.3629 7.03027C13.5263 7.03027 13.8359 7.53178 14.3045 8.2909C14.4187 8.4759 14.548 8.68556 14.7155 8.93916C14.8082 9.07906 14.9359 9.25647 15.0712 9.44425C15.9305 10.6377 16.4718 11.4723 16.1765 12.1703C15.945 12.7135 15.3325 13.1592 14.7401 13.5902C14.5209 13.7498 14.2066 13.9785 14.0674 14.1167C14.1749 14.6616 14.9581 15.8152 16.3239 17.0601C17.6878 18.3034 18.9519 19.0171 19.5513 19.1166C19.7024 18.9896 19.9514 18.7052 20.1253 18.5067C20.6 17.9645 21.091 17.4041 21.6886 17.1942C21.8265 17.1458 21.9776 17.1211 22.1374 17.1211C22.8196 17.1211 23.6211 17.5691 24.6788 18.202C24.8848 18.3252 25.0795 18.4417 25.2341 18.5268C25.5112 18.6788 25.7412 18.7968 25.9442 18.9008C26.7769 19.328 27.3271 19.6102 27.3271 20.6706C27.3271 21.3585 26.6126 22.3315 25.9045 22.9905C24.876 23.9478 23.6882 24.4756 22.5597 24.4765ZM14.0269 19.1539C16.7557 21.5711 19.9446 23.0151 22.5587 23.017C24.1394 23.0153 25.6431 21.1463 25.726 20.6576C25.7254 20.5577 25.719 20.5053 25.7143 20.4804C25.6327 20.4158 25.3821 20.2873 25.159 20.1728C24.957 20.0692 24.7057 19.9403 24.4074 19.7767C24.2258 19.6768 24.019 19.5531 23.8002 19.4221C23.3854 19.174 22.5514 18.675 22.1963 18.5916C21.9773 18.7313 21.5932 19.1699 21.3765 19.4172C20.8273 20.0444 20.353 20.586 19.6841 20.5882C18.0543 20.5866 15.8335 18.6773 15.1916 18.0922C14.5496 17.507 12.455 15.4827 12.4533 14.0003C12.4533 13.3867 13.0501 12.9525 13.7411 12.4496C14.0111 12.2532 14.4893 11.9052 14.6434 11.7064C14.5512 11.3822 14.0046 10.623 13.7325 10.2453C13.5888 10.0457 13.4531 9.85723 13.3442 9.69281C13.164 9.41994 13.0226 9.19087 12.9089 9.00674C12.7834 8.80335 12.6423 8.57493 12.5715 8.50049C12.5442 8.49626 12.4866 8.49042 12.377 8.48991C11.8405 8.565 9.78864 9.93539 9.78864 11.3766C9.79049 13.7592 11.3747 16.6662 14.0269 19.1539Z" fill="url(#paint0_linear)"/>
<path d="M1.96487 31.1426C1.76287 31.1426 1.56392 31.0729 1.41197 30.9407C1.18083 30.7397 1.10301 30.4326 1.21381 30.1596L3.85447 23.6533C1.92067 20.8943 1.0151 17.6129 1.30052 14.3705C1.60139 10.9528 3.21943 7.74688 5.8564 5.3432C8.82811 2.6344 12.8071 1.14258 17.0603 1.14258C21.4663 1.14258 25.6299 2.72599 28.7842 5.60118C35.1834 11.4343 35.3105 20.8097 29.0673 26.5006C26.096 29.209 22.1173 30.7007 17.8649 30.7007C17.8646 30.7007 17.8647 30.7007 17.8645 30.7007C14.7819 30.7006 11.78 29.9153 9.15452 28.4258L2.27735 31.0847C2.17647 31.1236 2.07023 31.1426 1.96487 31.1426ZM9.2305 26.8739C9.38486 26.8739 9.53825 26.9145 9.671 26.9941C12.1191 28.4641 14.9523 29.241 17.8645 29.2411C21.6895 29.2411 25.266 27.9014 27.935 25.4685C33.5539 20.3467 33.4269 11.8972 27.6519 6.63323C24.8002 4.03368 21.0386 2.60214 17.0603 2.60214C13.2348 2.60214 9.65795 3.94209 6.98871 6.37526C2.14453 10.7909 1.48026 17.8468 5.40926 23.1526C5.55353 23.3475 5.58604 23.5937 5.49653 23.8141L3.35889 29.0811L8.91802 26.9318C9.01826 26.893 9.12466 26.8739 9.2305 26.8739Z" fill="url(#paint1_linear)" stroke="url(#paint2_linear)"/>
<defs>
<linearGradient id="paint0_linear" x1="8.1875" y1="7.03027" x2="25.5592" y2="26.088" gradientUnits="userSpaceOnUse">
<stop stop-color="#0B63F6"/>
<stop offset="1" stop-color="#003CC5"/>
</linearGradient>
<linearGradient id="paint1_linear" x1="1.16406" y1="1.14258" x2="31.0679" y2="33.5423" gradientUnits="userSpaceOnUse">
<stop stop-color="#0B63F6"/>
<stop offset="1" stop-color="#003CC5"/>
</linearGradient>
<linearGradient id="paint2_linear" x1="1.16406" y1="1.14258" x2="31.0679" y2="33.5423" gradientUnits="userSpaceOnUse">
<stop stop-color="#0B63F6"/>
<stop offset="1" stop-color="#003CC5"/>
</linearGradient>
</defs>
</svg>
