<svg width="356" height="356" viewBox="0 0 356 356" fill="none" xmlns="http://www.w3.org/2000/svg">
<circle cx="177.727" cy="177.638" r="177.5" fill="url(#paint0_linear)"/>
<g clip-path="url(#clip0)">
<path d="M76.6221 215.829C82.5655 217.035 89.0855 218.371 94.0532 222.033C99.9523 226.384 100.884 234.182 100.041 240.86C99.3757 246.159 94.275 254.258 87.888 249.864C85.5816 248.27 84.4727 245.599 85.3598 242.971C86.4243 239.869 89.3517 237.715 92.3677 236.551C94.0532 235.862 95.8717 235.431 97.6902 235.087C99.5974 234.699 101.771 234.139 103.722 234.699C105.23 235.13 106.561 236.164 107.847 236.982C109.355 237.887 110.863 238.749 112.46 239.481C118.67 242.411 125.411 244.048 132.286 244.435C139.072 244.823 145.992 243.918 152.423 241.721C158.943 239.524 165.907 235.991 170.475 230.865C175.487 225.264 175.931 217.208 175.265 210.099C174.6 202.861 172.249 195.839 167.503 190.109C162.757 184.465 155.927 180.933 149.052 178.391C141.201 175.504 132.819 173.824 124.436 173.35C117.339 172.962 108.246 172.488 102.835 177.874C98.3999 182.268 97.158 189.161 98.8434 194.977C100.884 202.086 106.561 207.385 112.46 211.65C118.27 215.872 124.746 219.146 131.577 221.516C145.105 226.212 160.318 226.772 173.669 221.214C181.12 218.112 187.684 213.373 193.983 208.462C200.281 203.508 206.978 198.122 211.99 191.875C216.603 186.102 217.091 178.261 211.946 172.618C209.906 170.377 207.2 168.87 204.184 168.353C201.567 167.922 197.886 167.663 195.801 169.559C193.007 172.101 193.007 176.797 192.963 180.2C192.874 185.628 193.362 191.1 193.805 196.528C194.87 209.754 195.979 223.498 192.386 236.465C190.346 243.746 186.62 250.295 181.386 255.852C176.906 260.591 170.298 266.537 163.068 265.632C157.524 264.986 152.689 259.428 156.681 254.474C158.544 252.147 161.427 250.596 164.132 249.304C167.725 247.623 171.761 246.202 175.753 245.857C183.249 245.211 189.459 249.519 196.112 252.19C203.607 255.206 211.015 254.818 218.422 251.759C231.151 246.546 246.365 235.302 242.639 219.922C241.042 213.287 235.232 208.72 228.712 206.911C222.059 205.058 213.454 205.403 208.353 210.53C203.607 215.312 202.011 223.411 202.011 229.831C201.966 237.758 207.245 243.358 214.164 246.848C220.684 250.165 228.801 252.147 236.163 251.285C239.933 250.855 243.482 249.605 246.32 247.107C248.893 244.823 250.401 241.764 251.643 238.662C253.55 233.837 254.836 226.082 261.002 224.747C265.171 223.842 263.397 217.595 259.227 218.5C252.663 219.922 249.159 225.953 247.119 231.64C245.034 237.499 243.349 243.703 236.119 244.78C229.288 245.771 221.393 243.574 215.583 240.127C212.877 238.49 210.128 236.336 209.196 233.277C208.132 229.96 208.886 226.169 209.64 222.851C210.261 220.094 211.059 217.121 213.144 215.01C215.406 212.684 218.777 212.21 221.926 212.296C227.559 212.425 234.167 214.924 236.03 220.611C238.071 226.858 234.434 233.191 229.821 237.327C224.676 241.937 217.579 245.857 210.748 247.365C203.474 248.959 197.487 245.556 191.144 242.669C184.136 239.481 177.306 238.275 169.721 240.3C163.378 241.98 156.104 244.909 151.846 249.993C147.544 255.12 147.544 261.927 152.157 266.881C156.681 271.706 163.866 272.999 170.165 271.146C177.128 269.078 182.983 263.952 187.64 258.653C197.841 247.02 201.212 232.631 201.479 217.638C201.7 206.351 200.059 195.236 199.749 183.991C199.66 181.751 199.66 179.511 199.837 177.314C199.926 176.28 199.882 176.237 200.148 175.203C200.237 174.858 200.325 174.556 200.414 174.255C200.458 174.169 200.503 173.781 200.458 174.169C200.37 174.599 200.503 174.039 200.591 173.953C200.325 174.169 200.237 174.255 200.148 174.384C199.926 174.686 199.527 174.47 200.503 174.513C201.922 174.556 203.164 174.427 204.495 174.987C206.89 175.935 208.575 178.305 209.063 180.717C209.728 184.034 207.865 186.878 205.648 189.247C203.031 192.048 200.104 194.719 197.221 197.261C191.233 202.603 185.023 207.6 178.281 211.65C166.217 218.888 152.334 220.482 138.673 216.992C131.976 215.269 125.633 212.512 119.823 208.85C114.323 205.403 108.38 201.052 105.763 194.977C103.811 190.497 104.299 183.948 109 181.277C112.017 179.554 116.008 179.726 119.379 179.683C123.371 179.683 127.363 179.942 131.266 180.502C145.016 182.613 161.693 187.783 166.705 201.827C168.878 207.902 169.588 215.269 168.036 221.559C166.483 227.935 159.209 231.899 153.443 234.354C141.955 239.223 128.028 239.309 116.629 234.268C113.613 232.933 111.041 231.037 108.113 229.529C104.343 227.633 100.618 227.892 96.5814 228.667C89.8396 229.917 82.7429 232.846 79.6825 239.266C76.7108 245.426 79.1059 252.578 85.2711 255.895C91.525 259.256 98.6216 256.843 102.747 251.544C107.271 245.728 107.359 237.715 106.295 230.778C105.275 224.058 101.46 218.672 95.4725 215.226C90.2387 212.21 84.251 210.788 78.3519 209.582C74.227 208.72 72.4084 214.967 76.6221 215.829Z" fill="white"/>
<path d="M281.226 223.714L256.965 237.328V210.1L281.226 223.714Z" fill="white"/>
</g>
<g clip-path="url(#clip1)">
<path d="M77.8984 117.233L259.374 119.182" stroke="white" stroke-width="8" stroke-miterlimit="10" stroke-linecap="round"/>
<path d="M281.226 119.138L257.559 133.138V105.138L281.226 119.138Z" fill="white"/>
</g>
<circle cx="44.2688" cy="119.472" r="21.9914" fill="url(#paint1_linear)"/>
<circle cx="44.2688" cy="224.29" r="21.9914" fill="url(#paint2_linear)"/>
<path d="M50.0282 128.99C49.7789 128.99 49.6202 128.877 49.5522 128.65L48.6682 125.624C48.6229 125.534 48.5662 125.488 48.4982 125.488H40.7462C40.6782 125.488 40.6216 125.534 40.5762 125.624L39.6922 128.65C39.6242 128.877 39.4656 128.99 39.2162 128.99H34.0142C33.8782 128.99 33.7762 128.956 33.7082 128.888C33.6402 128.798 33.6289 128.673 33.6742 128.514L40.9502 105.53C41.0182 105.304 41.1656 105.19 41.3922 105.19H47.8182C48.0449 105.19 48.1922 105.304 48.2602 105.53L55.5702 128.514C55.5929 128.56 55.6042 128.616 55.6042 128.684C55.6042 128.888 55.4796 128.99 55.2302 128.99H50.0282ZM41.9362 120.932C41.9136 121.068 41.9589 121.136 42.0722 121.136H47.1382C47.2742 121.136 47.3196 121.068 47.2742 120.932L44.6902 112.194C44.6676 112.104 44.6336 112.07 44.5882 112.092C44.5429 112.092 44.5089 112.126 44.4862 112.194L41.9362 120.932Z" fill="white"/>
<path d="M50.0282 233.809C49.7789 233.809 49.6202 233.696 49.5522 233.469L48.6682 230.443C48.6229 230.352 48.5662 230.307 48.4982 230.307H40.7462C40.6782 230.307 40.6216 230.352 40.5762 230.443L39.6922 233.469C39.6242 233.696 39.4656 233.809 39.2162 233.809H34.0142C33.8782 233.809 33.7762 233.775 33.7082 233.707C33.6402 233.616 33.6289 233.492 33.6742 233.333L40.9502 210.349C41.0182 210.122 41.1656 210.009 41.3922 210.009H47.8182C48.0449 210.009 48.1922 210.122 48.2602 210.349L55.5702 233.333C55.5929 233.378 55.6042 233.435 55.6042 233.503C55.6042 233.707 55.4796 233.809 55.2302 233.809H50.0282ZM41.9362 225.751C41.9136 225.887 41.9589 225.955 42.0722 225.955H47.1382C47.2742 225.955 47.3196 225.887 47.2742 225.751L44.6902 217.013C44.6676 216.922 44.6336 216.888 44.5882 216.911C44.5429 216.911 44.5089 216.945 44.4862 217.013L41.9362 225.751Z" fill="white"/>
<circle cx="312.234" cy="119.472" r="21.9914" fill="url(#paint3_linear)"/>
<circle cx="312.234" cy="224.29" r="21.9914" fill="url(#paint4_linear)"/>
<path d="M319.77 119.207C319.634 119.275 319.634 119.343 319.77 119.411C321.833 120.499 322.864 122.312 322.864 124.851C322.864 127.117 322.082 128.806 320.518 129.917C318.954 131.027 316.903 131.583 314.364 131.583H305.32C305.207 131.583 305.105 131.549 305.014 131.481C304.946 131.39 304.912 131.288 304.912 131.175V108.191C304.912 108.077 304.946 107.987 305.014 107.919C305.105 107.828 305.207 107.783 305.32 107.783H314.092C316.857 107.783 318.943 108.304 320.348 109.347C321.776 110.389 322.49 112.078 322.49 114.413C322.49 116.634 321.583 118.232 319.77 119.207ZM310.726 112.611C310.613 112.611 310.556 112.667 310.556 112.781V117.065C310.556 117.178 310.613 117.235 310.726 117.235H314.092C315.021 117.235 315.735 117.042 316.234 116.657C316.733 116.249 316.982 115.682 316.982 114.957C316.982 114.209 316.733 113.631 316.234 113.223C315.735 112.815 315.021 112.611 314.092 112.611H310.726ZM314.364 126.721C315.271 126.721 315.973 126.517 316.472 126.109C316.971 125.678 317.22 125.066 317.22 124.273C317.22 123.502 316.971 122.913 316.472 122.505C315.996 122.074 315.293 121.859 314.364 121.859H310.726C310.613 121.859 310.556 121.915 310.556 122.029V126.551C310.556 126.664 310.613 126.721 310.726 126.721H314.364Z" fill="white"/>
<path d="M319.77 224.025C319.634 224.093 319.634 224.161 319.77 224.229C321.833 225.317 322.864 227.13 322.864 229.669C322.864 231.936 322.082 233.624 320.518 234.735C318.954 235.846 316.903 236.401 314.364 236.401H305.32C305.207 236.401 305.105 236.367 305.014 236.299C304.946 236.208 304.912 236.106 304.912 235.993V213.009C304.912 212.896 304.946 212.805 305.014 212.737C305.105 212.646 305.207 212.601 305.32 212.601H314.092C316.857 212.601 318.943 213.122 320.348 214.165C321.776 215.208 322.49 216.896 322.49 219.231C322.49 221.452 321.583 223.05 319.77 224.025ZM310.726 217.429C310.613 217.429 310.556 217.486 310.556 217.599V221.883C310.556 221.996 310.613 222.053 310.726 222.053H314.092C315.021 222.053 315.735 221.86 316.234 221.475C316.733 221.067 316.982 220.5 316.982 219.775C316.982 219.027 316.733 218.449 316.234 218.041C315.735 217.633 315.021 217.429 314.092 217.429H310.726ZM314.364 231.539C315.271 231.539 315.973 231.335 316.472 230.927C316.971 230.496 317.22 229.884 317.22 229.091C317.22 228.32 316.971 227.731 316.472 227.323C315.996 226.892 315.293 226.677 314.364 226.677H310.726C310.613 226.677 310.556 226.734 310.556 226.847V231.369C310.556 231.482 310.613 231.539 310.726 231.539H314.364Z" fill="white"/>
<defs>
<linearGradient id="paint0_linear" x1="0.226562" y1="0.137939" x2="355.227" y2="355.138" gradientUnits="userSpaceOnUse">
<stop stop-color="#0B63F6"/>
<stop offset="1" stop-color="#003CC5"/>
</linearGradient>
<linearGradient id="paint1_linear" x1="22.2773" y1="97.4807" x2="66.2602" y2="141.464" gradientUnits="userSpaceOnUse">
<stop stop-color="#FFC200"/>
<stop offset="1" stop-color="#FF785E"/>
</linearGradient>
<linearGradient id="paint2_linear" x1="22.2773" y1="202.299" x2="66.2602" y2="246.282" gradientUnits="userSpaceOnUse">
<stop stop-color="#FFC200"/>
<stop offset="1" stop-color="#FF785E"/>
</linearGradient>
<linearGradient id="paint3_linear" x1="290.242" y1="97.4807" x2="334.225" y2="141.464" gradientUnits="userSpaceOnUse">
<stop stop-color="#FFC200"/>
<stop offset="1" stop-color="#FF785E"/>
</linearGradient>
<linearGradient id="paint4_linear" x1="290.242" y1="202.299" x2="334.225" y2="246.282" gradientUnits="userSpaceOnUse">
<stop stop-color="#FFC200"/>
<stop offset="1" stop-color="#FF785E"/>
</linearGradient>
<clipPath id="clip0">
<rect x="74.2266" y="168.138" width="207" height="104" fill="white"/>
</clipPath>
<clipPath id="clip1">
<rect x="74.2266" y="105.138" width="207" height="28" fill="white"/>
</clipPath>
</defs>
</svg>
