<svg width="356" height="356" viewBox="0 0 356 356" fill="none" xmlns="http://www.w3.org/2000/svg">
<g clip-path="url(#clip0)">
<path d="M242.758 113.113L303.075 52.8859C271.011 20.8696 226.661 1.05627 177.711 1.05627V86.2799H177.777C203.138 86.2799 226.069 96.5146 242.758 113.113Z" fill="url(#paint0_linear)"/>
<path d="M269.829 178.261H355.113C355.113 132.992 337.767 87.6576 303.141 53.1483L242.824 113.376C259.513 129.974 269.829 152.937 269.829 178.261Z" fill="url(#paint1_linear)"/>
<path d="M242.824 242.95L303.141 303.177C335.204 271.161 355.047 226.876 355.047 177.999H269.763C269.763 201.552 260.761 225.039 242.824 242.95Z" fill="url(#paint2_linear)"/>
<path d="M177.906 269.98V355.138C223.242 355.138 268.644 337.818 303.27 303.308V303.243L242.953 243.015C226.33 259.679 203.334 269.98 177.906 269.98Z" fill="url(#paint3_linear)"/>
<path d="M112.53 113.113L52.082 53.0171C84.08 20.9352 128.365 1.05626 177.314 0.925049L177.511 86.1487H177.446C152.084 86.2143 129.153 96.5146 112.53 113.113Z" fill="url(#paint4_linear)"/>
<path d="M85.5265 178.327L0.242375 178.523C0.176671 133.255 17.3912 87.9201 51.9516 53.2795L112.4 113.376C95.7763 130.04 85.5265 153.002 85.5265 178.327Z" fill="url(#paint5_linear)"/>
<path d="M112.663 243.015L52.4778 303.374C20.3484 271.358 0.440002 227.138 0.308594 178.261H0.374298L85.6584 178.064C85.7241 201.617 94.7256 225.105 112.663 243.015Z" fill="url(#paint6_linear)"/>
<path d="M177.646 269.914L177.777 355.072C132.441 355.138 87.0395 337.949 52.3477 303.439V303.374L112.533 243.015C129.287 259.679 152.284 269.914 177.646 269.914Z" fill="url(#paint7_linear)"/>
<path d="M166.934 226.417C170.942 227.663 175.015 228.385 179.22 228.385C181.06 228.385 182.965 228.254 184.739 227.991C180.929 227.335 177.249 226.482 173.701 225.564C171.533 225.892 169.299 226.154 166.934 226.417Z" fill="url(#paint8_linear)"/>
<path d="M166.934 226.417C170.942 227.663 175.015 228.385 179.22 228.385C181.06 228.385 182.965 228.254 184.739 227.991C180.929 227.335 177.249 226.482 173.701 225.564C171.533 225.892 169.299 226.154 166.934 226.417Z" fill="url(#paint9_linear)"/>
<path d="M166.934 226.417C170.942 227.663 175.015 228.385 179.22 228.385C181.06 228.385 182.965 228.254 184.739 227.991C180.929 227.335 177.249 226.482 173.701 225.564C171.533 225.892 169.299 226.154 166.934 226.417Z" fill="url(#paint10_linear)"/>
<path d="M133.754 197.746C135.265 207.128 137.893 216.969 141.704 227.007C150.509 227.466 158.984 227.27 167 226.417C154.319 222.349 142.887 212.18 133.754 197.746Z" fill="url(#paint11_linear)"/>
<path d="M133.754 197.746C135.265 207.128 137.893 216.969 141.704 227.007C150.509 227.466 158.984 227.27 167 226.417C154.319 222.349 142.887 212.18 133.754 197.746Z" fill="url(#paint12_linear)"/>
<path d="M133.754 197.746C135.265 207.128 137.893 216.969 141.704 227.007C150.509 227.466 158.984 227.27 167 226.417C154.319 222.349 142.887 212.18 133.754 197.746Z" fill="url(#paint13_linear)"/>
<path d="M133.488 196.303C133.554 196.762 133.62 197.221 133.685 197.681C142.884 212.18 154.317 222.349 166.932 226.351C169.231 226.089 171.531 225.826 173.765 225.433C154.514 220.184 139.993 210.212 133.488 196.303Z" fill="url(#paint14_linear)"/>
<path d="M133.488 196.303C133.554 196.762 133.62 197.221 133.685 197.681C142.884 212.18 154.317 222.349 166.932 226.351C169.231 226.089 171.531 225.826 173.765 225.433C154.514 220.184 139.993 210.212 133.488 196.303Z" fill="url(#paint15_linear)"/>
<path d="M133.488 196.303C133.554 196.762 133.62 197.221 133.685 197.681C142.884 212.18 154.317 222.349 166.932 226.351C169.231 226.089 171.531 225.826 173.765 225.433C154.514 220.184 139.993 210.212 133.488 196.303Z" fill="url(#paint16_linear)"/>
<path d="M133.488 196.303C133.554 196.762 133.62 197.221 133.685 197.681C142.884 212.18 154.317 222.349 166.932 226.351C169.231 226.089 171.531 225.826 173.765 225.433C154.514 220.184 139.993 210.212 133.488 196.303Z" fill="url(#paint17_linear)"/>
<path d="M173.766 225.498C177.314 226.482 180.993 227.27 184.804 227.926C198.668 225.957 211.414 216.707 221.73 202.273C221.795 201.945 221.861 201.617 221.927 201.289C212.268 213.82 195.119 222.152 173.766 225.498Z" fill="url(#paint18_linear)"/>
<path d="M173.766 225.498C177.314 226.482 180.993 227.27 184.804 227.926C198.668 225.957 211.414 216.707 221.73 202.273C221.795 201.945 221.861 201.617 221.927 201.289C212.268 213.82 195.119 222.152 173.766 225.498Z" fill="url(#paint19_linear)"/>
<path d="M173.766 225.498C177.314 226.482 180.993 227.27 184.804 227.926C198.668 225.957 211.414 216.707 221.73 202.273C221.795 201.945 221.861 201.617 221.927 201.289C212.268 213.82 195.119 222.152 173.766 225.498Z" fill="url(#paint20_linear)"/>
<path d="M173.766 225.498C177.314 226.482 180.993 227.27 184.804 227.926C198.668 225.957 211.414 216.707 221.73 202.273C221.795 201.945 221.861 201.617 221.927 201.289C212.268 213.82 195.119 222.152 173.766 225.498Z" fill="url(#paint21_linear)"/>
<path d="M205.503 136.929C193.61 128.072 177.71 126.563 160.298 131.155C157.079 132.402 153.991 134.042 151.165 136.141C148.931 137.781 146.895 139.684 145.055 141.718C143.018 144.277 141.244 146.835 139.601 149.46C132.834 161.662 130.929 178.064 133.557 196.369C140.061 210.277 154.582 220.25 173.833 225.564C195.187 222.152 212.336 213.886 221.995 201.355C227.185 173.341 222.06 149.263 205.503 136.929Z" fill="url(#paint22_linear)"/>
<path d="M205.503 136.929C193.61 128.072 177.71 126.563 160.298 131.155C157.079 132.402 153.991 134.042 151.165 136.141C148.931 137.781 146.895 139.684 145.055 141.718C143.018 144.277 141.244 146.835 139.601 149.46C132.834 161.662 130.929 178.064 133.557 196.369C140.061 210.277 154.582 220.25 173.833 225.564C195.187 222.152 212.336 213.886 221.995 201.355C227.185 173.341 222.06 149.263 205.503 136.929Z" fill="url(#paint23_linear)"/>
<path d="M205.503 136.929C193.61 128.072 177.71 126.563 160.298 131.155C157.079 132.402 153.991 134.042 151.165 136.141C148.931 137.781 146.895 139.684 145.055 141.718C143.018 144.277 141.244 146.835 139.601 149.46C132.834 161.662 130.929 178.064 133.557 196.369C140.061 210.277 154.582 220.25 173.833 225.564C195.187 222.152 212.336 213.886 221.995 201.355C227.185 173.341 222.06 149.263 205.503 136.929Z" fill="url(#paint24_linear)"/>
<path d="M205.503 136.929C193.61 128.072 177.71 126.563 160.298 131.155C157.079 132.402 153.991 134.042 151.165 136.141C148.931 137.781 146.895 139.684 145.055 141.718C143.018 144.277 141.244 146.835 139.601 149.46C132.834 161.662 130.929 178.064 133.557 196.369C140.061 210.277 154.582 220.25 173.833 225.564C195.187 222.152 212.336 213.886 221.995 201.355C227.185 173.341 222.06 149.263 205.503 136.929Z" fill="url(#paint25_linear)"/>
<path d="M205.503 136.929C193.61 128.072 177.71 126.563 160.298 131.155C157.079 132.402 153.991 134.042 151.165 136.141C148.931 137.781 146.895 139.684 145.055 141.718C143.018 144.277 141.244 146.835 139.601 149.46C132.834 161.662 130.929 178.064 133.557 196.369C140.061 210.277 154.582 220.25 173.833 225.564C195.187 222.152 212.336 213.886 221.995 201.355C227.185 173.341 222.06 149.263 205.503 136.929Z" fill="url(#paint26_linear)"/>
<path d="M110.23 177.211C110.23 139.094 141.177 108.258 179.286 108.258C217.394 108.258 248.341 139.159 248.341 177.211C248.341 215.329 217.394 246.164 179.286 246.164C141.177 246.164 110.23 215.263 110.23 177.211Z" fill="url(#paint27_linear)"/>
<path d="M126.133 177.211C126.133 147.885 149.918 124.135 179.288 124.135C208.657 124.135 232.442 147.885 232.442 177.211C232.442 206.538 208.657 230.288 179.288 230.288C149.918 230.222 126.133 206.472 126.133 177.211Z" fill="url(#paint28_radial)"/>
<path d="M179.287 230.681C149.72 230.681 125.672 206.669 125.672 177.146C125.672 147.623 149.72 123.61 179.287 123.61C208.853 123.61 232.901 147.623 232.901 177.146C232.835 206.669 208.853 230.681 179.287 230.681ZM179.287 124.594C150.245 124.594 126.592 148.213 126.592 177.211C126.592 206.21 150.245 229.828 179.287 229.828C208.328 229.828 231.981 206.21 231.981 177.211C231.981 148.213 208.328 124.594 179.287 124.594Z" fill="url(#paint29_linear)"/>
<path d="M145.522 166.641C145.45 166.677 145.45 166.713 145.522 166.749C146.662 167.337 147.232 168.315 147.232 169.683C147.232 170.847 146.836 171.729 146.044 172.329C145.252 172.917 144.214 173.211 142.93 173.211H138.268C138.208 173.211 138.154 173.193 138.106 173.157C138.07 173.109 138.052 173.055 138.052 172.995V160.827C138.052 160.767 138.07 160.719 138.106 160.683C138.154 160.635 138.208 160.611 138.268 160.611H142.786C145.63 160.611 147.052 161.763 147.052 164.067C147.052 165.267 146.542 166.125 145.522 166.641ZM140.68 162.789C140.62 162.789 140.59 162.819 140.59 162.879V165.687C140.59 165.747 140.62 165.777 140.68 165.777H142.786C143.35 165.777 143.788 165.645 144.1 165.381C144.412 165.117 144.568 164.757 144.568 164.301C144.568 163.833 144.412 163.467 144.1 163.203C143.788 162.927 143.35 162.789 142.786 162.789H140.68ZM142.93 171.015C143.482 171.015 143.914 170.877 144.226 170.601C144.538 170.313 144.694 169.923 144.694 169.431C144.694 168.939 144.538 168.555 144.226 168.279C143.914 167.991 143.476 167.847 142.912 167.847H140.68C140.62 167.847 140.59 167.877 140.59 167.937V170.925C140.59 170.985 140.62 171.015 140.68 171.015H142.93ZM157.539 173.211C157.419 173.211 157.341 173.151 157.305 173.031L156.765 171.267C156.741 171.219 156.711 171.195 156.675 171.195H152.247C152.211 171.195 152.181 171.219 152.157 171.267L151.635 173.031C151.599 173.151 151.521 173.211 151.401 173.211H149.115C149.043 173.211 148.989 173.193 148.953 173.157C148.917 173.109 148.911 173.043 148.935 172.959L152.823 160.791C152.859 160.671 152.937 160.611 153.057 160.611H155.883C156.003 160.611 156.081 160.671 156.117 160.791L160.005 172.959C160.017 172.983 160.023 173.013 160.023 173.049C160.023 173.157 159.957 173.211 159.825 173.211H157.539ZM152.805 169.125C152.793 169.197 152.817 169.233 152.877 169.233H156.045C156.117 169.233 156.141 169.197 156.117 169.125L154.497 163.779C154.485 163.731 154.467 163.713 154.443 163.725C154.419 163.725 154.401 163.743 154.389 163.779L152.805 169.125ZM162.821 173.211C162.761 173.211 162.707 173.193 162.659 173.157C162.623 173.109 162.605 173.055 162.605 172.995V160.827C162.605 160.767 162.623 160.719 162.659 160.683C162.707 160.635 162.761 160.611 162.821 160.611H164.927C164.987 160.611 165.035 160.635 165.071 160.683C165.119 160.719 165.143 160.767 165.143 160.827V170.943C165.143 171.003 165.173 171.033 165.233 171.033H171.119C171.179 171.033 171.227 171.057 171.263 171.105C171.311 171.141 171.335 171.189 171.335 171.249V172.995C171.335 173.055 171.311 173.109 171.263 173.157C171.227 173.193 171.179 173.211 171.119 173.211H162.821ZM182.214 173.211C182.094 173.211 182.016 173.151 181.98 173.031L181.44 171.267C181.416 171.219 181.386 171.195 181.35 171.195H176.922C176.886 171.195 176.856 171.219 176.832 171.267L176.31 173.031C176.274 173.151 176.196 173.211 176.076 173.211H173.79C173.718 173.211 173.664 173.193 173.628 173.157C173.592 173.109 173.586 173.043 173.61 172.959L177.498 160.791C177.534 160.671 177.612 160.611 177.732 160.611H180.558C180.678 160.611 180.756 160.671 180.792 160.791L184.68 172.959C184.692 172.983 184.698 173.013 184.698 173.049C184.698 173.157 184.632 173.211 184.5 173.211H182.214ZM177.48 169.125C177.468 169.197 177.492 169.233 177.552 169.233H180.72C180.792 169.233 180.816 169.197 180.792 169.125L179.172 163.779C179.16 163.731 179.142 163.713 179.118 163.725C179.094 163.725 179.076 163.743 179.064 163.779L177.48 169.125ZM194.517 160.827C194.517 160.767 194.535 160.719 194.571 160.683C194.619 160.635 194.673 160.611 194.733 160.611H196.839C196.899 160.611 196.947 160.635 196.983 160.683C197.031 160.719 197.055 160.767 197.055 160.827V172.995C197.055 173.055 197.031 173.109 196.983 173.157C196.947 173.193 196.899 173.211 196.839 173.211H194.805C194.685 173.211 194.601 173.163 194.553 173.067L189.891 165.363C189.867 165.327 189.843 165.315 189.819 165.327C189.795 165.327 189.783 165.351 189.783 165.399L189.819 172.995C189.819 173.055 189.795 173.109 189.747 173.157C189.711 173.193 189.663 173.211 189.603 173.211H187.497C187.437 173.211 187.383 173.193 187.335 173.157C187.299 173.109 187.281 173.055 187.281 172.995V160.827C187.281 160.767 187.299 160.719 187.335 160.683C187.383 160.635 187.437 160.611 187.497 160.611H189.531C189.651 160.611 189.735 160.659 189.783 160.755L194.427 168.423C194.451 168.459 194.475 168.477 194.499 168.477C194.523 168.465 194.535 168.435 194.535 168.387L194.517 160.827ZM204.679 173.355C203.743 173.355 202.921 173.175 202.213 172.815C201.505 172.443 200.959 171.927 200.575 171.267C200.191 170.607 199.999 169.845 199.999 168.981V164.823C199.999 163.959 200.191 163.197 200.575 162.537C200.959 161.877 201.505 161.367 202.213 161.007C202.921 160.647 203.743 160.467 204.679 160.467C205.603 160.467 206.413 160.641 207.109 160.989C207.817 161.325 208.363 161.811 208.747 162.447C209.143 163.071 209.341 163.797 209.341 164.625C209.341 164.733 209.269 164.799 209.125 164.823L207.019 164.949H206.983C206.863 164.949 206.803 164.883 206.803 164.751C206.803 164.115 206.605 163.605 206.209 163.221C205.825 162.837 205.315 162.645 204.679 162.645C204.031 162.645 203.509 162.837 203.113 163.221C202.729 163.605 202.537 164.115 202.537 164.751V169.089C202.537 169.713 202.729 170.217 203.113 170.601C203.509 170.985 204.031 171.177 204.679 171.177C205.315 171.177 205.825 170.985 206.209 170.601C206.605 170.217 206.803 169.713 206.803 169.089C206.803 168.957 206.875 168.891 207.019 168.891L209.125 168.981C209.185 168.981 209.233 168.999 209.269 169.035C209.317 169.071 209.341 169.113 209.341 169.161C209.341 169.989 209.143 170.721 208.747 171.357C208.363 171.993 207.817 172.485 207.109 172.833C206.413 173.181 205.603 173.355 204.679 173.355ZM220.95 162.573C220.95 162.633 220.926 162.687 220.878 162.735C220.842 162.771 220.794 162.789 220.734 162.789H214.83C214.77 162.789 214.74 162.819 214.74 162.879V165.669C214.74 165.729 214.77 165.759 214.83 165.759H218.7C218.76 165.759 218.808 165.783 218.844 165.831C218.892 165.867 218.916 165.915 218.916 165.975V167.721C218.916 167.781 218.892 167.835 218.844 167.883C218.808 167.919 218.76 167.937 218.7 167.937H214.83C214.77 167.937 214.74 167.967 214.74 168.027V170.943C214.74 171.003 214.77 171.033 214.83 171.033H220.734C220.794 171.033 220.842 171.057 220.878 171.105C220.926 171.141 220.95 171.189 220.95 171.249V172.995C220.95 173.055 220.926 173.109 220.878 173.157C220.842 173.193 220.794 173.211 220.734 173.211H212.418C212.358 173.211 212.304 173.193 212.256 173.157C212.22 173.109 212.202 173.055 212.202 172.995V160.827C212.202 160.767 212.22 160.719 212.256 160.683C212.304 160.635 212.358 160.611 212.418 160.611H220.734C220.794 160.611 220.842 160.635 220.878 160.683C220.926 160.719 220.95 160.767 220.95 160.827V162.573ZM149.641 195.211C149.581 195.211 149.527 195.193 149.479 195.157C149.443 195.109 149.425 195.055 149.425 194.995V182.827C149.425 182.767 149.443 182.719 149.479 182.683C149.527 182.635 149.581 182.611 149.641 182.611H151.747C151.807 182.611 151.855 182.635 151.891 182.683C151.939 182.719 151.963 182.767 151.963 182.827V194.995C151.963 195.055 151.939 195.109 151.891 195.157C151.855 195.193 151.807 195.211 151.747 195.211H149.641ZM162.39 182.827C162.39 182.767 162.408 182.719 162.444 182.683C162.492 182.635 162.546 182.611 162.606 182.611H164.712C164.772 182.611 164.82 182.635 164.856 182.683C164.904 182.719 164.928 182.767 164.928 182.827V194.995C164.928 195.055 164.904 195.109 164.856 195.157C164.82 195.193 164.772 195.211 164.712 195.211H162.678C162.558 195.211 162.474 195.163 162.426 195.067L157.764 187.363C157.74 187.327 157.716 187.315 157.692 187.327C157.668 187.327 157.656 187.351 157.656 187.399L157.692 194.995C157.692 195.055 157.668 195.109 157.62 195.157C157.584 195.193 157.536 195.211 157.476 195.211H155.37C155.31 195.211 155.256 195.193 155.208 195.157C155.172 195.109 155.154 195.055 155.154 194.995V182.827C155.154 182.767 155.172 182.719 155.208 182.683C155.256 182.635 155.31 182.611 155.37 182.611H157.404C157.524 182.611 157.608 182.659 157.656 182.755L162.3 190.423C162.324 190.459 162.348 190.477 162.372 190.477C162.396 190.465 162.408 190.435 162.408 190.387L162.39 182.827ZM172.944 195.211C172.884 195.211 172.83 195.193 172.782 195.157C172.746 195.109 172.728 195.055 172.728 194.995V182.827C172.728 182.767 172.746 182.719 172.782 182.683C172.83 182.635 172.884 182.611 172.944 182.611H175.05C175.11 182.611 175.158 182.635 175.194 182.683C175.242 182.719 175.266 182.767 175.266 182.827V192.943C175.266 193.003 175.296 193.033 175.356 193.033H181.242C181.302 193.033 181.35 193.057 181.386 193.105C181.434 193.141 181.458 193.189 181.458 193.249V194.995C181.458 195.055 181.434 195.109 181.386 195.157C181.35 195.193 181.302 195.211 181.242 195.211H172.944ZM184.245 195.211C184.185 195.211 184.131 195.193 184.083 195.157C184.047 195.109 184.029 195.055 184.029 194.995V182.827C184.029 182.767 184.047 182.719 184.083 182.683C184.131 182.635 184.185 182.611 184.245 182.611H186.351C186.411 182.611 186.459 182.635 186.495 182.683C186.543 182.719 186.567 182.767 186.567 182.827V194.995C186.567 195.055 186.543 195.109 186.495 195.157C186.459 195.193 186.411 195.211 186.351 195.211H184.245ZM198.487 184.573C198.487 184.633 198.463 184.687 198.415 184.735C198.379 184.771 198.331 184.789 198.271 184.789H192.385C192.325 184.789 192.295 184.819 192.295 184.879V187.669C192.295 187.729 192.325 187.759 192.385 187.759H196.255C196.315 187.759 196.363 187.783 196.399 187.831C196.447 187.867 196.471 187.915 196.471 187.975V189.721C196.471 189.781 196.447 189.835 196.399 189.883C196.363 189.919 196.315 189.937 196.255 189.937H192.385C192.325 189.937 192.295 189.967 192.295 190.027V194.995C192.295 195.055 192.271 195.109 192.223 195.157C192.187 195.193 192.139 195.211 192.079 195.211H189.973C189.913 195.211 189.859 195.193 189.811 195.157C189.775 195.109 189.757 195.055 189.757 194.995V182.827C189.757 182.767 189.775 182.719 189.811 182.683C189.859 182.635 189.913 182.611 189.973 182.611H198.271C198.331 182.611 198.379 182.635 198.415 182.683C198.463 182.719 198.487 182.767 198.487 182.827V184.573ZM209.577 184.573C209.577 184.633 209.553 184.687 209.505 184.735C209.469 184.771 209.421 184.789 209.361 184.789H203.457C203.397 184.789 203.367 184.819 203.367 184.879V187.669C203.367 187.729 203.397 187.759 203.457 187.759H207.327C207.387 187.759 207.435 187.783 207.471 187.831C207.519 187.867 207.543 187.915 207.543 187.975V189.721C207.543 189.781 207.519 189.835 207.471 189.883C207.435 189.919 207.387 189.937 207.327 189.937H203.457C203.397 189.937 203.367 189.967 203.367 190.027V192.943C203.367 193.003 203.397 193.033 203.457 193.033H209.361C209.421 193.033 209.469 193.057 209.505 193.105C209.553 193.141 209.577 193.189 209.577 193.249V194.995C209.577 195.055 209.553 195.109 209.505 195.157C209.469 195.193 209.421 195.211 209.361 195.211H201.045C200.985 195.211 200.931 195.193 200.883 195.157C200.847 195.109 200.829 195.055 200.829 194.995V182.827C200.829 182.767 200.847 182.719 200.883 182.683C200.931 182.635 200.985 182.611 201.045 182.611H209.361C209.421 182.611 209.469 182.635 209.505 182.683C209.553 182.719 209.577 182.767 209.577 182.827V184.573Z" fill="#00226E"/>
<path d="M285.73 145.669C284.877 145.669 284.13 145.536 283.49 145.269C282.85 144.992 282.354 144.603 282.002 144.101C281.661 143.589 281.49 142.997 281.49 142.325V141.973C281.49 141.92 281.506 141.877 281.538 141.845C281.581 141.803 281.629 141.781 281.682 141.781H283.506C283.559 141.781 283.602 141.803 283.634 141.845C283.677 141.877 283.698 141.92 283.698 141.973V142.213C283.698 142.64 283.895 143.003 284.29 143.301C284.685 143.589 285.218 143.733 285.89 143.733C286.455 143.733 286.877 143.616 287.154 143.381C287.431 143.136 287.57 142.837 287.57 142.485C287.57 142.229 287.485 142.016 287.314 141.845C287.143 141.664 286.909 141.509 286.61 141.381C286.322 141.243 285.858 141.056 285.218 140.821C284.503 140.576 283.895 140.325 283.394 140.069C282.903 139.813 282.487 139.467 282.146 139.029C281.815 138.581 281.65 138.032 281.65 137.381C281.65 136.741 281.815 136.181 282.146 135.701C282.477 135.221 282.935 134.853 283.522 134.597C284.109 134.341 284.786 134.213 285.554 134.213C286.365 134.213 287.085 134.357 287.714 134.645C288.354 134.933 288.85 135.339 289.202 135.861C289.565 136.373 289.746 136.971 289.746 137.653V137.893C289.746 137.947 289.725 137.995 289.682 138.037C289.65 138.069 289.607 138.085 289.554 138.085H287.714C287.661 138.085 287.613 138.069 287.57 138.037C287.538 137.995 287.522 137.947 287.522 137.893V137.765C287.522 137.317 287.335 136.939 286.962 136.629C286.599 136.309 286.098 136.149 285.458 136.149C284.957 136.149 284.562 136.256 284.274 136.469C283.997 136.683 283.858 136.976 283.858 137.349C283.858 137.616 283.938 137.84 284.098 138.021C284.269 138.203 284.514 138.368 284.834 138.517C285.165 138.656 285.671 138.848 286.354 139.093C287.111 139.371 287.703 139.616 288.13 139.829C288.567 140.043 288.957 140.363 289.298 140.789C289.65 141.205 289.826 141.749 289.826 142.421C289.826 143.424 289.458 144.219 288.722 144.805C287.986 145.381 286.989 145.669 285.73 145.669ZM296.39 145.717C295.558 145.717 294.822 145.547 294.182 145.205C293.552 144.864 293.062 144.389 292.71 143.781C292.358 143.163 292.182 142.453 292.182 141.653V138.229C292.182 137.44 292.358 136.741 292.71 136.133C293.062 135.525 293.552 135.056 294.182 134.725C294.822 134.384 295.558 134.213 296.39 134.213C297.232 134.213 297.968 134.384 298.598 134.725C299.238 135.056 299.734 135.525 300.086 136.133C300.438 136.741 300.614 137.44 300.614 138.229V141.653C300.614 142.453 300.438 143.163 300.086 143.781C299.734 144.4 299.238 144.88 298.598 145.221C297.968 145.552 297.232 145.717 296.39 145.717ZM296.39 143.781C296.976 143.781 297.451 143.595 297.814 143.221C298.176 142.848 298.358 142.352 298.358 141.733V138.213C298.358 137.595 298.176 137.099 297.814 136.725C297.462 136.341 296.987 136.149 296.39 136.149C295.803 136.149 295.328 136.341 294.966 136.725C294.614 137.099 294.438 137.595 294.438 138.213V141.733C294.438 142.352 294.614 142.848 294.966 143.221C295.328 143.595 295.803 143.781 296.39 143.781ZM307.279 145.669C306.447 145.669 305.717 145.509 305.087 145.189C304.458 144.859 303.973 144.4 303.631 143.813C303.29 143.227 303.119 142.549 303.119 141.781V138.085C303.119 137.317 303.29 136.64 303.631 136.053C303.973 135.467 304.458 135.013 305.087 134.693C305.717 134.373 306.447 134.213 307.279 134.213C308.101 134.213 308.821 134.368 309.439 134.677C310.069 134.976 310.554 135.408 310.895 135.973C311.247 136.528 311.423 137.173 311.423 137.909C311.423 138.005 311.359 138.064 311.231 138.085L309.359 138.197H309.327C309.221 138.197 309.167 138.139 309.167 138.021C309.167 137.456 308.991 137.003 308.639 136.661C308.298 136.32 307.845 136.149 307.279 136.149C306.703 136.149 306.239 136.32 305.887 136.661C305.546 137.003 305.375 137.456 305.375 138.021V141.877C305.375 142.432 305.546 142.88 305.887 143.221C306.239 143.563 306.703 143.733 307.279 143.733C307.845 143.733 308.298 143.563 308.639 143.221C308.991 142.88 309.167 142.432 309.167 141.877C309.167 141.76 309.231 141.701 309.359 141.701L311.231 141.781C311.285 141.781 311.327 141.797 311.359 141.829C311.402 141.861 311.423 141.899 311.423 141.941C311.423 142.677 311.247 143.328 310.895 143.893C310.554 144.459 310.069 144.896 309.439 145.205C308.821 145.515 308.101 145.669 307.279 145.669ZM314.27 145.541C314.216 145.541 314.168 145.525 314.126 145.493C314.094 145.451 314.078 145.403 314.078 145.349V134.533C314.078 134.48 314.094 134.437 314.126 134.405C314.168 134.363 314.216 134.341 314.27 134.341H316.142C316.195 134.341 316.238 134.363 316.27 134.405C316.312 134.437 316.334 134.48 316.334 134.533V145.349C316.334 145.403 316.312 145.451 316.27 145.493C316.238 145.525 316.195 145.541 316.142 145.541H314.27ZM326.401 145.541C326.294 145.541 326.225 145.488 326.193 145.381L325.713 143.813C325.691 143.771 325.665 143.749 325.633 143.749H321.697C321.665 143.749 321.638 143.771 321.617 143.813L321.153 145.381C321.121 145.488 321.051 145.541 320.945 145.541H318.913C318.849 145.541 318.801 145.525 318.769 145.493C318.737 145.451 318.731 145.392 318.753 145.317L322.209 134.501C322.241 134.395 322.31 134.341 322.417 134.341H324.929C325.035 134.341 325.105 134.395 325.137 134.501L328.593 145.317C328.603 145.339 328.609 145.365 328.609 145.397C328.609 145.493 328.55 145.541 328.433 145.541H326.401ZM322.193 141.909C322.182 141.973 322.203 142.005 322.257 142.005H325.073C325.137 142.005 325.158 141.973 325.137 141.909L323.697 137.157C323.686 137.115 323.67 137.099 323.649 137.109C323.627 137.109 323.611 137.125 323.601 137.157L322.193 141.909ZM331.207 145.541C331.154 145.541 331.106 145.525 331.063 145.493C331.031 145.451 331.015 145.403 331.015 145.349V134.533C331.015 134.48 331.031 134.437 331.063 134.405C331.106 134.363 331.154 134.341 331.207 134.341H333.079C333.132 134.341 333.175 134.363 333.207 134.405C333.25 134.437 333.271 134.48 333.271 134.533V143.525C333.271 143.579 333.298 143.605 333.351 143.605H338.583C338.636 143.605 338.679 143.627 338.711 143.669C338.754 143.701 338.775 143.744 338.775 143.797V145.349C338.775 145.403 338.754 145.451 338.711 145.493C338.679 145.525 338.636 145.541 338.583 145.541H331.207Z" fill="white"/>
<path d="M21.5688 224.546C22.2728 224.546 22.8914 224.69 23.4248 224.978C23.9581 225.266 24.3688 225.677 24.6568 226.21C24.9554 226.733 25.1048 227.335 25.1048 228.018C25.1048 228.69 24.9501 229.282 24.6408 229.794C24.3421 230.306 23.9154 230.706 23.3608 230.994C22.8168 231.271 22.1874 231.41 21.4728 231.41H19.2008C19.1474 231.41 19.1208 231.437 19.1208 231.49V235.57C19.1208 235.623 19.0994 235.671 19.0568 235.714C19.0248 235.746 18.9821 235.762 18.9288 235.762H17.0568C17.0034 235.762 16.9554 235.746 16.9128 235.714C16.8808 235.671 16.8648 235.623 16.8648 235.57V224.738C16.8648 224.685 16.8808 224.642 16.9128 224.61C16.9554 224.567 17.0034 224.546 17.0568 224.546H21.5688ZM21.2328 229.602C21.7234 229.602 22.1181 229.463 22.4168 229.186C22.7154 228.898 22.8648 228.525 22.8648 228.066C22.8648 227.597 22.7154 227.218 22.4168 226.93C22.1181 226.642 21.7234 226.498 21.2328 226.498H19.2008C19.1474 226.498 19.1208 226.525 19.1208 226.578V229.522C19.1208 229.575 19.1474 229.602 19.2008 229.602H21.2328ZM33.4436 224.754C33.4436 224.701 33.4596 224.658 33.4916 224.626C33.5343 224.583 33.5823 224.562 33.6356 224.562H35.5076C35.561 224.562 35.6036 224.583 35.6356 224.626C35.6783 224.658 35.6996 224.701 35.6996 224.754V235.57C35.6996 235.623 35.6783 235.671 35.6356 235.714C35.6036 235.746 35.561 235.762 35.5076 235.762H33.6356C33.5823 235.762 33.5343 235.746 33.4916 235.714C33.4596 235.671 33.4436 235.623 33.4436 235.57V231.154C33.4436 231.101 33.417 231.074 33.3636 231.074H29.8276C29.7743 231.074 29.7476 231.101 29.7476 231.154V235.57C29.7476 235.623 29.7263 235.671 29.6836 235.714C29.6516 235.746 29.609 235.762 29.5556 235.762H27.6836C27.6303 235.762 27.5823 235.746 27.5396 235.714C27.5076 235.671 27.4916 235.623 27.4916 235.57V224.754C27.4916 224.701 27.5076 224.658 27.5396 224.626C27.5823 224.583 27.6303 224.562 27.6836 224.562H29.5556C29.609 224.562 29.6516 224.583 29.6836 224.626C29.7263 224.658 29.7476 224.701 29.7476 224.754V229.058C29.7476 229.111 29.7743 229.138 29.8276 229.138H33.3636C33.417 229.138 33.4436 229.111 33.4436 229.058V224.754ZM41.5625 235.746C41.5092 235.746 41.4612 235.73 41.4185 235.698C41.3865 235.655 41.3705 235.607 41.3705 235.554V231.506C41.3705 231.463 41.3652 231.431 41.3545 231.41L38.0585 224.786C38.0372 224.743 38.0265 224.711 38.0265 224.69C38.0265 224.605 38.0852 224.562 38.2025 224.562H40.2185C40.3252 224.562 40.3998 224.61 40.4425 224.706L42.4425 228.962C42.4745 229.026 42.5065 229.026 42.5385 228.962L44.5385 224.706C44.5812 224.61 44.6558 224.562 44.7625 224.562H46.8105C46.8852 224.562 46.9332 224.583 46.9545 224.626C46.9865 224.658 46.9865 224.711 46.9545 224.786L43.6265 231.41C43.6158 231.431 43.6105 231.463 43.6105 231.506V235.554C43.6105 235.607 43.5892 235.655 43.5465 235.698C43.5145 235.73 43.4718 235.746 43.4185 235.746H41.5625ZM52.7848 235.89C51.9314 235.89 51.1848 235.757 50.5448 235.49C49.9048 235.213 49.4088 234.823 49.0568 234.322C48.7154 233.81 48.5448 233.218 48.5448 232.546V232.194C48.5448 232.141 48.5608 232.098 48.5928 232.066C48.6354 232.023 48.6834 232.002 48.7368 232.002H50.5608C50.6141 232.002 50.6568 232.023 50.6888 232.066C50.7314 232.098 50.7528 232.141 50.7528 232.194V232.434C50.7528 232.861 50.9501 233.223 51.3448 233.522C51.7394 233.81 52.2728 233.954 52.9448 233.954C53.5101 233.954 53.9314 233.837 54.2088 233.602C54.4861 233.357 54.6248 233.058 54.6248 232.706C54.6248 232.45 54.5394 232.237 54.3688 232.066C54.1981 231.885 53.9634 231.73 53.6648 231.602C53.3768 231.463 52.9128 231.277 52.2728 231.042C51.5581 230.797 50.9501 230.546 50.4488 230.29C49.9581 230.034 49.5421 229.687 49.2008 229.25C48.8701 228.802 48.7048 228.253 48.7048 227.602C48.7048 226.962 48.8701 226.402 49.2008 225.922C49.5314 225.442 49.9901 225.074 50.5768 224.818C51.1634 224.562 51.8408 224.434 52.6088 224.434C53.4194 224.434 54.1394 224.578 54.7688 224.866C55.4088 225.154 55.9048 225.559 56.2568 226.082C56.6194 226.594 56.8008 227.191 56.8008 227.874V228.114C56.8008 228.167 56.7794 228.215 56.7368 228.258C56.7048 228.29 56.6621 228.306 56.6088 228.306H54.7688C54.7154 228.306 54.6674 228.29 54.6248 228.258C54.5928 228.215 54.5768 228.167 54.5768 228.114V227.986C54.5768 227.538 54.3901 227.159 54.0168 226.85C53.6541 226.53 53.1528 226.37 52.5128 226.37C52.0114 226.37 51.6168 226.477 51.3288 226.69C51.0514 226.903 50.9128 227.197 50.9128 227.57C50.9128 227.837 50.9928 228.061 51.1528 228.242C51.3234 228.423 51.5688 228.589 51.8888 228.738C52.2194 228.877 52.7261 229.069 53.4088 229.314C54.1661 229.591 54.7581 229.837 55.1848 230.05C55.6221 230.263 56.0114 230.583 56.3528 231.01C56.7048 231.426 56.8808 231.97 56.8808 232.642C56.8808 233.645 56.5128 234.439 55.7768 235.026C55.0408 235.602 54.0434 235.89 52.7848 235.89ZM59.6524 235.762C59.599 235.762 59.551 235.746 59.5084 235.714C59.4764 235.671 59.4604 235.623 59.4604 235.57V224.754C59.4604 224.701 59.4764 224.658 59.5084 224.626C59.551 224.583 59.599 224.562 59.6524 224.562H61.5244C61.5777 224.562 61.6204 224.583 61.6524 224.626C61.695 224.658 61.7164 224.701 61.7164 224.754V235.57C61.7164 235.623 61.695 235.671 61.6524 235.714C61.6204 235.746 61.5777 235.762 61.5244 235.762H59.6524ZM68.5995 235.89C67.7675 235.89 67.0368 235.73 66.4075 235.41C65.7782 235.079 65.2928 234.621 64.9515 234.034C64.6102 233.447 64.4395 232.77 64.4395 232.002V228.306C64.4395 227.538 64.6102 226.861 64.9515 226.274C65.2928 225.687 65.7782 225.234 66.4075 224.914C67.0368 224.594 67.7675 224.434 68.5995 224.434C69.4208 224.434 70.1408 224.589 70.7595 224.898C71.3888 225.197 71.8742 225.629 72.2155 226.194C72.5675 226.749 72.7435 227.394 72.7435 228.13C72.7435 228.226 72.6795 228.285 72.5515 228.306L70.6795 228.418H70.6475C70.5408 228.418 70.4875 228.359 70.4875 228.242C70.4875 227.677 70.3115 227.223 69.9595 226.882C69.6182 226.541 69.1648 226.37 68.5995 226.37C68.0235 226.37 67.5595 226.541 67.2075 226.882C66.8662 227.223 66.6955 227.677 66.6955 228.242V232.098C66.6955 232.653 66.8662 233.101 67.2075 233.442C67.5595 233.783 68.0235 233.954 68.5995 233.954C69.1648 233.954 69.6182 233.783 69.9595 233.442C70.3115 233.101 70.4875 232.653 70.4875 232.098C70.4875 231.981 70.5515 231.922 70.6795 231.922L72.5515 232.002C72.6048 232.002 72.6475 232.018 72.6795 232.05C72.7222 232.082 72.7435 232.119 72.7435 232.162C72.7435 232.898 72.5675 233.549 72.2155 234.114C71.8742 234.679 71.3888 235.117 70.7595 235.426C70.1408 235.735 69.4208 235.89 68.5995 235.89ZM82.2679 235.762C82.1612 235.762 82.0919 235.709 82.0599 235.602L81.5799 234.034C81.5585 233.991 81.5319 233.97 81.4999 233.97H77.5639C77.5319 233.97 77.5052 233.991 77.4839 234.034L77.0199 235.602C76.9879 235.709 76.9185 235.762 76.8119 235.762H74.7799C74.7159 235.762 74.6679 235.746 74.6359 235.714C74.6039 235.671 74.5985 235.613 74.6199 235.538L78.0759 224.722C78.1079 224.615 78.1772 224.562 78.2839 224.562H80.7959C80.9025 224.562 80.9719 224.615 81.0039 224.722L84.4599 235.538C84.4705 235.559 84.4759 235.586 84.4759 235.618C84.4759 235.714 84.4172 235.762 84.2999 235.762H82.2679ZM78.0599 232.13C78.0492 232.194 78.0705 232.226 78.1239 232.226H80.9399C81.0039 232.226 81.0252 232.194 81.0039 232.13L79.5639 227.378C79.5532 227.335 79.5372 227.319 79.5159 227.33C79.4945 227.33 79.4785 227.346 79.4679 227.378L78.0599 232.13ZM87.0743 235.762C87.0209 235.762 86.9729 235.746 86.9303 235.714C86.8983 235.671 86.8823 235.623 86.8823 235.57V224.754C86.8823 224.701 86.8983 224.658 86.9303 224.626C86.9729 224.583 87.0209 224.562 87.0743 224.562H88.9463C88.9996 224.562 89.0423 224.583 89.0743 224.626C89.1169 224.658 89.1383 224.701 89.1383 224.754V233.746C89.1383 233.799 89.1649 233.826 89.2183 233.826H94.4503C94.5036 233.826 94.5463 233.847 94.5783 233.89C94.6209 233.922 94.6423 233.965 94.6423 234.018V235.57C94.6423 235.623 94.6209 235.671 94.5783 235.714C94.5463 235.746 94.5036 235.762 94.4503 235.762H87.0743Z" fill="white"/>
<path d="M17.0198 133.969C17.0731 133.884 17.1478 133.841 17.2438 133.841H19.1158C19.1691 133.841 19.2118 133.863 19.2438 133.905C19.2864 133.937 19.3078 133.98 19.3078 134.033V144.849C19.3078 144.903 19.2864 144.951 19.2438 144.993C19.2118 145.025 19.1691 145.041 19.1158 145.041H17.2438C17.1904 145.041 17.1424 145.025 17.0998 144.993C17.0678 144.951 17.0518 144.903 17.0518 144.849V137.793C17.0518 137.751 17.0411 137.729 17.0198 137.729C16.9984 137.729 16.9771 137.745 16.9558 137.777L15.2598 140.433C15.2064 140.519 15.1318 140.561 15.0358 140.561H14.0918C13.9958 140.561 13.9211 140.519 13.8678 140.433L12.1718 137.777C12.1504 137.745 12.1291 137.735 12.1078 137.745C12.0864 137.745 12.0758 137.767 12.0758 137.809V144.849C12.0758 144.903 12.0544 144.951 12.0118 144.993C11.9798 145.025 11.9371 145.041 11.8838 145.041H10.0118C9.95842 145.041 9.91042 145.025 9.86775 144.993C9.83575 144.951 9.81975 144.903 9.81975 144.849V134.033C9.81975 133.98 9.83575 133.937 9.86775 133.905C9.91042 133.863 9.95842 133.841 10.0118 133.841H11.8838C11.9798 133.841 12.0544 133.884 12.1078 133.969L14.5078 137.697C14.5398 137.761 14.5718 137.761 14.6038 137.697L17.0198 133.969ZM29.3773 145.041C29.2706 145.041 29.2013 144.988 29.1693 144.881L28.6893 143.313C28.6679 143.271 28.6413 143.249 28.6093 143.249H24.6733C24.6413 143.249 24.6146 143.271 24.5933 143.313L24.1293 144.881C24.0973 144.988 24.0279 145.041 23.9213 145.041H21.8893C21.8253 145.041 21.7773 145.025 21.7453 144.993C21.7133 144.951 21.7079 144.892 21.7293 144.817L25.1853 134.001C25.2173 133.895 25.2866 133.841 25.3932 133.841H27.9053C28.0119 133.841 28.0813 133.895 28.1133 134.001L31.5693 144.817C31.5799 144.839 31.5853 144.865 31.5853 144.897C31.5853 144.993 31.5266 145.041 31.4093 145.041H29.3773ZM25.1693 141.409C25.1586 141.473 25.1799 141.505 25.2333 141.505H28.0493C28.1133 141.505 28.1346 141.473 28.1133 141.409L26.6733 136.657C26.6626 136.615 26.6466 136.599 26.6253 136.609C26.6039 136.609 26.5879 136.625 26.5773 136.657L25.1693 141.409ZM40.3446 133.841C40.398 133.841 40.4406 133.863 40.4726 133.905C40.5153 133.937 40.5366 133.98 40.5366 134.033V135.601C40.5366 135.655 40.5153 135.703 40.4726 135.745C40.4406 135.777 40.398 135.793 40.3446 135.793H37.4806C37.4273 135.793 37.4006 135.82 37.4006 135.873V144.849C37.4006 144.903 37.3793 144.951 37.3366 144.993C37.3046 145.025 37.262 145.041 37.2086 145.041H35.3366C35.2833 145.041 35.2353 145.025 35.1926 144.993C35.1606 144.951 35.1446 144.903 35.1446 144.849V135.873C35.1446 135.82 35.118 135.793 35.0646 135.793H32.2806C32.2273 135.793 32.1793 135.777 32.1366 135.745C32.1046 135.703 32.0886 135.655 32.0886 135.601V134.033C32.0886 133.98 32.1046 133.937 32.1366 133.905C32.1793 133.863 32.2273 133.841 32.2806 133.841H40.3446ZM50.752 135.585C50.752 135.639 50.7307 135.687 50.688 135.729C50.656 135.761 50.6133 135.777 50.56 135.777H45.312C45.2587 135.777 45.232 135.804 45.232 135.857V138.337C45.232 138.391 45.2587 138.417 45.312 138.417H48.752C48.8053 138.417 48.848 138.439 48.88 138.481C48.9227 138.513 48.944 138.556 48.944 138.609V140.161C48.944 140.215 48.9227 140.263 48.88 140.305C48.848 140.337 48.8053 140.353 48.752 140.353H45.312C45.2587 140.353 45.232 140.38 45.232 140.433V143.025C45.232 143.079 45.2587 143.105 45.312 143.105H50.56C50.6133 143.105 50.656 143.127 50.688 143.169C50.7307 143.201 50.752 143.244 50.752 143.297V144.849C50.752 144.903 50.7307 144.951 50.688 144.993C50.656 145.025 50.6133 145.041 50.56 145.041H43.168C43.1147 145.041 43.0667 145.025 43.024 144.993C42.992 144.951 42.976 144.903 42.976 144.849V134.033C42.976 133.98 42.992 133.937 43.024 133.905C43.0667 133.863 43.1147 133.841 43.168 133.841H50.56C50.6133 133.841 50.656 133.863 50.688 133.905C50.7307 133.937 50.752 133.98 50.752 134.033V135.585ZM59.4638 145.041C59.3571 145.041 59.2824 144.993 59.2398 144.897L57.2398 140.465C57.2184 140.423 57.1864 140.401 57.1438 140.401H55.6558C55.6024 140.401 55.5758 140.428 55.5758 140.481V144.849C55.5758 144.903 55.5544 144.951 55.5118 144.993C55.4798 145.025 55.4371 145.041 55.3838 145.041H53.5118C53.4584 145.041 53.4104 145.025 53.3678 144.993C53.3358 144.951 53.3198 144.903 53.3198 144.849V134.033C53.3198 133.98 53.3358 133.937 53.3678 133.905C53.4104 133.863 53.4584 133.841 53.5118 133.841H58.0878C58.7704 133.841 59.3678 133.98 59.8798 134.257C60.4024 134.535 60.8024 134.929 61.0798 135.441C61.3678 135.953 61.5118 136.545 61.5118 137.217C61.5118 137.943 61.3304 138.567 60.9678 139.089C60.6051 139.601 60.0984 139.964 59.4478 140.177C59.3944 140.199 59.3784 140.236 59.3998 140.289L61.5758 144.817C61.5971 144.86 61.6078 144.892 61.6078 144.913C61.6078 144.999 61.5491 145.041 61.4318 145.041H59.4638ZM55.6558 135.777C55.6024 135.777 55.5758 135.804 55.5758 135.857V138.593C55.5758 138.647 55.6024 138.673 55.6558 138.673H57.7518C58.1998 138.673 58.5624 138.54 58.8398 138.273C59.1278 138.007 59.2718 137.66 59.2718 137.233C59.2718 136.807 59.1278 136.46 58.8398 136.193C58.5624 135.916 58.1998 135.777 57.7518 135.777H55.6558ZM64.3399 145.041C64.2865 145.041 64.2385 145.025 64.1959 144.993C64.1639 144.951 64.1479 144.903 64.1479 144.849V134.033C64.1479 133.98 64.1639 133.937 64.1959 133.905C64.2385 133.863 64.2865 133.841 64.3399 133.841H66.2119C66.2652 133.841 66.3079 133.863 66.3399 133.905C66.3825 133.937 66.4039 133.98 66.4039 134.033V144.849C66.4039 144.903 66.3825 144.951 66.3399 144.993C66.3079 145.025 66.2652 145.041 66.2119 145.041H64.3399ZM76.471 145.041C76.3643 145.041 76.295 144.988 76.263 144.881L75.783 143.313C75.7617 143.271 75.735 143.249 75.703 143.249H71.767C71.735 143.249 71.7083 143.271 71.687 143.313L71.223 144.881C71.191 144.988 71.1217 145.041 71.015 145.041H68.983C68.919 145.041 68.871 145.025 68.839 144.993C68.807 144.951 68.8017 144.892 68.823 144.817L72.279 134.001C72.311 133.895 72.3803 133.841 72.487 133.841H74.999C75.1057 133.841 75.175 133.895 75.207 134.001L78.663 144.817C78.6737 144.839 78.679 144.865 78.679 144.897C78.679 144.993 78.6203 145.041 78.503 145.041H76.471ZM72.263 141.409C72.2523 141.473 72.2737 141.505 72.327 141.505H75.143C75.207 141.505 75.2283 141.473 75.207 141.409L73.767 136.657C73.7563 136.615 73.7403 136.599 73.719 136.609C73.6977 136.609 73.6817 136.625 73.671 136.657L72.263 141.409ZM81.2774 145.041C81.224 145.041 81.176 145.025 81.1334 144.993C81.1014 144.951 81.0854 144.903 81.0854 144.849V134.033C81.0854 133.98 81.1014 133.937 81.1334 133.905C81.176 133.863 81.224 133.841 81.2774 133.841H83.1494C83.2027 133.841 83.2454 133.863 83.2774 133.905C83.32 133.937 83.3414 133.98 83.3414 134.033V143.025C83.3414 143.079 83.368 143.105 83.4214 143.105H88.6534C88.7067 143.105 88.7494 143.127 88.7814 143.169C88.824 143.201 88.8454 143.244 88.8454 143.297V144.849C88.8454 144.903 88.824 144.951 88.7814 144.993C88.7494 145.025 88.7067 145.041 88.6534 145.041H81.2774Z" fill="white"/>
<path d="M70.6891 51.8508C71.3051 51.8508 71.8464 51.9768 72.3131 52.2288C72.7797 52.4808 73.1391 52.8401 73.3911 53.3068C73.6524 53.7641 73.7831 54.2915 73.7831 54.8888C73.7831 55.4768 73.6477 55.9948 73.3771 56.4428C73.1157 56.8908 72.7424 57.2408 72.2571 57.4928C71.7811 57.7355 71.2304 57.8568 70.6051 57.8568H68.6171C68.5704 57.8568 68.5471 57.8801 68.5471 57.9268V61.4968C68.5471 61.5435 68.5284 61.5855 68.4911 61.6228C68.4631 61.6508 68.4257 61.6648 68.3791 61.6648H66.7411C66.6944 61.6648 66.6524 61.6508 66.6151 61.6228C66.5871 61.5855 66.5731 61.5435 66.5731 61.4968V52.0188C66.5731 51.9721 66.5871 51.9348 66.6151 51.9068C66.6524 51.8695 66.6944 51.8508 66.7411 51.8508H70.6891ZM70.3951 56.2748C70.8244 56.2748 71.1697 56.1535 71.4311 55.9108C71.6924 55.6588 71.8231 55.3321 71.8231 54.9308C71.8231 54.5201 71.6924 54.1888 71.4311 53.9368C71.1697 53.6848 70.8244 53.5588 70.3951 53.5588H68.6171C68.5704 53.5588 68.5471 53.5821 68.5471 53.6288V56.2048C68.5471 56.2515 68.5704 56.2748 68.6171 56.2748H70.3951ZM81.3726 61.6648C81.2792 61.6648 81.2139 61.6228 81.1766 61.5388L79.4266 57.6608C79.4079 57.6235 79.3799 57.6048 79.3426 57.6048H78.0406C77.9939 57.6048 77.9706 57.6281 77.9706 57.6748V61.4968C77.9706 61.5435 77.9519 61.5855 77.9146 61.6228C77.8866 61.6508 77.8492 61.6648 77.8026 61.6648H76.1646C76.1179 61.6648 76.0759 61.6508 76.0386 61.6228C76.0106 61.5855 75.9966 61.5435 75.9966 61.4968V52.0328C75.9966 51.9861 76.0106 51.9488 76.0386 51.9208C76.0759 51.8835 76.1179 51.8648 76.1646 51.8648H80.1686C80.7659 51.8648 81.2886 51.9861 81.7366 52.2288C82.1939 52.4715 82.5439 52.8168 82.7866 53.2648C83.0386 53.7128 83.1646 54.2308 83.1646 54.8188C83.1646 55.4535 83.0059 55.9995 82.6886 56.4568C82.3712 56.9048 81.9279 57.2221 81.3586 57.4088C81.3119 57.4275 81.2979 57.4601 81.3166 57.5068L83.2206 61.4688C83.2392 61.5061 83.2486 61.5341 83.2486 61.5528C83.2486 61.6275 83.1972 61.6648 83.0946 61.6648H81.3726ZM78.0406 53.5588C77.9939 53.5588 77.9706 53.5821 77.9706 53.6288V56.0228C77.9706 56.0695 77.9939 56.0928 78.0406 56.0928H79.8746C80.2666 56.0928 80.5839 55.9761 80.8266 55.7428C81.0786 55.5095 81.2046 55.2061 81.2046 54.8328C81.2046 54.4595 81.0786 54.1561 80.8266 53.9228C80.5839 53.6801 80.2666 53.5588 79.8746 53.5588H78.0406ZM89.0822 61.8188C88.3542 61.8188 87.7102 61.6695 87.1502 61.3708C86.5995 61.0721 86.1702 60.6568 85.8622 60.1248C85.5542 59.5835 85.4002 58.9628 85.4002 58.2628V55.2668C85.4002 54.5761 85.5542 53.9648 85.8622 53.4328C86.1702 52.9008 86.5995 52.4901 87.1502 52.2008C87.7102 51.9021 88.3542 51.7528 89.0822 51.7528C89.8195 51.7528 90.4635 51.9021 91.0142 52.2008C91.5742 52.4901 92.0082 52.9008 92.3162 53.4328C92.6242 53.9648 92.7782 54.5761 92.7782 55.2668V58.2628C92.7782 58.9628 92.6242 59.5835 92.3162 60.1248C92.0082 60.6661 91.5742 61.0861 91.0142 61.3848C90.4635 61.6741 89.8195 61.8188 89.0822 61.8188ZM89.0822 60.1248C89.5955 60.1248 90.0109 59.9615 90.3282 59.6348C90.6455 59.3081 90.8042 58.8741 90.8042 58.3328V55.2528C90.8042 54.7115 90.6455 54.2775 90.3282 53.9508C90.0202 53.6148 89.6049 53.4468 89.0822 53.4468C88.5689 53.4468 88.1535 53.6148 87.8362 53.9508C87.5282 54.2775 87.3742 54.7115 87.3742 55.2528V58.3328C87.3742 58.8741 87.5282 59.3081 87.8362 59.6348C88.1535 59.9615 88.5689 60.1248 89.0822 60.1248ZM102.082 53.3908C102.082 53.4375 102.063 53.4795 102.026 53.5168C101.998 53.5448 101.96 53.5588 101.914 53.5588H97.3355C97.2888 53.5588 97.2655 53.5821 97.2655 53.6288V55.7988C97.2655 55.8455 97.2888 55.8688 97.3355 55.8688H100.346C100.392 55.8688 100.43 55.8875 100.458 55.9248C100.495 55.9528 100.514 55.9901 100.514 56.0368V57.3948C100.514 57.4415 100.495 57.4835 100.458 57.5208C100.43 57.5488 100.392 57.5628 100.346 57.5628H97.3355C97.2888 57.5628 97.2655 57.5861 97.2655 57.6328V61.4968C97.2655 61.5435 97.2468 61.5855 97.2095 61.6228C97.1815 61.6508 97.1442 61.6648 97.0975 61.6648H95.4595C95.4128 61.6648 95.3708 61.6508 95.3335 61.6228C95.3055 61.5855 95.2915 61.5435 95.2915 61.4968V52.0328C95.2915 51.9861 95.3055 51.9488 95.3335 51.9208C95.3708 51.8835 95.4128 51.8648 95.4595 51.8648H101.914C101.96 51.8648 101.998 51.8835 102.026 51.9208C102.063 51.9488 102.082 51.9861 102.082 52.0328V53.3908ZM110.929 53.3908C110.929 53.4375 110.911 53.4795 110.873 53.5168C110.845 53.5448 110.808 53.5588 110.761 53.5588H106.169C106.123 53.5588 106.099 53.5821 106.099 53.6288V55.7988C106.099 55.8455 106.123 55.8688 106.169 55.8688H109.179C109.226 55.8688 109.263 55.8875 109.291 55.9248C109.329 55.9528 109.347 55.9901 109.347 56.0368V57.3948C109.347 57.4415 109.329 57.4835 109.291 57.5208C109.263 57.5488 109.226 57.5628 109.179 57.5628H106.169C106.123 57.5628 106.099 57.5861 106.099 57.6328V59.9008C106.099 59.9475 106.123 59.9708 106.169 59.9708H110.761C110.808 59.9708 110.845 59.9895 110.873 60.0268C110.911 60.0548 110.929 60.0921 110.929 60.1388V61.4968C110.929 61.5435 110.911 61.5855 110.873 61.6228C110.845 61.6508 110.808 61.6648 110.761 61.6648H104.293C104.247 61.6648 104.205 61.6508 104.167 61.6228C104.139 61.5855 104.125 61.5435 104.125 61.4968V52.0328C104.125 51.9861 104.139 51.9488 104.167 51.9208C104.205 51.8835 104.247 51.8648 104.293 51.8648H110.761C110.808 51.8648 110.845 51.8835 110.873 51.9208C110.911 51.9488 110.929 51.9861 110.929 52.0328V53.3908ZM116.661 61.7768C115.915 61.7768 115.261 61.6601 114.701 61.4268C114.141 61.1841 113.707 60.8435 113.399 60.4048C113.101 59.9568 112.951 59.4388 112.951 58.8508V58.5428C112.951 58.4961 112.965 58.4588 112.993 58.4308C113.031 58.3935 113.073 58.3748 113.119 58.3748H114.715C114.762 58.3748 114.799 58.3935 114.827 58.4308C114.865 58.4588 114.883 58.4961 114.883 58.5428V58.7528C114.883 59.1261 115.056 59.4435 115.401 59.7048C115.747 59.9568 116.213 60.0828 116.801 60.0828C117.296 60.0828 117.665 59.9801 117.907 59.7748C118.15 59.5601 118.271 59.2988 118.271 58.9908C118.271 58.7668 118.197 58.5801 118.047 58.4308C117.898 58.2721 117.693 58.1368 117.431 58.0248C117.179 57.9035 116.773 57.7401 116.213 57.5348C115.588 57.3201 115.056 57.1008 114.617 56.8768C114.188 56.6528 113.824 56.3495 113.525 55.9668C113.236 55.5748 113.091 55.0941 113.091 54.5248C113.091 53.9648 113.236 53.4748 113.525 53.0548C113.815 52.6348 114.216 52.3128 114.729 52.0888C115.243 51.8648 115.835 51.7528 116.507 51.7528C117.217 51.7528 117.847 51.8788 118.397 52.1308C118.957 52.3828 119.391 52.7375 119.699 53.1948C120.017 53.6428 120.175 54.1655 120.175 54.7628V54.9728C120.175 55.0195 120.157 55.0615 120.119 55.0988C120.091 55.1268 120.054 55.1408 120.007 55.1408H118.397C118.351 55.1408 118.309 55.1268 118.271 55.0988C118.243 55.0615 118.229 55.0195 118.229 54.9728V54.8608C118.229 54.4688 118.066 54.1375 117.739 53.8668C117.422 53.5868 116.983 53.4468 116.423 53.4468C115.985 53.4468 115.639 53.5401 115.387 53.7268C115.145 53.9135 115.023 54.1701 115.023 54.4968C115.023 54.7301 115.093 54.9261 115.233 55.0848C115.383 55.2435 115.597 55.3881 115.877 55.5188C116.167 55.6401 116.61 55.8081 117.207 56.0228C117.87 56.2655 118.388 56.4801 118.761 56.6668C119.144 56.8535 119.485 57.1335 119.783 57.5068C120.091 57.8708 120.245 58.3468 120.245 58.9348C120.245 59.8121 119.923 60.5075 119.279 61.0208C118.635 61.5248 117.763 61.7768 116.661 61.7768ZM125.987 61.7768C125.241 61.7768 124.587 61.6601 124.027 61.4268C123.467 61.1841 123.033 60.8435 122.725 60.4048C122.427 59.9568 122.277 59.4388 122.277 58.8508V58.5428C122.277 58.4961 122.291 58.4588 122.319 58.4308C122.357 58.3935 122.399 58.3748 122.445 58.3748H124.041C124.088 58.3748 124.125 58.3935 124.153 58.4308C124.191 58.4588 124.209 58.4961 124.209 58.5428V58.7528C124.209 59.1261 124.382 59.4435 124.727 59.7048C125.073 59.9568 125.539 60.0828 126.127 60.0828C126.622 60.0828 126.991 59.9801 127.233 59.7748C127.476 59.5601 127.597 59.2988 127.597 58.9908C127.597 58.7668 127.523 58.5801 127.373 58.4308C127.224 58.2721 127.019 58.1368 126.757 58.0248C126.505 57.9035 126.099 57.7401 125.539 57.5348C124.914 57.3201 124.382 57.1008 123.943 56.8768C123.514 56.6528 123.15 56.3495 122.851 55.9668C122.562 55.5748 122.417 55.0941 122.417 54.5248C122.417 53.9648 122.562 53.4748 122.851 53.0548C123.141 52.6348 123.542 52.3128 124.055 52.0888C124.569 51.8648 125.161 51.7528 125.833 51.7528C126.543 51.7528 127.173 51.8788 127.723 52.1308C128.283 52.3828 128.717 52.7375 129.025 53.1948C129.343 53.6428 129.501 54.1655 129.501 54.7628V54.9728C129.501 55.0195 129.483 55.0615 129.445 55.0988C129.417 55.1268 129.38 55.1408 129.333 55.1408H127.723C127.677 55.1408 127.635 55.1268 127.597 55.0988C127.569 55.0615 127.555 55.0195 127.555 54.9728V54.8608C127.555 54.4688 127.392 54.1375 127.065 53.8668C126.748 53.5868 126.309 53.4468 125.749 53.4468C125.311 53.4468 124.965 53.5401 124.713 53.7268C124.471 53.9135 124.349 54.1701 124.349 54.4968C124.349 54.7301 124.419 54.9261 124.559 55.0848C124.709 55.2435 124.923 55.3881 125.203 55.5188C125.493 55.6401 125.936 55.8081 126.533 56.0228C127.196 56.2655 127.714 56.4801 128.087 56.6668C128.47 56.8535 128.811 57.1335 129.109 57.5068C129.417 57.8708 129.571 58.3468 129.571 58.9348C129.571 59.8121 129.249 60.5075 128.605 61.0208C127.961 61.5248 127.089 61.7768 125.987 61.7768ZM132.122 61.6648C132.075 61.6648 132.033 61.6508 131.996 61.6228C131.968 61.5855 131.954 61.5435 131.954 61.4968V52.0328C131.954 51.9861 131.968 51.9488 131.996 51.9208C132.033 51.8835 132.075 51.8648 132.122 51.8648H133.76C133.806 51.8648 133.844 51.8835 133.872 51.9208C133.909 51.9488 133.928 51.9861 133.928 52.0328V61.4968C133.928 61.5435 133.909 61.5855 133.872 61.6228C133.844 61.6508 133.806 61.6648 133.76 61.6648H132.122ZM140.117 61.8188C139.389 61.8188 138.745 61.6695 138.185 61.3708C137.635 61.0721 137.205 60.6568 136.897 60.1248C136.589 59.5835 136.435 58.9628 136.435 58.2628V55.2668C136.435 54.5761 136.589 53.9648 136.897 53.4328C137.205 52.9008 137.635 52.4901 138.185 52.2008C138.745 51.9021 139.389 51.7528 140.117 51.7528C140.855 51.7528 141.499 51.9021 142.049 52.2008C142.609 52.4901 143.043 52.9008 143.351 53.4328C143.659 53.9648 143.813 54.5761 143.813 55.2668V58.2628C143.813 58.9628 143.659 59.5835 143.351 60.1248C143.043 60.6661 142.609 61.0861 142.049 61.3848C141.499 61.6741 140.855 61.8188 140.117 61.8188ZM140.117 60.1248C140.631 60.1248 141.046 59.9615 141.363 59.6348C141.681 59.3081 141.839 58.8741 141.839 58.3328V55.2528C141.839 54.7115 141.681 54.2775 141.363 53.9508C141.055 53.6148 140.64 53.4468 140.117 53.4468C139.604 53.4468 139.189 53.6148 138.871 53.9508C138.563 54.2775 138.409 54.7115 138.409 55.2528V58.3328C138.409 58.8741 138.563 59.3081 138.871 59.6348C139.189 59.9615 139.604 60.1248 140.117 60.1248ZM151.955 52.0328C151.955 51.9861 151.969 51.9488 151.997 51.9208C152.034 51.8835 152.076 51.8648 152.123 51.8648H153.761C153.807 51.8648 153.845 51.8835 153.873 51.9208C153.91 51.9488 153.929 51.9861 153.929 52.0328V61.4968C153.929 61.5435 153.91 61.5855 153.873 61.6228C153.845 61.6508 153.807 61.6648 153.761 61.6648H152.179C152.085 61.6648 152.02 61.6275 151.983 61.5528L148.357 55.5608C148.338 55.5328 148.319 55.5235 148.301 55.5328C148.282 55.5328 148.273 55.5515 148.273 55.5888L148.301 61.4968C148.301 61.5435 148.282 61.5855 148.245 61.6228C148.217 61.6508 148.179 61.6648 148.133 61.6648H146.495C146.448 61.6648 146.406 61.6508 146.369 61.6228C146.341 61.5855 146.327 61.5435 146.327 61.4968V52.0328C146.327 51.9861 146.341 51.9488 146.369 51.9208C146.406 51.8835 146.448 51.8648 146.495 51.8648H148.077C148.17 51.8648 148.235 51.9021 148.273 51.9768L151.885 57.9408C151.903 57.9688 151.922 57.9828 151.941 57.9828C151.959 57.9735 151.969 57.9501 151.969 57.9128L151.955 52.0328ZM162.867 61.6648C162.774 61.6648 162.713 61.6181 162.685 61.5248L162.265 60.1528C162.247 60.1155 162.223 60.0968 162.195 60.0968H158.751C158.723 60.0968 158.7 60.1155 158.681 60.1528L158.275 61.5248C158.247 61.6181 158.187 61.6648 158.093 61.6648H156.315C156.259 61.6648 156.217 61.6508 156.189 61.6228C156.161 61.5855 156.157 61.5341 156.175 61.4688L159.199 52.0048C159.227 51.9115 159.288 51.8648 159.381 51.8648H161.579C161.673 51.8648 161.733 51.9115 161.761 52.0048L164.785 61.4688C164.795 61.4875 164.799 61.5108 164.799 61.5388C164.799 61.6228 164.748 61.6648 164.645 61.6648H162.867ZM159.185 58.4868C159.176 58.5428 159.195 58.5708 159.241 58.5708H161.705C161.761 58.5708 161.78 58.5428 161.761 58.4868L160.501 54.3288C160.492 54.2915 160.478 54.2775 160.459 54.2868C160.441 54.2868 160.427 54.3008 160.417 54.3288L159.185 58.4868ZM167.198 61.6648C167.151 61.6648 167.109 61.6508 167.072 61.6228C167.044 61.5855 167.03 61.5435 167.03 61.4968V52.0328C167.03 51.9861 167.044 51.9488 167.072 51.9208C167.109 51.8835 167.151 51.8648 167.198 51.8648H168.836C168.882 51.8648 168.92 51.8835 168.948 51.9208C168.985 51.9488 169.004 51.9861 169.004 52.0328V59.9008C169.004 59.9475 169.027 59.9708 169.074 59.9708H173.652C173.698 59.9708 173.736 59.9895 173.764 60.0268C173.801 60.0548 173.82 60.0921 173.82 60.1388V61.4968C173.82 61.5435 173.801 61.5855 173.764 61.6228C173.736 61.6508 173.698 61.6648 173.652 61.6648H167.198Z" fill="white"/>
<path d="M189.428 294.224C190.132 294.224 190.751 294.368 191.284 294.656C191.817 294.944 192.228 295.354 192.516 295.888C192.815 296.41 192.964 297.013 192.964 297.696C192.964 298.368 192.809 298.96 192.5 299.472C192.201 299.984 191.775 300.384 191.22 300.672C190.676 300.949 190.047 301.088 189.332 301.088H187.06C187.007 301.088 186.98 301.114 186.98 301.168V305.248C186.98 305.301 186.959 305.349 186.916 305.392C186.884 305.424 186.841 305.44 186.788 305.44H184.916C184.863 305.44 184.815 305.424 184.772 305.392C184.74 305.349 184.724 305.301 184.724 305.248V294.416C184.724 294.362 184.74 294.32 184.772 294.288C184.815 294.245 184.863 294.224 184.916 294.224H189.428ZM189.092 299.28C189.583 299.28 189.977 299.141 190.276 298.864C190.575 298.576 190.724 298.202 190.724 297.744C190.724 297.274 190.575 296.896 190.276 296.608C189.977 296.32 189.583 296.176 189.092 296.176H187.06C187.007 296.176 186.98 296.202 186.98 296.256V299.2C186.98 299.253 187.007 299.28 187.06 299.28H189.092ZM195.543 305.44C195.49 305.44 195.442 305.424 195.399 305.392C195.367 305.349 195.351 305.301 195.351 305.248V294.432C195.351 294.378 195.367 294.336 195.399 294.304C195.442 294.261 195.49 294.24 195.543 294.24H197.415C197.468 294.24 197.511 294.261 197.543 294.304C197.586 294.336 197.607 294.378 197.607 294.432V303.424C197.607 303.477 197.634 303.504 197.687 303.504H202.919C202.972 303.504 203.015 303.525 203.047 303.568C203.09 303.6 203.111 303.642 203.111 303.696V305.248C203.111 305.301 203.09 305.349 203.047 305.392C203.015 305.424 202.972 305.44 202.919 305.44H195.543ZM213.283 295.984C213.283 296.037 213.262 296.085 213.219 296.128C213.187 296.16 213.145 296.176 213.091 296.176H207.843C207.79 296.176 207.763 296.202 207.763 296.256V298.736C207.763 298.789 207.79 298.816 207.843 298.816H211.283C211.337 298.816 211.379 298.837 211.411 298.88C211.454 298.912 211.475 298.954 211.475 299.008V300.56C211.475 300.613 211.454 300.661 211.411 300.704C211.379 300.736 211.337 300.752 211.283 300.752H207.843C207.79 300.752 207.763 300.778 207.763 300.832V303.424C207.763 303.477 207.79 303.504 207.843 303.504H213.091C213.145 303.504 213.187 303.525 213.219 303.568C213.262 303.6 213.283 303.642 213.283 303.696V305.248C213.283 305.301 213.262 305.349 213.219 305.392C213.187 305.424 213.145 305.44 213.091 305.44H205.699C205.646 305.44 205.598 305.424 205.555 305.392C205.523 305.349 205.507 305.301 205.507 305.248V294.432C205.507 294.378 205.523 294.336 205.555 294.304C205.598 294.261 205.646 294.24 205.699 294.24H213.091C213.145 294.24 213.187 294.261 213.219 294.304C213.262 294.336 213.283 294.378 213.283 294.432V295.984ZM219.691 305.568C218.838 305.568 218.091 305.434 217.451 305.168C216.811 304.89 216.315 304.501 215.963 304C215.622 303.488 215.451 302.896 215.451 302.224V301.872C215.451 301.818 215.467 301.776 215.499 301.744C215.542 301.701 215.59 301.68 215.643 301.68H217.467C217.52 301.68 217.563 301.701 217.595 301.744C217.638 301.776 217.659 301.818 217.659 301.872V302.112C217.659 302.538 217.856 302.901 218.251 303.2C218.646 303.488 219.179 303.632 219.851 303.632C220.416 303.632 220.838 303.514 221.115 303.28C221.392 303.034 221.531 302.736 221.531 302.384C221.531 302.128 221.446 301.914 221.275 301.744C221.104 301.562 220.87 301.408 220.571 301.28C220.283 301.141 219.819 300.954 219.179 300.72C218.464 300.474 217.856 300.224 217.355 299.968C216.864 299.712 216.448 299.365 216.107 298.928C215.776 298.48 215.611 297.93 215.611 297.28C215.611 296.64 215.776 296.08 216.107 295.6C216.438 295.12 216.896 294.752 217.483 294.496C218.07 294.24 218.747 294.112 219.515 294.112C220.326 294.112 221.046 294.256 221.675 294.544C222.315 294.832 222.811 295.237 223.163 295.76C223.526 296.272 223.707 296.869 223.707 297.552V297.792C223.707 297.845 223.686 297.893 223.643 297.936C223.611 297.968 223.568 297.984 223.515 297.984H221.675C221.622 297.984 221.574 297.968 221.531 297.936C221.499 297.893 221.483 297.845 221.483 297.792V297.664C221.483 297.216 221.296 296.837 220.923 296.528C220.56 296.208 220.059 296.048 219.419 296.048C218.918 296.048 218.523 296.154 218.235 296.368C217.958 296.581 217.819 296.874 217.819 297.248C217.819 297.514 217.899 297.738 218.059 297.92C218.23 298.101 218.475 298.266 218.795 298.416C219.126 298.554 219.632 298.746 220.315 298.992C221.072 299.269 221.664 299.514 222.091 299.728C222.528 299.941 222.918 300.261 223.259 300.688C223.611 301.104 223.787 301.648 223.787 302.32C223.787 303.322 223.419 304.117 222.683 304.704C221.947 305.28 220.95 305.568 219.691 305.568ZM230.431 305.568C229.609 305.568 228.884 305.408 228.255 305.088C227.636 304.768 227.151 304.32 226.799 303.744C226.457 303.157 226.287 302.485 226.287 301.728V294.432C226.287 294.378 226.303 294.336 226.335 294.304C226.377 294.261 226.425 294.24 226.479 294.24H228.351C228.404 294.24 228.447 294.261 228.479 294.304C228.521 294.336 228.543 294.378 228.543 294.432V301.744C228.543 302.309 228.713 302.768 229.055 303.12C229.407 303.461 229.865 303.632 230.431 303.632C230.996 303.632 231.449 303.461 231.791 303.12C232.143 302.768 232.319 302.309 232.319 301.744V294.432C232.319 294.378 232.335 294.336 232.367 294.304C232.409 294.261 232.457 294.24 232.511 294.24H234.383C234.436 294.24 234.479 294.261 234.511 294.304C234.553 294.336 234.575 294.378 234.575 294.432V301.728C234.575 302.485 234.399 303.157 234.047 303.744C233.705 304.32 233.22 304.768 232.591 305.088C231.972 305.408 231.252 305.568 230.431 305.568ZM243.573 305.44C243.466 305.44 243.392 305.392 243.349 305.296L241.349 300.864C241.328 300.821 241.296 300.8 241.253 300.8H239.765C239.712 300.8 239.685 300.826 239.685 300.88V305.248C239.685 305.301 239.664 305.349 239.621 305.392C239.589 305.424 239.546 305.44 239.493 305.44H237.621C237.568 305.44 237.52 305.424 237.477 305.392C237.445 305.349 237.429 305.301 237.429 305.248V294.432C237.429 294.378 237.445 294.336 237.477 294.304C237.52 294.261 237.568 294.24 237.621 294.24H242.197C242.88 294.24 243.477 294.378 243.989 294.656C244.512 294.933 244.912 295.328 245.189 295.84C245.477 296.352 245.621 296.944 245.621 297.616C245.621 298.341 245.44 298.965 245.077 299.488C244.714 300 244.208 300.362 243.557 300.576C243.504 300.597 243.488 300.634 243.509 300.688L245.685 305.216C245.706 305.258 245.717 305.29 245.717 305.312C245.717 305.397 245.658 305.44 245.541 305.44H243.573ZM239.765 296.176C239.712 296.176 239.685 296.202 239.685 296.256V298.992C239.685 299.045 239.712 299.072 239.765 299.072H241.861C242.309 299.072 242.672 298.938 242.949 298.672C243.237 298.405 243.381 298.058 243.381 297.632C243.381 297.205 243.237 296.858 242.949 296.592C242.672 296.314 242.309 296.176 241.861 296.176H239.765ZM255.612 305.44C255.505 305.44 255.436 305.386 255.404 305.28L254.924 303.712C254.902 303.669 254.876 303.648 254.844 303.648H250.908C250.876 303.648 250.849 303.669 250.828 303.712L250.364 305.28C250.332 305.386 250.262 305.44 250.156 305.44H248.124C248.06 305.44 248.012 305.424 247.98 305.392C247.948 305.349 247.942 305.29 247.964 305.216L251.42 294.4C251.452 294.293 251.521 294.24 251.628 294.24H254.14C254.246 294.24 254.316 294.293 254.348 294.4L257.804 305.216C257.814 305.237 257.82 305.264 257.82 305.296C257.82 305.392 257.761 305.44 257.644 305.44H255.612ZM251.404 301.808C251.393 301.872 251.414 301.904 251.468 301.904H254.284C254.348 301.904 254.369 301.872 254.348 301.808L252.908 297.056C252.897 297.013 252.881 296.997 252.86 297.008C252.838 297.008 252.822 297.024 252.812 297.056L251.404 301.808ZM266.866 299.6C266.802 299.632 266.802 299.664 266.866 299.696C267.879 300.218 268.386 301.088 268.386 302.304C268.386 303.338 268.034 304.122 267.33 304.656C266.626 305.178 265.703 305.44 264.562 305.44H260.418C260.365 305.44 260.317 305.424 260.274 305.392C260.242 305.349 260.226 305.301 260.226 305.248V294.432C260.226 294.378 260.242 294.336 260.274 294.304C260.317 294.261 260.365 294.24 260.418 294.24H264.434C266.962 294.24 268.226 295.264 268.226 297.312C268.226 298.378 267.773 299.141 266.866 299.6ZM262.562 296.176C262.509 296.176 262.482 296.202 262.482 296.256V298.752C262.482 298.805 262.509 298.832 262.562 298.832H264.434C264.935 298.832 265.325 298.714 265.602 298.48C265.879 298.245 266.018 297.925 266.018 297.52C266.018 297.104 265.879 296.778 265.602 296.544C265.325 296.298 264.935 296.176 264.434 296.176H262.562ZM264.562 303.488C265.053 303.488 265.437 303.365 265.714 303.12C265.991 302.864 266.13 302.517 266.13 302.08C266.13 301.642 265.991 301.301 265.714 301.056C265.437 300.8 265.047 300.672 264.546 300.672H262.562C262.509 300.672 262.482 300.698 262.482 300.752V303.408C262.482 303.461 262.509 303.488 262.562 303.488H264.562ZM271.34 305.44C271.287 305.44 271.239 305.424 271.196 305.392C271.164 305.349 271.148 305.301 271.148 305.248V294.432C271.148 294.378 271.164 294.336 271.196 294.304C271.239 294.261 271.287 294.24 271.34 294.24H273.212C273.265 294.24 273.308 294.261 273.34 294.304C273.383 294.336 273.404 294.378 273.404 294.432V303.424C273.404 303.477 273.431 303.504 273.484 303.504H278.716C278.769 303.504 278.812 303.525 278.844 303.568C278.887 303.6 278.908 303.642 278.908 303.696V305.248C278.908 305.301 278.887 305.349 278.844 305.392C278.812 305.424 278.769 305.44 278.716 305.44H271.34ZM289.08 295.984C289.08 296.037 289.059 296.085 289.016 296.128C288.984 296.16 288.941 296.176 288.888 296.176H283.64C283.587 296.176 283.56 296.202 283.56 296.256V298.736C283.56 298.789 283.587 298.816 283.64 298.816H287.08C287.133 298.816 287.176 298.837 287.208 298.88C287.251 298.912 287.272 298.954 287.272 299.008V300.56C287.272 300.613 287.251 300.661 287.208 300.704C287.176 300.736 287.133 300.752 287.08 300.752H283.64C283.587 300.752 283.56 300.778 283.56 300.832V303.424C283.56 303.477 283.587 303.504 283.64 303.504H288.888C288.941 303.504 288.984 303.525 289.016 303.568C289.059 303.6 289.08 303.642 289.08 303.696V305.248C289.08 305.301 289.059 305.349 289.016 305.392C288.984 305.424 288.941 305.44 288.888 305.44H281.496C281.443 305.44 281.395 305.424 281.352 305.392C281.32 305.349 281.304 305.301 281.304 305.248V294.432C281.304 294.378 281.32 294.336 281.352 294.304C281.395 294.261 281.443 294.24 281.496 294.24H288.888C288.941 294.24 288.984 294.261 289.016 294.304C289.059 294.336 289.08 294.378 289.08 294.432V295.984Z" fill="white"/>
<path d="M277.196 224.69C277.249 224.605 277.324 224.562 277.42 224.562H279.292C279.345 224.562 279.388 224.583 279.42 224.626C279.462 224.658 279.484 224.701 279.484 224.754V235.57C279.484 235.623 279.462 235.671 279.42 235.714C279.388 235.746 279.345 235.762 279.292 235.762H277.42C277.366 235.762 277.318 235.746 277.276 235.714C277.244 235.671 277.228 235.623 277.228 235.57V228.514C277.228 228.471 277.217 228.45 277.196 228.45C277.174 228.45 277.153 228.466 277.132 228.498L275.436 231.154C275.382 231.239 275.308 231.282 275.212 231.282H274.268C274.172 231.282 274.097 231.239 274.044 231.154L272.348 228.498C272.326 228.466 272.305 228.455 272.284 228.466C272.262 228.466 272.252 228.487 272.252 228.53V235.57C272.252 235.623 272.23 235.671 272.188 235.714C272.156 235.746 272.113 235.762 272.06 235.762H270.188C270.134 235.762 270.086 235.746 270.044 235.714C270.012 235.671 269.996 235.623 269.996 235.57V224.754C269.996 224.701 270.012 224.658 270.044 224.626C270.086 224.583 270.134 224.562 270.188 224.562H272.06C272.156 224.562 272.23 224.605 272.284 224.69L274.684 228.418C274.716 228.482 274.748 228.482 274.78 228.418L277.196 224.69ZM290.209 226.306C290.209 226.359 290.188 226.407 290.145 226.45C290.113 226.482 290.07 226.498 290.017 226.498H284.769C284.716 226.498 284.689 226.525 284.689 226.578V229.058C284.689 229.111 284.716 229.138 284.769 229.138H288.209C288.262 229.138 288.305 229.159 288.337 229.202C288.38 229.234 288.401 229.277 288.401 229.33V230.882C288.401 230.935 288.38 230.983 288.337 231.026C288.305 231.058 288.262 231.074 288.209 231.074H284.769C284.716 231.074 284.689 231.101 284.689 231.154V233.746C284.689 233.799 284.716 233.826 284.769 233.826H290.017C290.07 233.826 290.113 233.847 290.145 233.89C290.188 233.922 290.209 233.965 290.209 234.018V235.57C290.209 235.623 290.188 235.671 290.145 235.714C290.113 235.746 290.07 235.762 290.017 235.762H282.625C282.572 235.762 282.524 235.746 282.481 235.714C282.449 235.671 282.433 235.623 282.433 235.57V224.754C282.433 224.701 282.449 224.658 282.481 224.626C282.524 224.583 282.572 224.562 282.625 224.562H290.017C290.07 224.562 290.113 224.583 290.145 224.626C290.188 224.658 290.209 224.701 290.209 224.754V226.306ZM299.209 224.754C299.209 224.701 299.225 224.658 299.257 224.626C299.299 224.583 299.347 224.562 299.401 224.562H301.273C301.326 224.562 301.369 224.583 301.401 224.626C301.443 224.658 301.465 224.701 301.465 224.754V235.57C301.465 235.623 301.443 235.671 301.401 235.714C301.369 235.746 301.326 235.762 301.273 235.762H299.465C299.358 235.762 299.283 235.719 299.241 235.634L295.097 228.786C295.075 228.754 295.054 228.743 295.033 228.754C295.011 228.754 295.001 228.775 295.001 228.818L295.033 235.57C295.033 235.623 295.011 235.671 294.969 235.714C294.937 235.746 294.894 235.762 294.841 235.762H292.969C292.915 235.762 292.867 235.746 292.825 235.714C292.793 235.671 292.777 235.623 292.777 235.57V224.754C292.777 224.701 292.793 224.658 292.825 224.626C292.867 224.583 292.915 224.562 292.969 224.562H294.777C294.883 224.562 294.958 224.605 295.001 224.69L299.129 231.506C299.15 231.538 299.171 231.554 299.193 231.554C299.214 231.543 299.225 231.517 299.225 231.474L299.209 224.754ZM312.145 224.562C312.199 224.562 312.241 224.583 312.273 224.626C312.316 224.658 312.337 224.701 312.337 224.754V226.322C312.337 226.375 312.316 226.423 312.273 226.466C312.241 226.498 312.199 226.514 312.145 226.514H309.281C309.228 226.514 309.201 226.541 309.201 226.594V235.57C309.201 235.623 309.18 235.671 309.137 235.714C309.105 235.746 309.063 235.762 309.009 235.762H307.137C307.084 235.762 307.036 235.746 306.993 235.714C306.961 235.671 306.945 235.623 306.945 235.57V226.594C306.945 226.541 306.919 226.514 306.865 226.514H304.081C304.028 226.514 303.98 226.498 303.937 226.466C303.905 226.423 303.889 226.375 303.889 226.322V224.754C303.889 224.701 303.905 224.658 303.937 224.626C303.98 224.583 304.028 224.562 304.081 224.562H312.145ZM320.866 235.762C320.759 235.762 320.69 235.709 320.658 235.602L320.178 234.034C320.156 233.991 320.13 233.97 320.098 233.97H316.162C316.13 233.97 316.103 233.991 316.082 234.034L315.618 235.602C315.586 235.709 315.516 235.762 315.41 235.762H313.378C313.314 235.762 313.266 235.746 313.234 235.714C313.202 235.671 313.196 235.613 313.218 235.538L316.674 224.722C316.706 224.615 316.775 224.562 316.882 224.562H319.394C319.5 224.562 319.57 224.615 319.602 224.722L323.058 235.538C323.068 235.559 323.074 235.586 323.074 235.618C323.074 235.714 323.015 235.762 322.898 235.762H320.866ZM316.658 232.13C316.647 232.194 316.668 232.226 316.722 232.226H319.538C319.602 232.226 319.623 232.194 319.602 232.13L318.162 227.378C318.151 227.335 318.135 227.319 318.114 227.33C318.092 227.33 318.076 227.346 318.066 227.378L316.658 232.13ZM325.672 235.762C325.619 235.762 325.571 235.746 325.528 235.714C325.496 235.671 325.48 235.623 325.48 235.57V224.754C325.48 224.701 325.496 224.658 325.528 224.626C325.571 224.583 325.619 224.562 325.672 224.562H327.544C327.597 224.562 327.64 224.583 327.672 224.626C327.715 224.658 327.736 224.701 327.736 224.754V233.746C327.736 233.799 327.763 233.826 327.816 233.826H333.048C333.101 233.826 333.144 233.847 333.176 233.89C333.219 233.922 333.24 233.965 333.24 234.018V235.57C333.24 235.623 333.219 235.671 333.176 235.714C333.144 235.746 333.101 235.762 333.048 235.762H325.672Z" fill="white"/>
<path d="M86.4566 306.068C85.6033 306.068 84.8566 305.934 84.2166 305.668C83.5766 305.39 83.0806 305.001 82.7286 304.5C82.3873 303.988 82.2166 303.396 82.2166 302.724V302.372C82.2166 302.318 82.2326 302.276 82.2646 302.244C82.3073 302.201 82.3553 302.18 82.4086 302.18H84.2326C84.286 302.18 84.3286 302.201 84.3606 302.244C84.4033 302.276 84.4246 302.318 84.4246 302.372V302.612C84.4246 303.038 84.622 303.401 85.0166 303.7C85.4113 303.988 85.9446 304.132 86.6166 304.132C87.182 304.132 87.6033 304.014 87.8806 303.78C88.158 303.534 88.2966 303.236 88.2966 302.884C88.2966 302.628 88.2113 302.414 88.0406 302.244C87.87 302.062 87.6353 301.908 87.3366 301.78C87.0486 301.641 86.5846 301.454 85.9446 301.22C85.23 300.974 84.622 300.724 84.1206 300.468C83.63 300.212 83.214 299.865 82.8726 299.428C82.542 298.98 82.3766 298.43 82.3766 297.78C82.3766 297.14 82.542 296.58 82.8726 296.1C83.2033 295.62 83.662 295.252 84.2486 294.996C84.8353 294.74 85.5126 294.612 86.2806 294.612C87.0913 294.612 87.8113 294.756 88.4406 295.044C89.0806 295.332 89.5766 295.737 89.9286 296.26C90.2913 296.772 90.4726 297.369 90.4726 298.052V298.292C90.4726 298.345 90.4513 298.393 90.4086 298.436C90.3766 298.468 90.334 298.484 90.2806 298.484H88.4406C88.3873 298.484 88.3393 298.468 88.2966 298.436C88.2646 298.393 88.2486 298.345 88.2486 298.292V298.164C88.2486 297.716 88.062 297.337 87.6886 297.028C87.326 296.708 86.8246 296.548 86.1846 296.548C85.6833 296.548 85.2886 296.654 85.0006 296.868C84.7233 297.081 84.5846 297.374 84.5846 297.748C84.5846 298.014 84.6646 298.238 84.8246 298.42C84.9953 298.601 85.2406 298.766 85.5606 298.916C85.8913 299.054 86.398 299.246 87.0806 299.492C87.838 299.769 88.43 300.014 88.8566 300.228C89.294 300.441 89.6833 300.761 90.0246 301.188C90.3766 301.604 90.5526 302.148 90.5526 302.82C90.5526 303.822 90.1846 304.617 89.4486 305.204C88.7126 305.78 87.7153 306.068 86.4566 306.068ZM97.7563 294.724C98.4603 294.724 99.0789 294.868 99.6123 295.156C100.146 295.444 100.556 295.854 100.844 296.388C101.143 296.91 101.292 297.513 101.292 298.196C101.292 298.868 101.138 299.46 100.828 299.972C100.53 300.484 100.103 300.884 99.5483 301.172C99.0043 301.449 98.3749 301.588 97.6603 301.588H95.3883C95.3349 301.588 95.3083 301.614 95.3083 301.668V305.748C95.3083 305.801 95.2869 305.849 95.2443 305.892C95.2123 305.924 95.1696 305.94 95.1163 305.94H93.2443C93.1909 305.94 93.1429 305.924 93.1003 305.892C93.0683 305.849 93.0523 305.801 93.0523 305.748V294.916C93.0523 294.862 93.0683 294.82 93.1003 294.788C93.1429 294.745 93.1909 294.724 93.2443 294.724H97.7563ZM97.4203 299.78C97.9109 299.78 98.3056 299.641 98.6043 299.364C98.9029 299.076 99.0523 298.702 99.0523 298.244C99.0523 297.774 98.9029 297.396 98.6043 297.108C98.3056 296.82 97.9109 296.676 97.4203 296.676H95.3883C95.3349 296.676 95.3083 296.702 95.3083 296.756V299.7C95.3083 299.753 95.3349 299.78 95.3883 299.78H97.4203ZM103.871 305.94C103.818 305.94 103.77 305.924 103.727 305.892C103.695 305.849 103.679 305.801 103.679 305.748V294.932C103.679 294.878 103.695 294.836 103.727 294.804C103.77 294.761 103.818 294.74 103.871 294.74H105.743C105.796 294.74 105.839 294.761 105.871 294.804C105.914 294.836 105.935 294.878 105.935 294.932V305.748C105.935 305.801 105.914 305.849 105.871 305.892C105.839 305.924 105.796 305.94 105.743 305.94H103.871ZM115.026 305.94C114.92 305.94 114.845 305.892 114.802 305.796L112.802 301.364C112.781 301.321 112.749 301.3 112.706 301.3H111.218C111.165 301.3 111.138 301.326 111.138 301.38V305.748C111.138 305.801 111.117 305.849 111.074 305.892C111.042 305.924 111 305.94 110.946 305.94H109.074C109.021 305.94 108.973 305.924 108.93 305.892C108.898 305.849 108.882 305.801 108.882 305.748V294.932C108.882 294.878 108.898 294.836 108.93 294.804C108.973 294.761 109.021 294.74 109.074 294.74H113.65C114.333 294.74 114.93 294.878 115.442 295.156C115.965 295.433 116.365 295.828 116.642 296.34C116.93 296.852 117.074 297.444 117.074 298.116C117.074 298.841 116.893 299.465 116.53 299.988C116.168 300.5 115.661 300.862 115.01 301.076C114.957 301.097 114.941 301.134 114.962 301.188L117.138 305.716C117.16 305.758 117.17 305.79 117.17 305.812C117.17 305.897 117.112 305.94 116.994 305.94H115.026ZM111.218 296.676C111.165 296.676 111.138 296.702 111.138 296.756V299.492C111.138 299.545 111.165 299.572 111.218 299.572H113.314C113.762 299.572 114.125 299.438 114.402 299.172C114.69 298.905 114.834 298.558 114.834 298.132C114.834 297.705 114.69 297.358 114.402 297.092C114.125 296.814 113.762 296.676 113.314 296.676H111.218ZM119.902 305.94C119.849 305.94 119.801 305.924 119.758 305.892C119.726 305.849 119.71 305.801 119.71 305.748V294.932C119.71 294.878 119.726 294.836 119.758 294.804C119.801 294.761 119.849 294.74 119.902 294.74H121.774C121.828 294.74 121.87 294.761 121.902 294.804C121.945 294.836 121.966 294.878 121.966 294.932V305.748C121.966 305.801 121.945 305.849 121.902 305.892C121.87 305.924 121.828 305.94 121.774 305.94H119.902ZM132.642 294.74C132.695 294.74 132.738 294.761 132.77 294.804C132.812 294.836 132.834 294.878 132.834 294.932V296.5C132.834 296.553 132.812 296.601 132.77 296.644C132.738 296.676 132.695 296.692 132.642 296.692H129.778C129.724 296.692 129.698 296.718 129.698 296.772V305.748C129.698 305.801 129.676 305.849 129.634 305.892C129.602 305.924 129.559 305.94 129.506 305.94H127.634C127.58 305.94 127.532 305.924 127.49 305.892C127.458 305.849 127.442 305.801 127.442 305.748V296.772C127.442 296.718 127.415 296.692 127.362 296.692H124.578C124.524 296.692 124.476 296.676 124.434 296.644C124.402 296.601 124.386 296.553 124.386 296.5V294.932C124.386 294.878 124.402 294.836 124.434 294.804C124.476 294.761 124.524 294.74 124.578 294.74H132.642ZM139.337 306.068C138.516 306.068 137.79 305.908 137.161 305.588C136.542 305.268 136.057 304.82 135.705 304.244C135.364 303.657 135.193 302.985 135.193 302.228V294.932C135.193 294.878 135.209 294.836 135.241 294.804C135.284 294.761 135.332 294.74 135.385 294.74H137.257C137.31 294.74 137.353 294.761 137.385 294.804C137.428 294.836 137.449 294.878 137.449 294.932V302.244C137.449 302.809 137.62 303.268 137.961 303.62C138.313 303.961 138.772 304.132 139.337 304.132C139.902 304.132 140.356 303.961 140.697 303.62C141.049 303.268 141.225 302.809 141.225 302.244V294.932C141.225 294.878 141.241 294.836 141.273 294.804C141.316 294.761 141.364 294.74 141.417 294.74H143.289C143.342 294.74 143.385 294.761 143.417 294.804C143.46 294.836 143.481 294.878 143.481 294.932V302.228C143.481 302.985 143.305 303.657 142.953 304.244C142.612 304.82 142.126 305.268 141.497 305.588C140.878 305.908 140.158 306.068 139.337 306.068ZM153.159 305.94C153.052 305.94 152.983 305.886 152.951 305.78L152.471 304.212C152.449 304.169 152.423 304.148 152.391 304.148H148.455C148.423 304.148 148.396 304.169 148.375 304.212L147.911 305.78C147.879 305.886 147.809 305.94 147.703 305.94H145.671C145.607 305.94 145.559 305.924 145.527 305.892C145.495 305.849 145.489 305.79 145.511 305.716L148.967 294.9C148.999 294.793 149.068 294.74 149.174 294.74H151.687C151.793 294.74 151.863 294.793 151.895 294.9L155.351 305.716C155.361 305.737 155.367 305.764 155.367 305.796C155.367 305.892 155.308 305.94 155.191 305.94H153.159ZM148.951 302.308C148.94 302.372 148.961 302.404 149.015 302.404H151.831C151.895 302.404 151.916 302.372 151.895 302.308L150.455 297.556C150.444 297.513 150.428 297.497 150.407 297.508C150.385 297.508 150.369 297.524 150.359 297.556L148.951 302.308ZM157.965 305.94C157.912 305.94 157.864 305.924 157.821 305.892C157.789 305.849 157.773 305.801 157.773 305.748V294.932C157.773 294.878 157.789 294.836 157.821 294.804C157.864 294.761 157.912 294.74 157.965 294.74H159.837C159.89 294.74 159.933 294.761 159.965 294.804C160.008 294.836 160.029 294.878 160.029 294.932V303.924C160.029 303.977 160.056 304.004 160.109 304.004H165.341C165.394 304.004 165.437 304.025 165.469 304.068C165.512 304.1 165.533 304.142 165.533 304.196V305.748C165.533 305.801 165.512 305.849 165.469 305.892C165.437 305.924 165.394 305.94 165.341 305.94H157.965Z" fill="white"/>
<path d="M198.998 53.7088C198.998 53.7621 198.977 53.8101 198.934 53.8528C198.902 53.8848 198.859 53.9008 198.806 53.9008H193.558C193.505 53.9008 193.478 53.9275 193.478 53.9808V56.4608C193.478 56.5141 193.505 56.5408 193.558 56.5408H196.998C197.051 56.5408 197.094 56.5621 197.126 56.6048C197.169 56.6368 197.19 56.6795 197.19 56.7328V58.2848C197.19 58.3381 197.169 58.3861 197.126 58.4288C197.094 58.4608 197.051 58.4768 196.998 58.4768H193.558C193.505 58.4768 193.478 58.5035 193.478 58.5568V61.1488C193.478 61.2021 193.505 61.2288 193.558 61.2288H198.806C198.859 61.2288 198.902 61.2501 198.934 61.2928C198.977 61.3248 198.998 61.3675 198.998 61.4208V62.9728C198.998 63.0261 198.977 63.0741 198.934 63.1168C198.902 63.1488 198.859 63.1648 198.806 63.1648H191.414C191.361 63.1648 191.313 63.1488 191.27 63.1168C191.238 63.0741 191.222 63.0261 191.222 62.9728V52.1568C191.222 52.1035 191.238 52.0608 191.27 52.0288C191.313 51.9861 191.361 51.9648 191.414 51.9648H198.806C198.859 51.9648 198.902 51.9861 198.934 52.0288C198.977 52.0608 198.998 52.1035 198.998 52.1568V53.7088ZM208.766 52.0928C208.819 52.0075 208.894 51.9648 208.99 51.9648H210.862C210.915 51.9648 210.958 51.9861 210.99 52.0288C211.033 52.0608 211.054 52.1035 211.054 52.1568V62.9728C211.054 63.0261 211.033 63.0741 210.99 63.1168C210.958 63.1488 210.915 63.1648 210.862 63.1648H208.99C208.937 63.1648 208.889 63.1488 208.846 63.1168C208.814 63.0741 208.798 63.0261 208.798 62.9728V55.9168C208.798 55.8741 208.787 55.8528 208.766 55.8528C208.745 55.8528 208.723 55.8688 208.702 55.9008L207.006 58.5568C206.953 58.6421 206.878 58.6848 206.782 58.6848H205.838C205.742 58.6848 205.667 58.6421 205.614 58.5568L203.918 55.9008C203.897 55.8688 203.875 55.8581 203.854 55.8688C203.833 55.8688 203.822 55.8901 203.822 55.9328V62.9728C203.822 63.0261 203.801 63.0741 203.758 63.1168C203.726 63.1488 203.683 63.1648 203.63 63.1648H201.758C201.705 63.1648 201.657 63.1488 201.614 63.1168C201.582 63.0741 201.566 63.0261 201.566 62.9728V52.1568C201.566 52.1035 201.582 52.0608 201.614 52.0288C201.657 51.9861 201.705 51.9648 201.758 51.9648H203.63C203.726 51.9648 203.801 52.0075 203.854 52.0928L206.254 55.8208C206.286 55.8848 206.318 55.8848 206.35 55.8208L208.766 52.0928ZM217.987 63.3408C217.155 63.3408 216.419 63.1701 215.779 62.8288C215.15 62.4875 214.659 62.0128 214.307 61.4048C213.955 60.7861 213.779 60.0768 213.779 59.2768V55.8528C213.779 55.0635 213.955 54.3648 214.307 53.7568C214.659 53.1488 215.15 52.6795 215.779 52.3488C216.419 52.0075 217.155 51.8368 217.987 51.8368C218.83 51.8368 219.566 52.0075 220.195 52.3488C220.835 52.6795 221.331 53.1488 221.683 53.7568C222.035 54.3648 222.211 55.0635 222.211 55.8528V59.2768C222.211 60.0768 222.035 60.7861 221.683 61.4048C221.331 62.0235 220.835 62.5035 220.195 62.8448C219.566 63.1755 218.83 63.3408 217.987 63.3408ZM217.987 61.4048C218.574 61.4048 219.049 61.2181 219.411 60.8448C219.774 60.4715 219.955 59.9755 219.955 59.3568V55.8368C219.955 55.2181 219.774 54.7221 219.411 54.3488C219.059 53.9648 218.585 53.7728 217.987 53.7728C217.401 53.7728 216.926 53.9648 216.563 54.3488C216.211 54.7221 216.035 55.2181 216.035 55.8368V59.3568C216.035 59.9755 216.211 60.4715 216.563 60.8448C216.926 61.2181 217.401 61.4048 217.987 61.4048ZM232.544 51.9648C232.597 51.9648 232.64 51.9861 232.672 52.0288C232.715 52.0608 232.736 52.1035 232.736 52.1568V53.7248C232.736 53.7781 232.715 53.8261 232.672 53.8688C232.64 53.9008 232.597 53.9168 232.544 53.9168H229.68C229.627 53.9168 229.6 53.9435 229.6 53.9968V62.9728C229.6 63.0261 229.579 63.0741 229.536 63.1168C229.504 63.1488 229.461 63.1648 229.408 63.1648H227.536C227.483 63.1648 227.435 63.1488 227.392 63.1168C227.36 63.0741 227.344 63.0261 227.344 62.9728V53.9968C227.344 53.9435 227.317 53.9168 227.264 53.9168H224.48C224.427 53.9168 224.379 53.9008 224.336 53.8688C224.304 53.8261 224.288 53.7781 224.288 53.7248V52.1568C224.288 52.1035 224.304 52.0608 224.336 52.0288C224.379 51.9861 224.427 51.9648 224.48 51.9648H232.544ZM235.367 63.1648C235.314 63.1648 235.266 63.1488 235.223 63.1168C235.191 63.0741 235.175 63.0261 235.175 62.9728V52.1568C235.175 52.1035 235.191 52.0608 235.223 52.0288C235.266 51.9861 235.314 51.9648 235.367 51.9648H237.239C237.293 51.9648 237.335 51.9861 237.367 52.0288C237.41 52.0608 237.431 52.1035 237.431 52.1568V62.9728C237.431 63.0261 237.41 63.0741 237.367 63.1168C237.335 63.1488 237.293 63.1648 237.239 63.1648H235.367ZM244.362 63.3408C243.53 63.3408 242.794 63.1701 242.154 62.8288C241.525 62.4875 241.034 62.0128 240.682 61.4048C240.33 60.7861 240.154 60.0768 240.154 59.2768V55.8528C240.154 55.0635 240.33 54.3648 240.682 53.7568C241.034 53.1488 241.525 52.6795 242.154 52.3488C242.794 52.0075 243.53 51.8368 244.362 51.8368C245.205 51.8368 245.941 52.0075 246.57 52.3488C247.21 52.6795 247.706 53.1488 248.058 53.7568C248.41 54.3648 248.586 55.0635 248.586 55.8528V59.2768C248.586 60.0768 248.41 60.7861 248.058 61.4048C247.706 62.0235 247.21 62.5035 246.57 62.8448C245.941 63.1755 245.205 63.3408 244.362 63.3408ZM244.362 61.4048C244.949 61.4048 245.424 61.2181 245.786 60.8448C246.149 60.4715 246.33 59.9755 246.33 59.3568V55.8368C246.33 55.2181 246.149 54.7221 245.786 54.3488C245.434 53.9648 244.96 53.7728 244.362 53.7728C243.776 53.7728 243.301 53.9648 242.938 54.3488C242.586 54.7221 242.41 55.2181 242.41 55.8368V59.3568C242.41 59.9755 242.586 60.4715 242.938 60.8448C243.301 61.2181 243.776 61.4048 244.362 61.4048ZM257.748 52.1568C257.748 52.1035 257.764 52.0608 257.796 52.0288C257.839 51.9861 257.887 51.9648 257.94 51.9648H259.812C259.865 51.9648 259.908 51.9861 259.94 52.0288C259.983 52.0608 260.004 52.1035 260.004 52.1568V62.9728C260.004 63.0261 259.983 63.0741 259.94 63.1168C259.908 63.1488 259.865 63.1648 259.812 63.1648H258.004C257.897 63.1648 257.823 63.1221 257.78 63.0368L253.636 56.1888C253.615 56.1568 253.593 56.1461 253.572 56.1568C253.551 56.1568 253.54 56.1781 253.54 56.2208L253.572 62.9728C253.572 63.0261 253.551 63.0741 253.508 63.1168C253.476 63.1488 253.433 63.1648 253.38 63.1648H251.508C251.455 63.1648 251.407 63.1488 251.364 63.1168C251.332 63.0741 251.316 63.0261 251.316 62.9728V52.1568C251.316 52.1035 251.332 52.0608 251.364 52.0288C251.407 51.9861 251.455 51.9648 251.508 51.9648H253.316C253.423 51.9648 253.497 52.0075 253.54 52.0928L257.668 58.9088C257.689 58.9408 257.711 58.9568 257.732 58.9568C257.753 58.9461 257.764 58.9195 257.764 58.8768L257.748 52.1568ZM270.076 63.1648C269.97 63.1648 269.9 63.1115 269.868 63.0048L269.388 61.4368C269.367 61.3941 269.34 61.3728 269.308 61.3728H265.372C265.34 61.3728 265.314 61.3941 265.292 61.4368L264.828 63.0048C264.796 63.1115 264.727 63.1648 264.62 63.1648H262.588C262.524 63.1648 262.476 63.1488 262.444 63.1168C262.412 63.0741 262.407 63.0155 262.428 62.9408L265.884 52.1248C265.916 52.0181 265.986 51.9648 266.092 51.9648H268.604C268.711 51.9648 268.78 52.0181 268.812 52.1248L272.268 62.9408C272.279 62.9621 272.284 62.9888 272.284 63.0208C272.284 63.1168 272.226 63.1648 272.108 63.1648H270.076ZM265.868 59.5328C265.858 59.5968 265.879 59.6288 265.932 59.6288H268.748C268.812 59.6288 268.834 59.5968 268.812 59.5328L267.372 54.7808C267.362 54.7381 267.346 54.7221 267.324 54.7328C267.303 54.7328 267.287 54.7488 267.276 54.7808L265.868 59.5328ZM274.883 63.1648C274.83 63.1648 274.782 63.1488 274.739 63.1168C274.707 63.0741 274.691 63.0261 274.691 62.9728V52.1568C274.691 52.1035 274.707 52.0608 274.739 52.0288C274.782 51.9861 274.83 51.9648 274.883 51.9648H276.755C276.808 51.9648 276.851 51.9861 276.883 52.0288C276.926 52.0608 276.947 52.1035 276.947 52.1568V61.1488C276.947 61.2021 276.974 61.2288 277.027 61.2288H282.259C282.312 61.2288 282.355 61.2501 282.387 61.2928C282.43 61.3248 282.451 61.3675 282.451 61.4208V62.9728C282.451 63.0261 282.43 63.0741 282.387 63.1168C282.355 63.1488 282.312 63.1648 282.259 63.1648H274.883Z" fill="white"/>
</g>
<defs>
<linearGradient id="paint0_linear" x1="140.455" y1="37.7067" x2="264.039" y2="67.5651" gradientUnits="userSpaceOnUse">
<stop stop-color="#0018FF"/>
<stop offset="1" stop-color="#6F95F9"/>
</linearGradient>
<linearGradient id="paint1_linear" x1="242.093" y1="71.0626" x2="305.07" y2="134.478" gradientUnits="userSpaceOnUse">
<stop stop-color="#00226E"/>
<stop offset="1" stop-color="#003CC4"/>
</linearGradient>
<linearGradient id="paint2_linear" x1="242.824" y1="177.999" x2="367.259" y2="289.555" gradientUnits="userSpaceOnUse">
<stop stop-color="#0B63F6"/>
<stop offset="1" stop-color="#003CC5"/>
</linearGradient>
<linearGradient id="paint3_linear" x1="285.29" y1="242.278" x2="221.967" y2="305.349" gradientUnits="userSpaceOnUse">
<stop stop-color="#87F2FF"/>
<stop offset="1" stop-color="#0093FF"/>
</linearGradient>
<linearGradient id="paint4_linear" x1="214.645" y1="37.5232" x2="91.1239" y2="67.6372" gradientUnits="userSpaceOnUse">
<stop stop-color="#138BFF"/>
<stop offset="1" stop-color="#7BF1FF"/>
</linearGradient>
<linearGradient id="paint5_linear" x1="113.078" y1="71.0887" x2="50.2329" y2="134.634" gradientUnits="userSpaceOnUse">
<stop stop-color="#6087FF"/>
<stop offset="1" stop-color="#004FFF"/>
</linearGradient>
<linearGradient id="paint6_linear" x1="56.2238" y1="147.743" x2="56.6567" y2="237.049" gradientUnits="userSpaceOnUse">
<stop stop-color="#001D72"/>
<stop offset="0.1031" stop-color="#002F8B"/>
<stop offset="0.3008" stop-color="#004CB4"/>
<stop offset="0.4939" stop-color="#0063D5"/>
<stop offset="0.6786" stop-color="#0074EC"/>
<stop offset="0.8513" stop-color="#007EFA"/>
<stop offset="1" stop-color="#0081FF"/>
</linearGradient>
<linearGradient id="paint7_linear" x1="70.2348" y1="242.393" x2="133.689" y2="305.334" gradientUnits="userSpaceOnUse">
<stop stop-color="#1D68FF"/>
<stop offset="1" stop-color="#0018FF"/>
</linearGradient>
<linearGradient id="paint8_linear" x1="110.857" y1="226.935" x2="247.696" y2="226.935" gradientUnits="userSpaceOnUse">
<stop stop-color="#003942"/>
<stop offset="1" stop-color="#0080B2"/>
</linearGradient>
<linearGradient id="paint9_linear" x1="258.477" y1="166.631" x2="148.287" y2="247.67" gradientUnits="userSpaceOnUse">
<stop stop-color="#003942"/>
<stop offset="1" stop-color="#0080B2"/>
</linearGradient>
<linearGradient id="paint10_linear" x1="206.372" y1="249.901" x2="96.8444" y2="168.024" gradientUnits="userSpaceOnUse">
<stop stop-color="#003942"/>
<stop offset="1" stop-color="#0080B2"/>
</linearGradient>
<linearGradient id="paint11_linear" x1="242.288" y1="144.645" x2="132.114" y2="225.673" gradientUnits="userSpaceOnUse">
<stop stop-color="#003942"/>
<stop offset="1" stop-color="#0080B2"/>
</linearGradient>
<linearGradient id="paint12_linear" x1="199.836" y1="258.655" x2="90.2952" y2="176.768" gradientUnits="userSpaceOnUse">
<stop stop-color="#003942"/>
<stop offset="1" stop-color="#0080B2"/>
</linearGradient>
<linearGradient id="paint13_linear" x1="143.564" y1="233.79" x2="184.177" y2="103.31" gradientUnits="userSpaceOnUse">
<stop stop-color="#792222"/>
<stop offset="1" stop-color="#AF3536"/>
</linearGradient>
<linearGradient id="paint14_linear" x1="110.856" y1="211.369" x2="247.692" y2="211.369" gradientUnits="userSpaceOnUse">
<stop stop-color="#003942"/>
<stop offset="1" stop-color="#0080B2"/>
</linearGradient>
<linearGradient id="paint15_linear" x1="242.902" y1="145.469" x2="132.72" y2="226.503" gradientUnits="userSpaceOnUse">
<stop stop-color="#003942"/>
<stop offset="1" stop-color="#0080B2"/>
</linearGradient>
<linearGradient id="paint16_linear" x1="204.231" y1="252.768" x2="94.6911" y2="170.881" gradientUnits="userSpaceOnUse">
<stop stop-color="#003942"/>
<stop offset="1" stop-color="#0080B2"/>
</linearGradient>
<linearGradient id="paint17_linear" x1="146.242" y1="234.63" x2="186.864" y2="104.122" gradientUnits="userSpaceOnUse">
<stop stop-color="#003942"/>
<stop offset="1" stop-color="#0080B2"/>
</linearGradient>
<linearGradient id="paint18_linear" x1="110.857" y1="214.648" x2="247.693" y2="214.648" gradientUnits="userSpaceOnUse">
<stop stop-color="#003942"/>
<stop offset="1" stop-color="#0080B2"/>
</linearGradient>
<linearGradient id="paint19_linear" x1="260.965" y1="170.037" x2="150.789" y2="251.066" gradientUnits="userSpaceOnUse">
<stop stop-color="#003942"/>
<stop offset="1" stop-color="#0080B2"/>
</linearGradient>
<linearGradient id="paint20_linear" x1="220.837" y1="230.557" x2="111.293" y2="148.668" gradientUnits="userSpaceOnUse">
<stop stop-color="#003942"/>
<stop offset="1" stop-color="#0080B2"/>
</linearGradient>
<linearGradient id="paint21_linear" x1="206.075" y1="239.777" x2="165.457" y2="109.282" gradientUnits="userSpaceOnUse">
<stop stop-color="#003942"/>
<stop offset="1" stop-color="#0080B2"/>
</linearGradient>
<linearGradient id="paint22_linear" x1="110.859" y1="177.054" x2="247.695" y2="177.054" gradientUnits="userSpaceOnUse">
<stop stop-color="#003942"/>
<stop offset="1" stop-color="#0080B2"/>
</linearGradient>
<linearGradient id="paint23_linear" x1="234.817" y1="134.479" x2="124.64" y2="215.509" gradientUnits="userSpaceOnUse">
<stop stop-color="#003942"/>
<stop offset="1" stop-color="#0080B2"/>
</linearGradient>
<linearGradient id="paint24_linear" x1="231.628" y1="216.122" x2="122.09" y2="134.238" gradientUnits="userSpaceOnUse">
<stop stop-color="#003942"/>
<stop offset="1" stop-color="#0080B2"/>
</linearGradient>
<linearGradient id="paint25_linear" x1="160.322" y1="239.007" x2="200.934" y2="108.531" gradientUnits="userSpaceOnUse">
<stop stop-color="#003942"/>
<stop offset="1" stop-color="#0080B2"/>
</linearGradient>
<linearGradient id="paint26_linear" x1="197.347" y1="242.491" x2="156.736" y2="112.017" gradientUnits="userSpaceOnUse">
<stop stop-color="#003942"/>
<stop offset="1" stop-color="#0080B2"/>
</linearGradient>
<linearGradient id="paint27_linear" x1="110.23" y1="108.258" x2="248.136" y2="246.368" gradientUnits="userSpaceOnUse">
<stop stop-color="#FFC200"/>
<stop offset="1" stop-color="#FF785E"/>
</linearGradient>
<radialGradient id="paint28_radial" cx="0" cy="0" r="1" gradientUnits="userSpaceOnUse" gradientTransform="translate(174.262 187.213) scale(67.0981 66.9989)">
<stop offset="0.5699" stop-color="white"/>
<stop offset="0.6334" stop-color="#F8F7F7"/>
<stop offset="0.7296" stop-color="#E3E3E3"/>
<stop offset="0.8465" stop-color="#C1C0C1"/>
<stop offset="0.9786" stop-color="#939192"/>
<stop offset="1" stop-color="#8B898A"/>
</radialGradient>
<linearGradient id="paint29_linear" x1="125.687" y1="177.195" x2="232.867" y2="177.195" gradientUnits="userSpaceOnUse">
<stop offset="0.005618" stop-color="#FBC926"/>
<stop offset="0.2528" stop-color="#FFFBCC"/>
<stop offset="0.3045" stop-color="#F8F0BB"/>
<stop offset="0.4072" stop-color="#E7D28E"/>
<stop offset="0.55" stop-color="#CCA246"/>
<stop offset="0.5955" stop-color="#C3922E"/>
<stop offset="0.8708" stop-color="#EED688"/>
<stop offset="1" stop-color="#FFFBCC"/>
</linearGradient>
<clipPath id="clip0">
<rect x="0.242188" y="0.137817" width="355" height="355" fill="white"/>
</clipPath>
</defs>
</svg>
