<svg width="157" height="149" viewBox="0 0 157 149" fill="none" xmlns="http://www.w3.org/2000/svg">
<path d="M3.72062 75.4428C3.35516 74.8186 3.35516 74.0458 3.72062 73.4217L40.2925 10.9616C40.6514 10.3488 41.3083 9.97218 42.0184 9.97218L115.211 9.97218C115.921 9.97218 116.578 10.3488 116.937 10.9616L153.509 73.4217C153.875 74.0458 153.875 74.8186 153.509 75.4428L116.937 137.903C116.578 138.516 115.921 138.892 115.211 138.892L42.0184 138.892C41.3083 138.892 40.6514 138.516 40.2925 137.903L3.72062 75.4428Z" fill="white" stroke="url(#paint0_linear)" stroke-width="5"/>
<g clip-path="url(#clip0)">
<path d="M64.0039 57.0156V59.6719C64.0039 62.878 66.2896 65.5608 69.3164 66.1784V72.9531C69.3164 75.4792 70.3324 77.7702 71.9727 79.4463V79.5938C72.0178 79.5938 72.0603 79.5818 72.1041 79.5805C73.7829 81.2287 76.0805 82.25 78.6133 82.25C83.7398 82.25 87.9102 78.0784 87.9102 72.9531V71.625V62.3281C87.9102 58.6665 84.9312 55.6875 81.2695 55.6875H65.332C64.5989 55.6875 64.0039 56.2812 64.0039 57.0156ZM78.6133 79.5938C77.398 79.5938 76.2731 79.2418 75.293 78.6694C77.2679 77.5179 78.6133 75.3995 78.6133 72.9531H75.957C75.957 74.7315 74.779 76.223 73.1666 76.7343C72.4189 75.6598 71.9727 74.3596 71.9727 72.9531V66.3125H79.9414C79.9414 69.5186 82.2271 72.2014 85.2539 72.819V72.9531C85.2539 76.6148 82.2749 79.5938 78.6133 79.5938ZM66.6602 58.3438H81.2695C83.4662 58.3438 85.2539 60.1314 85.2539 62.3281V70.0698C83.708 69.5213 82.5977 68.0444 82.5977 66.3125V64.9844C82.5977 64.2499 82.0027 63.6562 81.2695 63.6562H70.6445C68.4478 63.6562 66.6602 61.8686 66.6602 59.6719V58.3438Z" fill="url(#paint1_linear)"/>
<path d="M117.541 103.5C119.692 102.071 121.113 99.6298 121.113 96.8594C121.113 92.4646 117.539 88.8906 113.145 88.8906C110.374 88.8906 107.933 90.313 106.504 92.4633C105.075 90.3117 102.634 88.8906 99.8633 88.8906C98.8114 88.8906 97.8007 89.1151 96.8524 89.5042C95.9852 86.8453 93.5109 84.9062 90.5664 84.9062H68.3907L61.0502 80.0121L55.5278 68.9688H57.3633V66.3125H53.3789H52.0508V55.5813C54.0456 55.2944 55.8399 54.378 57.2159 53.0312H58.6914C62.353 53.0312 65.332 50.0523 65.332 46.3906V43.7344C65.332 42.9999 64.737 42.4062 64.0039 42.4062H60.0195V41.0781C60.0195 40.3437 59.4245 39.75 58.6914 39.75H42.7539C42.0208 39.75 41.4258 40.3437 41.4258 41.0781V42.4062H37.4414C36.7083 42.4062 36.1133 42.9999 36.1133 43.7344V46.3906C36.1133 50.0523 39.0923 53.0312 42.7539 53.0312H44.2295C45.6067 54.378 47.3997 55.2944 49.3945 55.5813V66.3125H46.7383H44.082V68.9688H45.863L53.4865 86.7577C53.5808 86.9781 53.7322 87.1694 53.9261 87.3088L56.2264 88.9823C53.9327 89.3116 51.9512 90.6145 50.7227 92.4646C49.2936 90.313 46.8525 88.8906 44.082 88.8906C39.6873 88.8906 36.1133 92.4646 36.1133 96.8594C36.1133 99.6298 37.5357 102.071 39.6859 103.5C37.5357 104.929 36.1133 107.37 36.1133 110.141V115.453H38.7695V110.141C38.7695 107.211 41.1522 104.828 44.082 104.828C47.0119 104.828 49.3945 107.211 49.3945 110.141V115.453H52.0508V110.141C52.0508 107.211 54.4334 104.828 57.3633 104.828C60.2931 104.828 62.6758 107.211 62.6758 110.141V115.453H65.332V110.141C65.332 107.37 63.9096 104.929 61.7594 103.5C63.9109 102.071 65.332 99.6298 65.332 96.8594C65.332 96.3998 65.2842 95.9523 65.2098 95.514L67.9883 97.5354V114.125C67.9883 114.859 68.5833 115.453 69.3164 115.453H95.8789C96.612 115.453 97.207 114.859 97.207 114.125V105.555C98.0119 105.086 98.915 104.828 99.8633 104.828C102.793 104.828 105.176 107.211 105.176 110.141V115.453H107.832V110.141C107.832 107.211 110.215 104.828 113.145 104.828C116.074 104.828 118.457 107.211 118.457 110.141V115.453H121.113V110.141C121.113 107.37 119.691 104.929 117.541 103.5ZM62.6758 45.0625V46.3906C62.6758 48.4373 61.1192 50.108 59.131 50.3312C59.6955 49.1319 60.0195 47.7998 60.0195 46.3906V45.0625H62.6758ZM38.7695 46.3906V45.0625H41.4258V46.3906C41.4258 47.7998 41.7498 49.1319 42.3143 50.3312C40.3261 50.108 38.7695 48.4373 38.7695 46.3906ZM44.082 46.3906V42.4062H57.3633V46.3906C57.3633 50.0523 54.3843 53.0312 50.7227 53.0312C47.061 53.0312 44.082 50.0523 44.082 46.3906ZM38.7695 96.8594C38.7695 93.9295 41.1522 91.5469 44.082 91.5469C47.0119 91.5469 49.3945 93.9295 49.3945 96.8594C49.3945 99.7892 47.0119 102.172 44.082 102.172C41.1522 102.172 38.7695 99.7892 38.7695 96.8594ZM50.7227 105.745C50.1316 104.855 49.368 104.091 48.4781 103.5C49.368 102.909 50.1316 102.145 50.7227 101.255C51.3137 102.145 52.0773 102.909 52.9672 103.5C52.0773 104.091 51.3137 104.855 50.7227 105.745ZM57.3633 102.172C54.4334 102.172 52.0508 99.7892 52.0508 96.8594C52.0508 93.9295 54.4334 91.5469 57.3633 91.5469C60.2931 91.5469 62.6758 93.9295 62.6758 96.8594C62.6758 99.7892 60.2931 102.172 57.3633 102.172ZM113.145 91.5469C116.074 91.5469 118.457 93.9295 118.457 96.8594C118.457 99.7892 116.074 102.172 113.145 102.172C110.215 102.172 107.832 99.7892 107.832 96.8594C107.832 93.9295 110.215 91.5469 113.145 91.5469ZM105.176 96.8594C105.176 99.7892 102.793 102.172 99.8633 102.172C98.915 102.172 98.0119 101.914 97.207 101.447V92.272C98.0119 91.8045 98.915 91.5469 99.8633 91.5469C102.793 91.5469 105.176 93.9295 105.176 96.8594ZM77.2852 93.3053L75.1973 87.5625H77.2852V93.3053ZM79.9414 87.5625H82.0292L79.9414 93.3053V87.5625ZM94.5508 112.797H89.2383V94.2031H86.582V112.797H70.6445V96.8594C70.6445 96.4344 70.4413 96.0359 70.0973 95.7849L55.7828 85.3751L48.753 68.9688H52.5581L58.8322 81.5155C58.9358 81.7214 59.0912 81.898 59.2837 82.0269L67.2525 87.3394C67.469 87.4841 67.7266 87.5625 67.9883 87.5625H72.3698L77.3648 101.298C77.5561 101.823 78.0555 102.172 78.6133 102.172C79.1711 102.172 79.6705 101.823 79.8617 101.298L84.8568 87.5625H90.5664C92.7631 87.5625 94.5508 89.3502 94.5508 91.5469V112.797ZM106.504 105.745C105.913 104.855 105.149 104.091 104.259 103.5C105.149 102.909 105.913 102.145 106.504 101.255C107.095 102.145 107.859 102.909 108.748 103.5C107.859 104.091 107.095 104.855 106.504 105.745Z" fill="url(#paint2_linear)"/>
</g>
<defs>
<linearGradient id="paint0_linear" x1="3.12891" y1="148.864" x2="151.978" y2="-2.0927" gradientUnits="userSpaceOnUse">
<stop stop-color="#FFC200"/>
<stop offset="1" stop-color="#FF785E"/>
</linearGradient>
<linearGradient id="paint1_linear" x1="64.0039" y1="55.6875" x2="90.4197" y2="79.4617" gradientUnits="userSpaceOnUse">
<stop stop-color="#0B63F6"/>
<stop offset="1" stop-color="#003CC5"/>
</linearGradient>
<linearGradient id="paint2_linear" x1="36.1133" y1="39.75" x2="111.311" y2="124.183" gradientUnits="userSpaceOnUse">
<stop stop-color="#0B63F6"/>
<stop offset="1" stop-color="#003CC5"/>
</linearGradient>
<clipPath id="clip0">
<rect x="36.1133" y="39" width="85" height="77" fill="white"/>
</clipPath>
</defs>
</svg>
