<svg width="156" height="149" viewBox="0 0 156 149" fill="none" xmlns="http://www.w3.org/2000/svg">
<path d="M3.10733 75.4428C2.74188 74.8186 2.74188 74.0458 3.10734 73.4217L39.6793 10.9616C40.0381 10.3488 40.695 9.97218 41.4052 9.97218L114.598 9.97218C115.308 9.97218 115.965 10.3488 116.324 10.9616L152.896 73.4217C153.261 74.0458 153.261 74.8186 152.896 75.4428L116.324 137.903C115.965 138.516 115.308 138.892 114.598 138.892L41.4052 138.892C40.695 138.892 40.0381 138.516 39.6793 137.903L3.10733 75.4428Z" fill="white" stroke="url(#paint0_linear)" stroke-width="5"/>
<path d="M56.9514 77.1167C56.6484 77.1167 56.3454 77.2177 56.0928 77.3692L47.4568 83.9347C47.0527 84.2377 46.4467 83.9347 46.4467 83.4296V78.3288C46.4467 77.6723 45.8407 77.1167 45.1336 77.1167H40.1843C38.5682 77.1167 37.2551 75.9046 37.2551 74.3895V48.4308C37.2551 46.9157 38.5682 45.7036 40.1843 45.7036H74.6276C76.2437 45.7036 77.5568 46.9157 77.5568 48.4308V61.4102V61.9152H79.4254C79.7789 61.9152 80.082 61.6122 80.082 61.2586V48.3298C80.082 45.4511 77.6073 43.1279 74.5266 43.1279H40.1843C37.1036 43.1279 34.6289 45.4511 34.6289 48.3298V74.44C34.6289 77.3187 37.1036 79.6419 40.1843 79.6419H43.164C43.5175 79.6419 43.8205 79.9449 43.8205 80.2984V87.3689C43.8205 87.8234 44.1235 88.278 44.5781 88.48C44.7801 88.581 44.9316 88.581 45.1336 88.581C45.4366 88.581 45.7397 88.48 45.9922 88.3285L57.3049 79.7934C57.4059 79.6924 57.5574 79.6419 57.709 79.6419H70.4358C70.7893 79.6419 71.0924 79.3389 71.0924 78.9853V77.7228C71.0924 77.3692 70.7893 77.0662 70.4358 77.0662H56.9514V77.1167Z" fill="url(#paint1_linear)"/>
<path d="M80.0388 81.3067H86.1295V79.1269H80.0388V76.4341H86.7065V74.1902H77.4102V86.8204H87.0271V84.5765H80.0388V81.3067Z" fill="url(#paint2_linear)"/>
<path d="M96.8374 82.9736L91.7725 74.1902H89.0156V86.8204H91.516V77.8446L96.6451 86.8204H99.2737V74.1902H96.8374V82.9736Z" fill="url(#paint3_linear)"/>
<path d="M107.669 82.1398H110.618C110.49 82.9733 110.169 83.6144 109.592 84.1273C109.015 84.6402 108.31 84.8967 107.413 84.8967C106.515 84.8967 105.682 84.5761 104.976 83.935C104.271 83.2939 103.886 82.204 103.886 80.6652C103.886 79.1265 104.207 77.9725 104.848 77.2032C105.489 76.4338 106.323 76.0491 107.349 76.0491C107.861 76.0491 108.374 76.1132 108.823 76.3056C109.592 76.6261 110.105 77.2673 110.298 78.1007H112.926C112.798 76.8826 112.221 75.8568 111.259 75.0233C110.298 74.1899 109.015 73.8052 107.413 73.8052C105.553 73.8052 104.079 74.4463 102.925 75.6644C101.771 76.8826 101.258 78.5495 101.258 80.6011C101.258 82.6527 101.835 84.1914 102.925 85.4096C104.015 86.5636 105.361 87.1406 107.028 87.1406C108.054 87.1406 108.887 86.9483 109.592 86.4995C109.977 86.2431 110.426 85.8584 110.939 85.2173L111.131 86.8201H112.862V80.0241H107.605L107.669 82.1398Z" fill="url(#paint4_linear)"/>
<path d="M76.0841 61.0332H113.54C116.903 61.0332 119.628 63.5844 119.628 66.7733V95.4741C119.628 98.663 116.903 101.214 113.54 101.214H109.597V109.737C109.597 110.259 109.249 110.723 108.786 110.955C108.554 111.071 108.38 111.071 108.206 111.071C107.858 111.071 107.568 110.955 107.278 110.781L94.6961 101.214H76.0841C72.7212 101.214 69.9961 98.663 69.9961 95.4741V66.7733C69.9961 63.5844 72.7212 61.0332 76.0841 61.0332ZM72.8372 95.4161C72.8372 97.0975 74.2867 98.4311 76.0261 98.4311H95.2759C95.6238 98.4311 95.9137 98.5471 96.2036 98.721L106.756 106.78V99.7647C106.756 99.0689 107.394 98.4311 108.206 98.4311H113.598C115.337 98.4311 116.787 97.0975 116.787 95.4161V66.8893C116.787 65.2079 115.337 63.8743 113.598 63.8743H75.9682C74.2287 63.8743 72.7792 65.2079 72.7792 66.8893L72.8372 95.4161Z" fill="url(#paint5_linear)"/>
<path d="M54.6848 66.2492C54.637 66.0102 54.5892 65.6278 54.5892 65.0063V64.0981C54.5892 63.1898 54.4458 62.4728 54.2068 61.9947C53.92 61.5167 53.5376 61.1821 52.8683 60.9431C53.5854 60.6562 54.159 60.2738 54.4458 59.6524C54.7804 59.0787 54.9239 58.4095 54.9239 57.7881C54.9239 57.2622 54.8283 56.7842 54.6848 56.354C54.5414 55.9237 54.3024 55.5891 54.0156 55.2067C53.681 54.7765 53.2507 54.4897 52.7727 54.2984C52.2947 54.0594 51.5776 53.9638 50.6694 53.916H44.3594V67.3009H47.0841V62.0903H49.8089C50.5738 62.0903 51.1474 62.2338 51.3864 62.5206C51.6732 62.8074 51.8167 63.381 51.8167 64.1937V65.4366C51.8167 65.8668 51.8645 66.2014 51.9601 66.5838C52.0079 66.775 52.0557 67.0141 52.1513 67.3009H55.2107V66.9663C54.9717 66.8228 54.7804 66.5838 54.6848 66.2492ZM51.3864 59.6524C51.0518 59.7958 50.6694 59.8914 50.0479 59.8914H47.0363V56.3062H50.0957C50.6694 56.3062 51.0996 56.4018 51.3864 56.5452C51.8645 56.832 52.1513 57.3578 52.1513 58.1705C52.1991 58.9353 51.9601 59.4134 51.3864 59.6524Z" fill="url(#paint6_linear)"/>
<path d="M65.4383 62.186C65.4383 63.0943 65.3427 63.8113 65.1037 64.1937C64.769 64.9108 64.052 65.341 62.9047 65.341C61.7575 65.341 61.0404 64.9586 60.7058 64.1937C60.4668 63.7635 60.3712 63.0943 60.3712 62.186V53.9639H57.5508V62.186C57.5508 63.6201 57.7898 64.7196 58.1722 65.4844C58.9849 66.9663 60.5146 67.6834 62.8569 67.6834C65.1515 67.6834 66.729 66.9663 67.5416 65.4844C68.0197 64.7196 68.1631 63.6201 68.1631 62.186V53.9639H65.3427V62.186H65.4383Z" fill="url(#paint7_linear)"/>
<defs>
<linearGradient id="paint0_linear" x1="2.51562" y1="148.864" x2="151.365" y2="-2.0927" gradientUnits="userSpaceOnUse">
<stop stop-color="#FFC200"/>
<stop offset="1" stop-color="#FF785E"/>
</linearGradient>
<linearGradient id="paint1_linear" x1="34.6289" y1="43.1279" x2="80.082" y2="88.581" gradientUnits="userSpaceOnUse">
<stop stop-color="#0B63F6"/>
<stop offset="1" stop-color="#003CC5"/>
</linearGradient>
<linearGradient id="paint2_linear" x1="77.4102" y1="74.1902" x2="89.5853" y2="83.4606" gradientUnits="userSpaceOnUse">
<stop stop-color="#0B63F6"/>
<stop offset="1" stop-color="#003CC5"/>
</linearGradient>
<linearGradient id="paint3_linear" x1="89.0156" y1="74.1902" x2="101.377" y2="84.2302" gradientUnits="userSpaceOnUse">
<stop stop-color="#0B63F6"/>
<stop offset="1" stop-color="#003CC5"/>
</linearGradient>
<linearGradient id="paint4_linear" x1="101.258" y1="73.8052" x2="114.475" y2="85.3704" gradientUnits="userSpaceOnUse">
<stop stop-color="#0B63F6"/>
<stop offset="1" stop-color="#003CC5"/>
</linearGradient>
<linearGradient id="paint5_linear" x1="69.9961" y1="61.0332" x2="120.032" y2="110.663" gradientUnits="userSpaceOnUse">
<stop stop-color="#0B63F6"/>
<stop offset="1" stop-color="#003CC5"/>
</linearGradient>
<linearGradient id="paint6_linear" x1="44.3594" y1="53.916" x2="57.4549" y2="64.5327" gradientUnits="userSpaceOnUse">
<stop stop-color="#0B63F6"/>
<stop offset="1" stop-color="#003CC5"/>
</linearGradient>
<linearGradient id="paint7_linear" x1="57.5508" y1="53.9639" x2="70.83" y2="64.2356" gradientUnits="userSpaceOnUse">
<stop stop-color="#0B63F6"/>
<stop offset="1" stop-color="#003CC5"/>
</linearGradient>
</defs>
</svg>
