<svg width="156" height="149" viewBox="0 0 156 149" fill="none" xmlns="http://www.w3.org/2000/svg">
<path d="M2.95499 75.4428C2.58954 74.8186 2.58954 74.0458 2.95499 73.4217L39.5269 10.9616C39.8857 10.3488 40.5427 9.97218 41.2528 9.97218L114.446 9.97218C115.156 9.97218 115.813 10.3488 116.172 10.9616L152.743 73.4217C153.109 74.0458 153.109 74.8186 152.743 75.4428L116.172 137.903C115.813 138.516 115.156 138.892 114.446 138.892L41.2528 138.892C40.5427 138.892 39.8857 138.516 39.5269 137.903L2.95499 75.4428Z" fill="white" stroke="url(#paint0_linear)" stroke-width="5"/>
<path d="M116.633 71.3797C116.633 67.7518 113.728 64.8494 110.096 64.8494H105.012L104.407 63.7611C110.096 59.1657 109.37 51.1843 109.37 50.8215C109.37 50.7006 109.37 48.7657 109.37 48.8867C109.249 43.082 104.407 38.3657 98.4749 38.3657H98.2328C92.18 38.4867 87.5798 43.4448 87.7009 49.3704C87.8219 50.096 86.6114 58.3192 92.7853 63.6401L92.0589 64.8494H86.9745C83.3429 64.8494 80.4375 67.7518 80.4375 71.3797V80.5704C80.4375 81.296 80.9217 81.7797 81.6481 81.7797H115.423C116.149 81.7797 116.633 81.296 116.633 80.5704V71.3797ZM106.949 48.8867V49.7332C103.196 50.7006 97.8696 49.975 99.0802 46.2262C99.3223 45.3797 98.717 44.6541 97.9907 44.6541C94.8432 44.6541 92.18 45.8634 90.3641 47.6774C92.0589 37.882 106.828 38.9704 106.949 48.8867ZM90.2431 52.5146C90.6062 50.2169 93.1484 47.6774 96.538 47.1936C96.4169 51.9099 102.228 53.2401 106.949 52.2727C106.949 57.4727 103.68 63.2774 98.8381 63.3983H98.717C93.9958 63.3983 90.3641 57.7146 90.2431 52.5146ZM102.349 64.9704L102.833 65.9378L98.4749 73.0727L94.2379 65.9378L94.8432 64.8494C97.3854 66.0587 100.049 66.0587 102.349 64.9704ZM114.212 79.3611H82.9797V71.3797C82.9797 69.082 84.7955 67.268 87.0956 67.268H92.18C97.6275 75.8541 97.3854 76.7006 98.596 76.7006C98.717 76.7006 99.3223 76.7006 99.6855 76.096L105.012 67.268H110.096C112.396 67.268 114.212 69.082 114.212 71.3797V79.3611Z" fill="url(#paint1_linear)"/>
<path d="M40.3668 115.761H74.0205C74.7468 115.761 75.2311 115.277 75.2311 114.552V105.361C75.2311 101.733 72.3257 98.8307 68.694 98.8307H63.6096L63.0044 97.7423C66.1518 95.0819 68.0887 90.4865 67.9677 86.1331C67.9677 86.0121 67.9677 84.8028 67.9677 84.9237V83.1098C67.8466 77.3051 63.0044 72.5889 57.0726 72.5889H56.8305C50.7777 72.7098 46.1775 77.6679 46.2986 83.5935V86.7377C46.4196 90.8493 48.3565 95.2028 51.3829 97.8633L50.6566 99.0726H45.6933C42.0616 99.0726 39.1562 101.975 39.1562 105.603V114.552C39.1562 115.277 39.6405 115.761 40.3668 115.761ZM56.9515 74.7656H57.0726C61.6727 74.7656 65.4255 78.3935 65.5466 82.8679V83.7144C61.7938 84.6819 56.4673 83.8354 57.6779 80.2075C57.7989 79.8447 57.7989 79.4819 57.5568 79.1191C57.3147 78.7563 56.9515 78.6354 56.5884 78.6354C53.4409 78.6354 50.7777 79.8447 48.9618 81.6586C49.5671 77.9098 52.8356 74.8865 56.9515 74.7656ZM48.8408 86.4958C49.2039 84.1982 51.7461 81.6586 55.1357 81.1749C55.0146 85.8912 60.9464 87.2214 65.5466 86.254C65.5466 91.454 62.278 97.2586 57.4358 97.3796H57.3147C52.5935 97.3796 48.9618 91.6958 48.8408 86.4958ZM57.3147 99.7982H57.4358C58.6463 99.7982 59.8569 99.4354 60.8253 98.9517L61.3096 99.9191L56.9515 107.054L52.9567 100.04L53.562 98.9517C54.6515 99.4354 55.9831 99.7982 57.3147 99.7982ZM41.5774 105.361C41.5774 103.063 43.3932 101.249 45.6933 101.249H50.7777L56.1041 110.077C56.3463 110.44 56.7094 110.682 57.1937 110.682C57.5568 110.682 58.0411 110.44 58.2832 110.077L63.6096 101.249H68.694C70.9941 101.249 72.8099 103.063 72.8099 105.361V113.342H41.5774V105.361Z" fill="url(#paint2_linear)"/>
<path d="M40.3668 61.8262H55.8165C56.3992 61.8262 56.9692 61.9959 57.457 62.3145L66.1518 67.9936C66.3939 68.1146 66.6361 68.2355 66.7571 68.2355C66.9992 68.2355 67.1203 68.2355 67.3624 68.1146C67.7256 67.8727 67.9677 67.5099 67.9677 67.0262V64.8525C67.9677 63.2479 69.2684 61.9471 70.873 61.9471C71.5994 61.9471 72.0836 61.4634 72.0836 60.7378V39.575C72.0836 38.8494 71.5994 38.3657 70.873 38.3657H40.3668C39.6405 38.3657 39.1562 38.8494 39.1562 39.575V60.6169C39.1562 61.2215 39.6405 61.8262 40.3668 61.8262ZM41.5774 43.7843C41.5774 42.1275 42.9205 40.7843 44.5774 40.7843H66.6625C68.3193 40.7843 69.6625 42.1275 69.6625 43.7843V56.5022C69.6625 58.1068 68.3617 59.4076 66.7571 59.4076C66.0308 59.4076 65.5466 59.8913 65.5466 60.6169C65.5466 62.3908 63.5825 63.4607 62.0921 62.4987L57.6779 59.6494C57.4358 59.5285 57.1937 59.4076 57.0726 59.4076H44.5774C42.9205 59.4076 41.5774 58.0644 41.5774 56.4076V43.7843Z" fill="url(#paint3_linear)"/>
<path d="M44.5815 46.2261H66.5955C67.0113 46.2261 67.3293 45.833 67.3293 45.3191C67.3293 44.8051 67.0113 44.4121 66.5955 44.4121H44.5815C44.1656 44.4121 43.8477 44.8051 43.8477 45.3191C43.8477 45.833 44.1656 46.2261 44.5815 46.2261Z" fill="url(#paint4_linear)"/>
<path d="M89.269 93.9035H111.283C111.699 93.9035 112.017 93.5105 112.017 92.9966C112.017 92.4826 111.699 92.0896 111.283 92.0896H89.269C88.8531 92.0896 88.5352 92.4826 88.5352 92.9966C88.5352 93.5105 88.8531 93.9035 89.269 93.9035Z" fill="url(#paint5_linear)"/>
<path d="M44.5815 50.761H66.5955C67.0113 50.761 67.3293 50.368 67.3293 49.854C67.3293 49.34 67.0113 48.947 66.5955 48.947H44.5815C44.1656 48.947 43.8477 49.34 43.8477 49.854C43.8477 50.368 44.1656 50.761 44.5815 50.761Z" fill="url(#paint6_linear)"/>
<path d="M89.269 98.4385H111.283C111.699 98.4385 112.017 98.0454 112.017 97.5315C112.017 97.0175 111.699 96.6245 111.283 96.6245H89.269C88.8531 96.6245 88.5352 97.0175 88.5352 97.5315C88.5352 98.0454 88.8531 98.4385 89.269 98.4385Z" fill="url(#paint7_linear)"/>
<path d="M44.5815 55.2959H66.5955C67.0113 55.2959 67.3293 54.9029 67.3293 54.3889C67.3293 53.875 67.0113 53.4819 66.5955 53.4819H44.5815C44.1656 53.4819 43.8477 53.875 43.8477 54.3889C43.8477 54.9029 44.1656 55.2959 44.5815 55.2959Z" fill="url(#paint8_linear)"/>
<path d="M89.269 102.973H111.283C111.699 102.973 112.017 102.58 112.017 102.066C112.017 101.552 111.699 101.159 111.283 101.159H89.269C88.8531 101.159 88.5352 101.552 88.5352 102.066C88.5352 102.58 88.8531 102.973 89.269 102.973Z" fill="url(#paint9_linear)"/>
<path d="M115.36 109.442H99.9101C99.3274 109.442 98.7574 109.612 98.2695 109.931L89.5747 115.61C89.3326 115.731 89.0905 115.852 88.9694 115.852C88.7273 115.852 88.6063 115.852 88.3642 115.731C88.001 115.489 87.7589 115.126 87.7589 114.642V112.469C87.7589 110.864 86.4581 109.563 84.8535 109.563C84.1272 109.563 83.643 109.08 83.643 108.354V87.1912C83.643 86.4657 84.1272 85.9819 84.8535 85.9819H115.36C116.086 85.9819 116.57 86.4657 116.57 87.1912V108.233C116.57 108.838 116.086 109.442 115.36 109.442ZM114.149 91.4005C114.149 89.7437 112.806 88.4005 111.149 88.4005H89.0641C87.4072 88.4005 86.0641 89.7437 86.0641 91.4005V104.118C86.0641 105.723 87.3649 107.024 88.9694 107.024C89.6958 107.024 90.18 107.508 90.18 108.233C90.18 110.007 92.1441 111.077 93.6345 110.115L98.0487 107.266C98.2908 107.145 98.5329 107.024 98.654 107.024H111.149C112.806 107.024 114.149 105.681 114.149 104.024V91.4005Z" fill="url(#paint10_linear)"/>
<defs>
<linearGradient id="paint0_linear" x1="2.36328" y1="148.864" x2="151.213" y2="-2.0927" gradientUnits="userSpaceOnUse">
<stop stop-color="#FFC200"/>
<stop offset="1" stop-color="#FF785E"/>
</linearGradient>
<linearGradient id="paint1_linear" x1="80.4375" y1="38.3657" x2="123.143" y2="73.9713" gradientUnits="userSpaceOnUse">
<stop stop-color="#0B63F6"/>
<stop offset="1" stop-color="#003CC5"/>
</linearGradient>
<linearGradient id="paint2_linear" x1="39.1562" y1="72.5889" x2="81.6413" y2="108.09" gradientUnits="userSpaceOnUse">
<stop stop-color="#0B63F6"/>
<stop offset="1" stop-color="#003CC5"/>
</linearGradient>
<linearGradient id="paint3_linear" x1="39.1562" y1="38.3657" x2="68.8847" y2="71.1373" gradientUnits="userSpaceOnUse">
<stop stop-color="#0B63F6"/>
<stop offset="1" stop-color="#003CC5"/>
</linearGradient>
<linearGradient id="paint4_linear" x1="43.8477" y1="44.4121" x2="44.1262" y2="48.0185" gradientUnits="userSpaceOnUse">
<stop stop-color="#0B63F6"/>
<stop offset="1" stop-color="#003CC5"/>
</linearGradient>
<linearGradient id="paint5_linear" x1="88.5352" y1="92.0896" x2="88.8137" y2="95.696" gradientUnits="userSpaceOnUse">
<stop stop-color="#0B63F6"/>
<stop offset="1" stop-color="#003CC5"/>
</linearGradient>
<linearGradient id="paint6_linear" x1="43.8477" y1="48.947" x2="44.1262" y2="52.5534" gradientUnits="userSpaceOnUse">
<stop stop-color="#0B63F6"/>
<stop offset="1" stop-color="#003CC5"/>
</linearGradient>
<linearGradient id="paint7_linear" x1="88.5352" y1="96.6245" x2="88.8137" y2="100.231" gradientUnits="userSpaceOnUse">
<stop stop-color="#0B63F6"/>
<stop offset="1" stop-color="#003CC5"/>
</linearGradient>
<linearGradient id="paint8_linear" x1="43.8477" y1="53.4819" x2="44.1262" y2="57.0883" gradientUnits="userSpaceOnUse">
<stop stop-color="#0B63F6"/>
<stop offset="1" stop-color="#003CC5"/>
</linearGradient>
<linearGradient id="paint9_linear" x1="88.5352" y1="101.159" x2="88.8137" y2="104.766" gradientUnits="userSpaceOnUse">
<stop stop-color="#0B63F6"/>
<stop offset="1" stop-color="#003CC5"/>
</linearGradient>
<linearGradient id="paint10_linear" x1="116.57" y1="85.9819" x2="86.8418" y2="118.754" gradientUnits="userSpaceOnUse">
<stop stop-color="#0B63F6"/>
<stop offset="1" stop-color="#003CC5"/>
</linearGradient>
</defs>
</svg>
