<svg width="156" height="149" viewBox="0 0 156 149" fill="none" xmlns="http://www.w3.org/2000/svg">
<path d="M3.19718 75.4428C2.83172 74.8186 2.83172 74.0458 3.19718 73.4217L39.7691 10.9616C40.1279 10.3488 40.7848 9.97218 41.495 9.97218L114.688 9.97218C115.398 9.97218 116.055 10.3488 116.414 10.9616L152.986 73.4217C153.351 74.0458 153.351 74.8186 152.986 75.4428L116.414 137.903C116.055 138.516 115.398 138.892 114.688 138.892L41.495 138.892C40.7848 138.892 40.1279 138.516 39.7691 137.903L3.19718 75.4428Z" fill="white" stroke="url(#paint0_linear)" stroke-width="5"/>
<g clip-path="url(#clip0)">
<path d="M69.7309 56.3534L69.2238 58.9831C69.1772 59.2246 69.2008 59.4738 69.292 59.7032C69.3831 59.9325 69.5383 60.1329 69.7403 60.282C69.9422 60.4311 70.183 60.5232 70.4358 60.5479C70.6886 60.5726 70.9436 60.5291 71.1724 60.4221L73.9701 59.1137L76.7679 60.422C76.9966 60.529 77.2516 60.5726 77.5044 60.5479C77.7572 60.5231 77.998 60.4311 78.2 60.282C78.4019 60.1328 78.5571 59.9325 78.6483 59.7031C78.7394 59.4738 78.763 59.2245 78.7164 58.983L78.2093 56.3533L80.382 54.4695C80.5775 54.3001 80.7186 54.08 80.7888 53.8354C80.8589 53.5908 80.8551 53.3319 80.7777 53.0894C80.7003 52.8468 80.5527 52.6308 80.3523 52.4669C80.1519 52.3029 79.907 52.198 79.6468 52.1644L76.5465 51.7636L75.1809 49.3019C75.0634 49.0903 74.8888 48.9134 74.6756 48.79C74.4624 48.6667 74.2186 48.6016 73.9701 48.6016C73.7217 48.6016 73.4779 48.6667 73.2647 48.79C73.0515 48.9134 72.8769 49.0903 72.7594 49.3019L71.3937 51.7636L68.2935 52.1644C68.0332 52.198 67.7884 52.3029 67.588 52.4669C67.3875 52.6308 67.2399 52.8468 67.1625 53.0894C67.0852 53.3319 67.0813 53.5908 67.1515 53.8354C67.2216 54.08 67.3628 54.3001 67.5583 54.4695L69.7309 56.3534ZM72.4542 54.3064C72.6698 54.2784 72.8755 54.2014 73.0544 54.0817C73.2332 53.962 73.3802 53.803 73.4831 53.6177L73.9701 52.7396L74.4571 53.6177C74.5601 53.803 74.707 53.962 74.8859 54.0817C75.0647 54.2014 75.2704 54.2784 75.486 54.3064L76.3292 54.4153L75.8006 54.8741C75.6251 55.0263 75.493 55.2196 75.4171 55.4354C75.3412 55.6512 75.3241 55.8822 75.3673 56.1063L75.5175 56.8868L74.5684 56.4429C74.3819 56.3556 74.1773 56.3102 73.9701 56.3102C73.7629 56.3102 73.5583 56.3556 73.3718 56.4429L72.4226 56.8868L72.5729 56.1063C72.6161 55.8822 72.599 55.6512 72.5231 55.4354C72.4472 55.2196 72.3151 55.0263 72.1396 54.8741L71.6111 54.4153L72.4542 54.3064Z" fill="url(#paint1_linear)"/>
<path d="M101.545 81.6651C101.931 81.0384 102.134 80.3224 102.133 79.5932C102.134 79.08 102.028 78.5717 101.821 78.0992C101.614 77.6266 101.31 77.1995 100.928 76.8436C100.545 76.4877 100.092 76.2104 99.596 76.0284C99.0996 75.8465 98.5702 75.7637 98.0398 75.7849L94.6444 75.7819C94.7671 75.2035 94.8252 74.614 94.8174 74.0235C94.6786 72.6694 94.3542 69.5067 91.77 68.2912C91.126 67.9818 90.4115 67.8352 89.693 67.8648C88.7621 67.9226 87.8788 68.2832 87.1867 68.8879C86.6368 69.4058 86.2203 70.0412 85.9706 70.743C85.721 71.4448 85.6451 72.1934 85.7491 72.9287C85.7551 73.0536 85.762 73.8332 85.762 73.8332C85.4668 74.5243 84.5069 76.1495 84.0009 76.9968C83.5685 76.6713 83.0366 76.4939 82.4887 76.4922H79.1912C78.5413 76.4876 77.916 76.7324 77.4525 77.1728C76.989 77.6133 76.7252 78.2135 76.7188 78.8418V90.0802C76.7252 90.7085 76.989 91.3087 77.4525 91.7492C77.916 92.1896 78.5413 92.4344 79.1912 92.4297H82.4887C82.956 92.4303 83.4139 92.3029 83.8094 92.0622C84.2048 91.8215 84.5217 91.4773 84.7231 91.0697C85.1033 91.3225 85.5211 91.518 85.9621 91.6494C86.2149 91.7219 86.4772 91.7589 86.741 91.7591L96.0467 91.7616C97.14 91.7521 98.1848 91.3238 98.9519 90.5705C99.719 89.8173 100.146 88.8006 100.138 87.7436C100.138 87.6482 100.135 87.5535 100.128 87.4598C100.676 86.757 100.971 85.9007 100.969 85.0209C100.969 84.8428 100.957 84.6649 100.934 84.4883C101.367 83.8356 101.597 83.0759 101.595 82.3003C101.596 82.0876 101.579 81.8753 101.545 81.6651ZM82.2136 89.7735H79.4662V79.1485H82.2136V89.7735ZM98.0398 80.9545H97.7058C98.045 81.0188 98.3481 81.2008 98.5578 81.4664C98.7676 81.7319 98.8695 82.0625 98.8444 82.3957C98.8193 82.729 98.6688 83.0418 98.4214 83.2751C98.1741 83.5084 97.8469 83.646 97.5017 83.662H96.937C97.2929 83.693 97.6235 83.8534 97.8619 84.1107C98.1004 84.3681 98.2289 84.7034 98.2217 85.0488C98.2145 85.3943 98.072 85.7242 97.8229 85.9721C97.5739 86.2199 97.2369 86.3672 96.88 86.3842H96.1072C96.4632 86.4153 96.7937 86.5759 97.0319 86.8335C97.2702 87.0912 97.3984 87.4266 97.3908 87.7721C97.3831 88.1176 97.24 88.4474 96.9906 88.6949C96.7411 88.9423 96.4038 89.0891 96.0467 89.1054L86.7435 89.1029C86.2757 88.9687 85.9304 88.5723 85.4828 88.4032C85.3818 88.3682 85.2749 88.3517 85.1677 88.3547C85.1001 88.3547 85.0304 88.3616 84.9611 88.3673V80.0722C85.2011 79.9298 85.4282 79.7679 85.6397 79.5881C85.8109 79.1982 88.5094 74.9897 88.5094 74.16V73.299C88.5094 72.4496 88.291 71.4888 88.9993 70.884C89.2291 70.6744 89.5249 70.5453 89.8394 70.5173C89.8604 70.5162 89.8813 70.5157 89.9021 70.5157C90.1341 70.5205 90.3619 70.5766 90.568 70.6797C91.7121 71.2179 91.9684 73.1648 92.083 74.282C91.9181 75.6935 91.6046 77.0851 91.1475 78.4351L98.0398 78.4412C98.2085 78.4214 98.3795 78.4365 98.5416 78.4853C98.7038 78.5342 98.8534 78.6157 98.9805 78.7246C99.1077 78.8335 99.2095 78.9672 99.2792 79.1169C99.349 79.2667 99.3851 79.429 99.3852 79.5932C99.3894 79.768 99.3579 79.9419 99.2925 80.1049C99.2272 80.268 99.1292 80.417 99.0043 80.5434C98.8794 80.6698 98.7299 80.7712 98.5644 80.8417C98.3989 80.9123 98.2207 80.9506 98.0398 80.9545Z" fill="url(#paint2_linear)"/>
<path d="M89.7681 101.623V98.4062C89.7738 97.3677 89.4132 96.3582 88.7458 95.5444C88.4601 95.2254 88.1349 94.8434 87.7893 94.4155L87.5548 94.4153C87.0274 94.4148 86.5028 94.3409 85.9972 94.1959C85.6451 94.0927 85.3024 93.9615 84.9726 93.8037C84.7309 93.9324 84.4791 94.0423 84.2194 94.1326C84.9156 95.1563 85.6729 96.1398 86.4877 97.0781H61.4364C64.133 93.8591 70.4019 84.9708 69.2018 73.1719H81.311C81.3467 72.882 81.3931 72.5879 81.4391 72.2941C81.495 72.15 81.5243 71.9976 81.5257 71.8438C81.5257 71.8271 81.5213 71.8116 81.5206 71.7951C81.8032 70.1972 82.2201 68.6243 82.7669 67.0918C82.8012 67.02 82.8287 66.9454 82.8491 66.8688C84.5399 62.2218 87.6062 57.2009 92.6631 51.9267C92.9242 51.6542 93.1226 51.3313 93.2454 50.9792C93.3682 50.6272 93.4125 50.2541 93.3754 49.8843C93.3372 49.5084 93.2171 49.1445 93.023 48.8167C92.8289 48.4889 92.5652 48.2045 92.2492 47.9822C90.6878 46.9003 88.9089 46.147 87.0277 45.7709C85.1464 45.3948 83.2044 45.4043 81.3272 45.7988C80.8838 44.3373 80.239 42.9402 79.4101 41.6451C79.9575 40.6598 80.2439 39.5587 80.2439 38.4402C80.2439 34.8891 77.4294 32 73.9702 32C70.5111 32 67.6966 34.8891 67.6966 38.4402C67.6966 39.5587 67.983 40.6598 68.5303 41.6451C67.7014 42.9402 67.0566 44.3373 66.6133 45.7987C64.7359 45.4049 62.794 45.3957 60.9127 45.7718C59.0314 46.1479 57.2525 46.9009 55.6906 47.9822C55.3748 48.2046 55.1113 48.489 54.9173 48.8168C54.7233 49.1447 54.6033 49.5084 54.565 49.8843C54.5279 50.254 54.5722 50.6271 54.695 50.9791C54.8178 51.3311 55.0162 51.6539 55.2774 51.9264C76.4346 73.9935 61.9052 92.5218 58.7767 96.0126C58.7016 96.097 58.6238 96.1754 58.548 96.2532C58.2295 96.524 57.9711 96.8544 57.7885 97.2244C57.6059 97.5945 57.5028 97.9966 57.4855 98.4062V101.749C56.4834 102.033 55.6052 102.627 54.985 103.439C54.3649 104.252 54.0369 105.238 54.0512 106.248V114.344C54.0531 115.049 54.3443 115.725 54.8608 116.223C55.3774 116.721 56.0772 117 56.8067 117H91.1337C91.8632 117 92.563 116.721 93.0796 116.223C93.5962 115.725 93.8874 115.049 93.8892 114.344V106.248C93.9106 105.122 93.5021 104.028 92.7418 103.175C91.9816 102.322 90.9229 101.77 89.7681 101.623ZM79.0409 70.5156H68.8095C68.6408 69.6435 68.4314 68.7581 68.1741 67.8594H79.6935C79.4303 68.7586 79.2148 69.6442 79.0409 70.5156ZM63.672 48.1781C64.8918 48.1845 66.105 48.3531 67.2773 48.6791C67.4681 48.73 67.6679 48.7406 67.8632 48.7102C68.0585 48.6798 68.2448 48.6091 68.4094 48.5029C68.5739 48.3967 68.7129 48.2575 68.8169 48.0948C68.9209 47.932 68.9874 47.7495 69.0119 47.5597C69.3823 45.7012 70.1614 43.9414 71.2965 42.3993C71.4578 42.1705 71.541 41.8986 71.5345 41.6218C71.528 41.345 71.4321 41.0771 71.2603 40.8556C70.7232 40.158 70.4366 39.3098 70.444 38.4402C70.3964 37.4873 70.7404 36.5548 71.4009 35.846C72.0614 35.1372 72.985 34.7095 73.9702 34.6562C74.9555 34.7095 75.879 35.1372 76.5396 35.846C77.2001 36.5548 77.544 37.4873 77.4964 38.4402C77.5039 39.3098 77.2172 40.158 76.6801 40.8556C76.5083 41.0771 76.4124 41.345 76.4059 41.6218C76.3994 41.8986 76.4826 42.1705 76.6439 42.3993C77.7775 43.9397 78.5563 45.6972 78.9278 47.5533C78.9506 47.7441 79.016 47.9278 79.1194 48.0919C79.2228 48.2559 79.3618 48.3962 79.5268 48.5033C79.6918 48.6103 79.8788 48.6815 80.075 48.7118C80.2712 48.7422 80.4718 48.731 80.6631 48.6791C85.6341 47.3312 89.041 49.0095 90.6481 50.1207C85.5961 55.3899 82.4321 60.4605 80.5975 65.2031H67.289C65.4794 60.4465 62.3382 55.3763 57.3091 50.1288C59.1621 48.8419 61.3906 48.1587 63.672 48.1781ZM60.2316 101.727L60.2275 99.7344H87.0206V101.727H60.2316ZM91.1337 114.344H56.7987V106.248C56.7879 105.85 56.9013 105.458 57.1243 105.123C57.3472 104.788 57.6692 104.526 58.0485 104.371C58.0899 104.374 58.1299 104.383 58.1724 104.383H89.7681C89.8105 104.383 89.8506 104.374 89.892 104.371C90.2712 104.526 90.5933 104.788 90.8162 105.123C91.0391 105.458 91.1526 105.85 91.1418 106.248L91.1337 114.344Z" fill="url(#paint3_linear)"/>
</g>
<defs>
<linearGradient id="paint0_linear" x1="2.60547" y1="148.864" x2="151.455" y2="-2.0927" gradientUnits="userSpaceOnUse">
<stop stop-color="#FFC200"/>
<stop offset="1" stop-color="#FF785E"/>
</linearGradient>
<linearGradient id="paint1_linear" x1="67.1016" y1="48.6016" x2="78.9399" y2="62.2068" gradientUnits="userSpaceOnUse">
<stop stop-color="#0B63F6"/>
<stop offset="1" stop-color="#003CC5"/>
</linearGradient>
<linearGradient id="paint2_linear" x1="76.7188" y1="67.8611" x2="101.273" y2="93.2605" gradientUnits="userSpaceOnUse">
<stop stop-color="#0B63F6"/>
<stop offset="1" stop-color="#003CC5"/>
</linearGradient>
<linearGradient id="paint3_linear" x1="54.0508" y1="32" x2="119.378" y2="62.6188" gradientUnits="userSpaceOnUse">
<stop stop-color="#0B63F6"/>
<stop offset="1" stop-color="#003CC5"/>
</linearGradient>
<clipPath id="clip0">
<rect x="54.0508" y="32" width="48.0808" height="85" fill="white"/>
</clipPath>
</defs>
</svg>
