<svg width="156" height="149" viewBox="0 0 156 149" fill="none" xmlns="http://www.w3.org/2000/svg">
<path d="M2.81827 75.4428C2.45282 74.8186 2.45282 74.0458 2.81827 73.4217L39.3902 10.9616C39.749 10.3488 40.4059 9.97218 41.1161 9.97218L114.309 9.97218C115.019 9.97218 115.676 10.3488 116.035 10.9616L152.607 73.4217C152.972 74.0458 152.972 74.8186 152.607 75.4428L116.035 137.903C115.676 138.516 115.019 138.892 114.309 138.892L41.1161 138.892C40.4059 138.892 39.749 138.516 39.3902 137.903L2.81827 75.4428Z" fill="white" stroke="url(#paint0_linear)" stroke-width="5"/>
<path d="M109.457 40H45.9649C41.3935 40 37.7109 43.6825 37.7109 48.254V99.0476C37.7109 103.619 41.3935 107.302 45.9649 107.302H81.5205C82.5998 107.302 83.4252 106.476 83.4252 105.397C83.4252 104.317 82.5998 103.492 81.5205 103.492H45.9649C43.4887 103.492 41.5205 101.524 41.5205 99.0476V48.254C41.5205 45.7778 43.4887 43.8095 45.9649 43.8095H109.457C111.933 43.8095 113.901 45.7778 113.901 48.254V73.6508C113.901 74.7302 114.727 75.5556 115.806 75.5556C116.886 75.5556 117.711 74.7302 117.711 73.6508V48.254C117.711 43.6825 114.028 40 109.457 40Z" fill="url(#paint1_linear)"/>
<path d="M115.805 103.492C114.725 103.492 113.9 104.318 113.9 105.397V114.794L105.963 110.159C105.392 109.778 104.63 109.778 104.059 110.159L96.122 114.794V105.397C96.122 104.318 95.2966 103.492 94.2173 103.492C93.1379 103.492 92.3125 104.318 92.3125 105.397V118.095C92.3125 118.794 92.6935 119.429 93.2649 119.746C93.8363 120.064 94.5982 120.064 95.1696 119.746L105.011 113.968L114.852 119.746C115.17 119.937 115.487 120 115.805 120C116.122 120 116.439 119.937 116.757 119.746C117.328 119.429 117.709 118.794 117.709 118.095V105.397C117.709 104.318 116.884 103.492 115.805 103.492Z" fill="url(#paint2_linear)"/>
<path d="M105.011 80.635C109.9 80.635 113.9 84.635 113.9 89.5239C113.9 94.4127 109.9 98.4127 105.011 98.4127C100.122 98.4127 96.122 94.4127 96.122 89.5239C96.122 84.635 100.122 80.635 105.011 80.635ZM105.011 76.8254C98.0268 76.8254 92.3125 82.5397 92.3125 89.5239C92.3125 96.508 98.0268 102.222 105.011 102.222C111.995 102.222 117.709 96.508 117.709 89.5239C117.709 82.5397 111.995 76.8254 105.011 76.8254Z" fill="url(#paint3_linear)"/>
<path d="M49.1391 62.8571H106.282C107.361 62.8571 108.187 62.0317 108.187 60.9524C108.187 59.873 107.361 59.0476 106.282 59.0476H49.1391C48.0598 59.0476 47.2344 59.873 47.2344 60.9524C47.2344 62.0317 48.0598 62.8571 49.1391 62.8571Z" fill="url(#paint4_linear)"/>
<path d="M82.7899 71.7461H49.1391C48.0598 71.7461 47.2344 72.5715 47.2344 73.6509C47.2344 74.7302 48.0598 75.5556 49.1391 75.5556H82.7899C83.8693 75.5556 84.6947 74.7302 84.6947 73.6509C84.6947 72.5715 83.8693 71.7461 82.7899 71.7461Z" fill="url(#paint5_linear)"/>
<path d="M49.1391 84.4443C48.0598 84.4443 47.2344 85.2697 47.2344 86.3491C47.2344 87.4285 48.0598 88.2539 49.1391 88.2539H70.0915C71.1709 88.2539 71.9963 87.4285 71.9963 86.3491C71.9963 85.2697 71.1709 84.4443 70.0915 84.4443H49.1391Z" fill="url(#paint6_linear)"/>
<path d="M82.7915 88.2539C83.8435 88.2539 84.6962 87.4011 84.6962 86.3491C84.6962 85.2971 83.8435 84.4443 82.7915 84.4443C81.7395 84.4443 80.8867 85.2971 80.8867 86.3491C80.8867 87.4011 81.7395 88.2539 82.7915 88.2539Z" fill="url(#paint7_linear)"/>
<defs>
<linearGradient id="paint0_linear" x1="2.22656" y1="148.864" x2="151.076" y2="-2.0927" gradientUnits="userSpaceOnUse">
<stop stop-color="#FFC200"/>
<stop offset="1" stop-color="#FF785E"/>
</linearGradient>
<linearGradient id="paint1_linear" x1="37.7109" y1="40" x2="104.02" y2="118.82" gradientUnits="userSpaceOnUse">
<stop stop-color="#0B63F6"/>
<stop offset="1" stop-color="#003CC5"/>
</linearGradient>
<linearGradient id="paint2_linear" x1="92.3125" y1="103.492" x2="107.399" y2="126.702" gradientUnits="userSpaceOnUse">
<stop stop-color="#0B63F6"/>
<stop offset="1" stop-color="#003CC5"/>
</linearGradient>
<linearGradient id="paint3_linear" x1="92.3125" y1="76.8254" x2="117.709" y2="102.222" gradientUnits="userSpaceOnUse">
<stop stop-color="#0B63F6"/>
<stop offset="1" stop-color="#003CC5"/>
</linearGradient>
<linearGradient id="paint4_linear" x1="47.2344" y1="59.0476" x2="47.7087" y2="66.637" gradientUnits="userSpaceOnUse">
<stop stop-color="#0B63F6"/>
<stop offset="1" stop-color="#003CC5"/>
</linearGradient>
<linearGradient id="paint5_linear" x1="47.2344" y1="71.7461" x2="48.0013" y2="79.2872" gradientUnits="userSpaceOnUse">
<stop stop-color="#0B63F6"/>
<stop offset="1" stop-color="#003CC5"/>
</linearGradient>
<linearGradient id="paint6_linear" x1="47.2344" y1="84.4443" x2="48.3794" y2="91.8872" gradientUnits="userSpaceOnUse">
<stop stop-color="#0B63F6"/>
<stop offset="1" stop-color="#003CC5"/>
</linearGradient>
<linearGradient id="paint7_linear" x1="80.8867" y1="84.4443" x2="84.6962" y2="88.2539" gradientUnits="userSpaceOnUse">
<stop stop-color="#0B63F6"/>
<stop offset="1" stop-color="#003CC5"/>
</linearGradient>
</defs>
</svg>
