<svg width="356" height="356" viewBox="0 0 356 356" fill="none" xmlns="http://www.w3.org/2000/svg">
<mask id="mask0" mask-type="alpha" maskUnits="userSpaceOnUse" x="0" y="0" width="356" height="356">
<circle cx="177.711" cy="178.364" r="177.5" fill="#C4C4C4"/>
</mask>
<g mask="url(#mask0)">
<path d="M382.079 -18.8333H-29.9688V394.236H382.079V-18.8333Z" fill="url(#paint0_linear)"/>
<path d="M181.014 158.531H157.364C154.879 158.531 152.859 160.553 152.859 163.04V181.057C152.859 183.544 154.879 185.566 157.364 185.566H181.032V179.411V158.531H181.014Z" fill="#4969B0"/>
<path d="M204.684 158.531H181.016V179.429V185.583H204.684C207.168 185.583 209.188 183.562 209.188 181.075V163.058C209.188 160.553 207.168 158.531 204.684 158.531Z" fill="#29427B"/>
<path d="M211.882 356.486V172.594C211.882 170.948 209.933 169.606 207.538 169.606H180.438V356.504H211.882V356.486Z" fill="#00226E"/>
<path d="M180.44 169.588H153.34C150.945 169.588 148.996 170.93 148.996 172.576V356.486H180.44V169.588Z" fill="#0438AD"/>
<path d="M129.782 98.504C128.871 100.096 128.835 102.065 129.729 103.657L132.803 110.295L153.147 154.13C153.808 155.31 155.059 156.062 156.418 156.062C162.961 156.062 186.039 156.062 200.089 156.062C206.275 156.062 211.298 151.034 211.298 144.844C211.298 132.069 211.298 97.4663 211.298 89.5582L150.036 89.4508C149.947 89.4866 149.857 111.046 149.768 111.082C149.267 111.225 148.731 111.189 148.249 110.975C147.873 110.814 147.551 110.581 147.319 110.241C146.139 108.702 145.245 107.182 144.459 105.732C142.904 102.834 141.867 100.222 140.258 98.4325C138.881 96.9117 137.112 95.9813 134.234 95.9813C132.428 95.9455 130.712 96.9117 129.782 98.504Z" fill="#D8D8D8"/>
<path d="M207.759 183.096C207.759 185.512 205.793 187.48 203.38 187.48C200.966 187.48 199 185.512 199 183.096C199 180.681 200.966 178.713 203.38 178.713C205.811 178.713 207.759 180.681 207.759 183.096Z" fill="#4969B0"/>
<path d="M207.759 206.892C207.759 209.308 205.793 211.276 203.38 211.276C200.966 211.276 199 209.308 199 206.892C199 204.477 200.966 202.509 203.38 202.509C205.811 202.509 207.759 204.477 207.759 206.892Z" fill="#4969B0"/>
<path d="M207.759 194.995C207.759 197.41 205.793 199.378 203.38 199.378C200.966 199.378 199 197.41 199 194.995C199 192.579 200.966 190.611 203.38 190.611C205.811 190.611 207.759 192.579 207.759 194.995Z" fill="#4969B0"/>
<path d="M291.402 100.848H56.5273V106.931H291.402V100.848Z" fill="#BCBCBC"/>
<path d="M74.6626 113.512C79.9726 113.379 84.1693 108.963 84.0362 103.648C83.9032 98.3339 79.4908 94.1335 74.1809 94.2666C68.871 94.3998 64.6742 98.816 64.8073 104.131C64.9403 109.445 69.3527 113.646 74.6626 113.512Z" fill="white"/>
<path d="M80.7501 103.889C80.7501 107.378 77.9256 110.223 74.4219 110.223C70.9361 110.223 68.0938 107.396 68.0938 103.889C68.0938 100.383 70.9182 97.5558 74.4219 97.5558C77.9078 97.5558 80.7501 100.401 80.7501 103.889Z" fill="#CCCBC9"/>
<path d="M283.895 103.89C283.895 109.203 279.587 113.515 274.277 113.515C268.968 113.515 264.66 109.203 264.66 103.89C264.66 98.5757 268.968 94.2638 274.277 94.2638C279.587 94.2638 283.895 98.5757 283.895 103.89Z" fill="white"/>
<path d="M280.606 103.89C280.606 107.378 277.781 110.223 274.277 110.223C270.792 110.223 267.949 107.396 267.949 103.89C267.949 100.401 270.774 97.5559 274.277 97.5559C277.781 97.5559 280.606 100.401 280.606 103.89Z" fill="#CCCBC9"/>
<path d="M149.16 90.3454V105.786C149.16 109.847 152.592 113.157 156.811 113.157C161.012 113.157 164.462 109.83 164.462 105.786V90.3454C164.462 86.284 161.03 82.974 156.811 82.974C152.61 82.974 149.16 86.3019 149.16 90.3454Z" fill="white"/>
<path d="M164.781 90.3454V105.786C164.781 109.847 168.213 113.157 172.432 113.157C176.633 113.157 180.083 109.83 180.083 105.786V90.3454C180.083 86.284 176.651 82.974 172.432 82.974C168.231 82.974 164.781 86.3019 164.781 90.3454Z" fill="white"/>
<path d="M180.551 90.3454V105.786C180.551 109.847 183.983 113.157 188.202 113.157C192.403 113.157 195.853 109.83 195.853 105.786V90.3454C195.853 86.284 192.421 82.974 188.202 82.974C184.001 82.974 180.551 86.3019 180.551 90.3454Z" fill="white"/>
<path d="M196.316 90.3454V105.786C196.316 109.847 199.749 113.157 203.967 113.157C208.168 113.157 211.618 109.83 211.618 105.786V90.3454C211.618 86.284 208.186 82.974 203.967 82.974C199.767 82.974 196.316 86.3019 196.316 90.3454Z" fill="white"/>
<path d="M121.72 187.927C121.13 187.927 120.54 187.641 120.201 187.086L75.0099 115.573L29.1218 186.389C28.5855 187.212 27.4772 187.462 26.6549 186.907C25.8326 186.371 25.5823 185.261 26.1364 184.438L73.5619 111.279C73.9016 110.76 74.4736 110.456 75.0635 110.456C75.6713 110.456 76.2434 110.778 76.5651 111.297L123.258 185.19C123.794 186.031 123.544 187.122 122.704 187.659C122.382 187.838 122.06 187.927 121.72 187.927Z" fill="white"/>
<path d="M321.129 187.927C320.539 187.927 319.949 187.641 319.609 187.086L274.418 115.555L228.512 186.389C227.976 187.212 226.868 187.462 226.045 186.907C225.223 186.371 224.973 185.261 225.527 184.438L272.953 111.279C273.292 110.76 273.864 110.456 274.454 110.456C275.062 110.456 275.634 110.778 275.956 111.297L322.648 185.19C323.185 186.031 322.934 187.122 322.094 187.659C321.79 187.838 321.451 187.927 321.129 187.927Z" fill="white"/>
<path d="M59.985 112.937L35.2305 167.163L111.751 202.156L136.505 147.93L59.985 112.937Z" fill="#00226E"/>
<path d="M61.8355 120.153L129.836 151.249L111.12 192.257L61.7461 120.332L61.8355 120.153Z" fill="#29427B"/>
<path d="M111.121 192.257L111.067 192.364L43.0664 161.268L61.747 120.332L111.121 192.257Z" fill="#4969B0"/>
<path d="M32.4626 170.904L32.4599 170.902C31.7467 170.577 31.4075 169.698 31.7446 168.955C31.7449 168.955 31.7453 168.954 31.7456 168.953L31.7807 168.876L50.2372 177.325L50.2378 177.326L112.703 205.903L112.666 205.983L112.663 205.989C112.337 206.705 111.46 207.04 110.723 206.704C110.722 206.704 110.722 206.704 110.722 206.704L49.588 178.74L49.5876 178.74L32.4626 170.904Z" fill="#00226E" stroke="#222222" stroke-width="6"/>
<path d="M69.2214 176.191L67.7578 179.397L81.2212 185.554L82.6848 182.348L69.2214 176.191Z" fill="url(#paint1_linear)"/>
<path d="M54.4541 184.116C55.0619 185.19 54.6686 186.567 53.596 187.158L37.4896 196.229C36.417 196.837 35.0406 196.444 34.4507 195.37L17.5756 165.348C16.9678 164.274 17.361 162.897 18.4336 162.306L34.5579 153.235C35.6305 152.627 37.007 153.02 37.5969 154.094L54.4541 184.116Z" fill="#001239"/>
<path d="M45.2668 189.054C45.5528 189.555 45.3741 190.199 44.8557 190.486C44.3551 190.772 43.7116 190.593 43.4256 190.074C43.1395 189.573 43.3183 188.929 43.8188 188.643C44.3372 188.357 44.9808 188.553 45.2668 189.054Z" fill="#34595F"/>
<path d="M30.0991 158.078L24.8633 161.024L25.2575 161.726L30.4932 158.78L30.0991 158.078Z" fill="url(#paint2_linear)"/>
<path d="M19.4688 167.137L52.2536 182.613L37.7739 156.849L19.4688 167.137Z" fill="#29427B"/>
<path d="M35.5215 174.723L27.7812 171.073L19.4688 167.137L33.9484 192.919L52.2536 182.613L35.5215 174.723Z" fill="#4969B0"/>
<g clip-path="url(#clip0)">
<path d="M101.53 181.001C97.3009 205.321 75.9427 223.81 50.2305 223.81C48.5641 223.81 46.9157 223.721 45.2852 223.579C53.402 229.517 63.3106 233.001 73.9897 233.001C101.601 233.001 123.981 209.712 123.981 181.001H101.53Z" fill="#D9D8D6"/>
<path d="M101.531 181.001H24C24 198.601 32.4214 214.174 45.2865 223.579C46.917 223.739 48.5655 223.81 50.2319 223.81C75.9441 223.81 97.3023 205.321 101.531 181.001Z" fill="white"/>
</g>
<g clip-path="url(#clip1)">
<circle cx="254.579" cy="130.118" r="5.67632" fill="#00226E"/>
<circle cx="220.501" cy="158.421" r="5.67632" fill="#00226E"/>
<circle cx="297.372" cy="151.724" r="5.67632" fill="#00226E"/>
<path d="M267.722 132.163C269.89 119.636 253.21 114.793 245.32 122.835C243.522 124.659 242.177 127.155 241.622 130.362C238.621 147.745 261.336 169.052 261.336 169.052C261.336 169.052 263.264 168.196 266.147 166.67C274.43 162.251 290.694 152.074 292.924 139.193C295.925 121.809 270.384 116.783 267.722 132.163ZM254.397 125.642C256.774 126.046 258.367 128.317 257.941 130.707C257.532 133.1 255.27 134.71 252.897 134.288C250.538 133.888 248.945 131.617 249.353 129.224C249.775 126.852 252.02 125.238 254.397 125.642Z" fill="url(#paint3_linear)" stroke="white" stroke-width="2" stroke-miterlimit="10"/>
<path d="M233.567 153.61C229.447 141.595 212.503 145.42 209.453 156.268C208.757 158.747 208.775 161.566 209.828 164.656C215.535 181.322 245.695 188.991 245.695 188.991C245.695 188.991 246.979 187.303 248.763 184.573C253.881 176.689 263.245 159.914 259.018 147.558C253.311 130.909 228.501 138.865 233.567 153.61ZM218.745 154.364C221.028 153.574 223.507 154.795 224.292 157.076C225.077 159.375 223.864 161.872 221.599 162.662C219.334 163.452 216.855 162.231 216.07 159.932C215.267 157.651 216.48 155.155 218.745 154.364Z" fill="url(#paint4_linear)" stroke="white" stroke-width="2" stroke-miterlimit="10"/>
<circle cx="258.583" cy="165.6" r="5.67632" fill="#00226E"/>
<path d="M308.367 158.479C314.948 147.631 301.233 136.909 290.977 141.452C288.641 142.476 286.483 144.29 284.789 147.074C275.657 162.125 288.98 190.412 288.98 190.412C288.98 190.412 291.084 190.34 294.313 189.981C303.605 188.939 322.422 185.527 329.181 174.373C338.313 159.341 316.447 145.152 308.367 158.479ZM298.361 147.451C300.412 148.708 301.055 151.42 299.806 153.486C298.54 155.569 295.864 156.216 293.813 154.941C291.762 153.683 291.12 150.989 292.369 148.906C293.635 146.841 296.31 146.194 298.361 147.451Z" fill="url(#paint5_linear)" stroke="white" stroke-width="2" stroke-miterlimit="10"/>
<path d="M272.16 163.854C271.536 151.156 254.2 150.078 248.26 159.651C246.905 161.824 246.138 164.554 246.298 167.805C247.172 185.424 273.997 201.247 273.997 201.247C273.997 201.247 275.691 199.989 278.171 197.87C285.269 191.746 298.913 178.258 298.271 165.201C297.397 147.6 271.393 148.264 272.16 163.854ZM257.713 160.423C260.121 160.298 262.172 162.165 262.279 164.59C262.404 167.015 260.549 169.08 258.141 169.188C255.751 169.314 253.7 167.446 253.575 165.021C253.468 162.597 255.323 160.531 257.713 160.423Z" fill="url(#paint6_linear)" stroke="white" stroke-width="2" stroke-miterlimit="10"/>
</g>
<g clip-path="url(#clip2)">
<path d="M302.307 181.001C298.036 205.321 276.464 223.81 250.495 223.81C248.812 223.81 247.147 223.721 245.5 223.579C253.698 229.517 263.706 233.001 274.492 233.001C302.379 233.001 324.983 209.712 324.983 181.001H302.307Z" fill="#D9D8D6"/>
<path d="M302.306 181.001H224C224 198.601 232.506 214.174 245.499 223.579C247.146 223.739 248.811 223.81 250.494 223.81C276.464 223.81 298.035 205.321 302.306 181.001Z" fill="white"/>
</g>
<path d="M49.4142 208.001C49.2529 208.001 49.1502 207.928 49.1062 207.781L45.1022 192.887L45.0802 192.799C45.0802 192.667 45.1609 192.601 45.3222 192.601H47.4782C47.6395 192.601 47.7422 192.675 47.7862 192.821L50.2942 202.853C50.3089 202.897 50.3309 202.919 50.3602 202.919C50.3895 202.919 50.4115 202.897 50.4262 202.853L52.8242 192.821C52.8682 192.675 52.9635 192.601 53.1102 192.601H55.2222C55.3835 192.601 55.4862 192.675 55.5302 192.821L58.0822 202.875C58.0969 202.919 58.1189 202.941 58.1482 202.941C58.1775 202.941 58.1995 202.919 58.2142 202.875L60.6782 192.821C60.7222 192.675 60.8249 192.601 60.9862 192.601H63.0322C63.2375 192.601 63.3182 192.697 63.2742 192.887L59.4682 207.781C59.4242 207.928 59.3215 208.001 59.1602 208.001H57.1142C56.9529 208.001 56.8502 207.928 56.8062 207.781L54.2322 197.287C54.2175 197.243 54.1955 197.221 54.1662 197.221C54.1369 197.207 54.1149 197.229 54.1002 197.287L51.6362 207.781C51.5922 207.928 51.4969 208.001 51.3502 208.001H49.4142ZM70.0201 208.221C68.9201 208.221 67.9448 208.001 67.0941 207.561C66.2435 207.107 65.5835 206.469 65.1141 205.647C64.6595 204.826 64.4321 203.88 64.4321 202.809V197.793C64.4321 196.737 64.6668 195.806 65.1361 194.999C65.6055 194.178 66.2581 193.547 67.0941 193.107C67.9448 192.653 68.9201 192.425 70.0201 192.425C71.1348 192.425 72.1101 192.653 72.9461 193.107C73.7968 193.547 74.4568 194.178 74.9261 194.999C75.3955 195.806 75.6301 196.737 75.6301 197.793V202.809C75.6301 203.88 75.3955 204.826 74.9261 205.647C74.4568 206.469 73.7968 207.107 72.9461 207.561C72.1101 208.001 71.1348 208.221 70.0201 208.221ZM70.0201 206.021C70.9441 206.021 71.6848 205.735 72.2421 205.163C72.7995 204.591 73.0781 203.836 73.0781 202.897V197.771C73.0781 196.818 72.7995 196.055 72.2421 195.483C71.6848 194.911 70.9441 194.625 70.0201 194.625C69.1108 194.625 68.3775 194.911 67.8201 195.483C67.2628 196.055 66.9841 196.818 66.9841 197.771V202.897C66.9841 203.836 67.2628 204.591 67.8201 205.163C68.3775 205.735 69.1108 206.021 70.0201 206.021ZM87.1162 208.001C86.9695 208.001 86.8669 207.935 86.8082 207.803L83.9042 201.467C83.8749 201.409 83.8309 201.379 83.7722 201.379H81.1322C81.0589 201.379 81.0222 201.416 81.0222 201.489V207.737C81.0222 207.811 80.9929 207.877 80.9342 207.935C80.8902 207.979 80.8315 208.001 80.7582 208.001H78.7342C78.6609 208.001 78.5949 207.979 78.5362 207.935C78.4922 207.877 78.4702 207.811 78.4702 207.737V192.865C78.4702 192.792 78.4922 192.733 78.5362 192.689C78.5949 192.631 78.6609 192.601 78.7342 192.601H84.7842C85.6789 192.601 86.4709 192.792 87.1602 193.173C87.8495 193.54 88.3849 194.068 88.7662 194.757C89.1475 195.432 89.3382 196.209 89.3382 197.089C89.3382 198.101 89.0742 198.967 88.5462 199.685C88.0329 200.389 87.3142 200.881 86.3902 201.159C86.3609 201.159 86.3389 201.174 86.3242 201.203C86.3095 201.233 86.3095 201.262 86.3242 201.291L89.4262 207.693C89.4555 207.752 89.4702 207.796 89.4702 207.825C89.4702 207.943 89.3895 208.001 89.2282 208.001H87.1162ZM81.1322 194.801C81.0589 194.801 81.0222 194.838 81.0222 194.911V199.289C81.0222 199.363 81.0589 199.399 81.1322 199.399H84.4322C85.1362 199.399 85.7009 199.194 86.1262 198.783C86.5662 198.358 86.7862 197.801 86.7862 197.111C86.7862 196.422 86.5662 195.865 86.1262 195.439C85.7009 195.014 85.1362 194.801 84.4322 194.801H81.1322ZM92.2264 208.001C92.1531 208.001 92.0871 207.979 92.0284 207.935C91.9844 207.877 91.9624 207.811 91.9624 207.737V192.865C91.9624 192.792 91.9844 192.733 92.0284 192.689C92.0871 192.631 92.1531 192.601 92.2264 192.601H94.2504C94.3237 192.601 94.3824 192.631 94.4264 192.689C94.4851 192.733 94.5144 192.792 94.5144 192.865V199.443C94.5144 199.487 94.5291 199.517 94.5584 199.531C94.5877 199.546 94.6171 199.539 94.6464 199.509L100.366 192.755C100.454 192.653 100.564 192.601 100.696 192.601H102.984C103.131 192.601 103.204 192.653 103.204 192.755C103.204 192.799 103.182 192.858 103.138 192.931L98.1004 199.113C98.0564 199.172 98.0491 199.223 98.0784 199.267L103.49 207.693C103.52 207.781 103.534 207.833 103.534 207.847C103.534 207.95 103.461 208.001 103.314 208.001H101.004C100.872 208.001 100.77 207.943 100.696 207.825L96.3404 201.049C96.2817 200.961 96.2304 200.954 96.1864 201.027L94.5584 202.919C94.5291 202.978 94.5144 203.029 94.5144 203.073V207.737C94.5144 207.811 94.4851 207.877 94.4264 207.935C94.3824 207.979 94.3237 208.001 94.2504 208.001H92.2264Z" fill="url(#paint7_linear)"/>
<path d="M256.128 208.001C256.054 208.001 255.988 207.979 255.93 207.935C255.886 207.877 255.864 207.811 255.864 207.737V192.865C255.864 192.792 255.886 192.733 255.93 192.689C255.988 192.631 256.054 192.601 256.128 192.601H258.152C258.225 192.601 258.284 192.631 258.328 192.689C258.386 192.733 258.416 192.792 258.416 192.865V205.691C258.416 205.765 258.452 205.801 258.526 205.801H265.896C265.969 205.801 266.028 205.831 266.072 205.889C266.13 205.933 266.16 205.992 266.16 206.065V207.737C266.16 207.811 266.13 207.877 266.072 207.935C266.028 207.979 265.969 208.001 265.896 208.001H256.128ZM268.696 208.001C268.623 208.001 268.557 207.979 268.498 207.935C268.454 207.877 268.432 207.811 268.432 207.737V192.865C268.432 192.792 268.454 192.733 268.498 192.689C268.557 192.631 268.623 192.601 268.696 192.601H270.72C270.794 192.601 270.852 192.631 270.896 192.689C270.955 192.733 270.984 192.792 270.984 192.865V207.737C270.984 207.811 270.955 207.877 270.896 207.935C270.852 207.979 270.794 208.001 270.72 208.001H268.696ZM284.596 194.537C284.596 194.611 284.567 194.677 284.508 194.735C284.464 194.779 284.405 194.801 284.332 194.801H276.852C276.779 194.801 276.742 194.838 276.742 194.911V199.025C276.742 199.099 276.779 199.135 276.852 199.135H281.89C281.963 199.135 282.022 199.165 282.066 199.223C282.125 199.267 282.154 199.326 282.154 199.399V201.071C282.154 201.145 282.125 201.211 282.066 201.269C282.022 201.313 281.963 201.335 281.89 201.335H276.852C276.779 201.335 276.742 201.372 276.742 201.445V207.737C276.742 207.811 276.713 207.877 276.654 207.935C276.61 207.979 276.551 208.001 276.478 208.001H274.454C274.381 208.001 274.315 207.979 274.256 207.935C274.212 207.877 274.19 207.811 274.19 207.737V192.865C274.19 192.792 274.212 192.733 274.256 192.689C274.315 192.631 274.381 192.601 274.454 192.601H284.332C284.405 192.601 284.464 192.631 284.508 192.689C284.567 192.733 284.596 192.792 284.596 192.865V194.537ZM297.014 194.537C297.014 194.611 296.985 194.677 296.926 194.735C296.882 194.779 296.824 194.801 296.75 194.801H289.248C289.175 194.801 289.138 194.838 289.138 194.911V199.025C289.138 199.099 289.175 199.135 289.248 199.135H294.286C294.36 199.135 294.418 199.165 294.462 199.223C294.521 199.267 294.55 199.326 294.55 199.399V201.071C294.55 201.145 294.521 201.211 294.462 201.269C294.418 201.313 294.36 201.335 294.286 201.335H289.248C289.175 201.335 289.138 201.372 289.138 201.445V205.691C289.138 205.765 289.175 205.801 289.248 205.801H296.75C296.824 205.801 296.882 205.831 296.926 205.889C296.985 205.933 297.014 205.992 297.014 206.065V207.737C297.014 207.811 296.985 207.877 296.926 207.935C296.882 207.979 296.824 208.001 296.75 208.001H286.85C286.777 208.001 286.711 207.979 286.652 207.935C286.608 207.877 286.586 207.811 286.586 207.737V192.865C286.586 192.792 286.608 192.733 286.652 192.689C286.711 192.631 286.777 192.601 286.85 192.601H296.75C296.824 192.601 296.882 192.631 296.926 192.689C296.985 192.733 297.014 192.792 297.014 192.865V194.537Z" fill="url(#paint8_linear)"/>
</g>
<defs>
<linearGradient id="paint0_linear" x1="-29.9688" y1="-18.8333" x2="383.099" y2="393.214" gradientUnits="userSpaceOnUse">
<stop stop-color="#0B63F6"/>
<stop offset="1" stop-color="#003CC5"/>
</linearGradient>
<linearGradient id="paint1_linear" x1="67.7578" y1="179.397" x2="71.9753" y2="173.992" gradientUnits="userSpaceOnUse">
<stop stop-color="#FFC200"/>
<stop offset="1" stop-color="#FF785E"/>
</linearGradient>
<linearGradient id="paint2_linear" x1="24.8633" y1="161.024" x2="25.8233" y2="162.298" gradientUnits="userSpaceOnUse">
<stop stop-color="#FFC200"/>
<stop offset="1" stop-color="#FF785E"/>
</linearGradient>
<linearGradient id="paint3_linear" x1="245.043" y1="115.006" x2="281.586" y2="176.437" gradientUnits="userSpaceOnUse">
<stop stop-color="#FFC200"/>
<stop offset="1" stop-color="#FF785E"/>
</linearGradient>
<linearGradient id="paint4_linear" x1="208.977" y1="138.248" x2="259.719" y2="189.354" gradientUnits="userSpaceOnUse">
<stop stop-color="#FFC200"/>
<stop offset="1" stop-color="#FF785E"/>
</linearGradient>
<linearGradient id="paint5_linear" x1="281.59" y1="140.382" x2="331.619" y2="190.163" gradientUnits="userSpaceOnUse">
<stop stop-color="#FFC200"/>
<stop offset="1" stop-color="#FF785E"/>
</linearGradient>
<linearGradient id="paint6_linear" x1="246.277" y1="152.08" x2="295.367" y2="204.013" gradientUnits="userSpaceOnUse">
<stop stop-color="#FFC200"/>
<stop offset="1" stop-color="#FF785E"/>
</linearGradient>
<linearGradient id="paint7_linear" x1="42.3633" y1="187.001" x2="65.9737" y2="235.509" gradientUnits="userSpaceOnUse">
<stop stop-color="#0B63F6"/>
<stop offset="1" stop-color="#003CC5"/>
</linearGradient>
<linearGradient id="paint8_linear" x1="247" y1="187.001" x2="273.221" y2="231.577" gradientUnits="userSpaceOnUse">
<stop stop-color="#0B63F6"/>
<stop offset="1" stop-color="#003CC5"/>
</linearGradient>
<clipPath id="clip0">
<rect x="24" y="181.001" width="100" height="52" fill="white"/>
</clipPath>
<clipPath id="clip1">
<rect x="207" y="118" width="126" height="85" fill="white"/>
</clipPath>
<clipPath id="clip2">
<rect x="224" y="181.001" width="101" height="52" fill="white"/>
</clipPath>
</defs>
</svg>
