<svg width="461" height="368" viewBox="0 0 461 368" fill="none" xmlns="http://www.w3.org/2000/svg">
<g clip-path="url(#clip0)">
<path d="M104.092 256.439L119.079 290.74L134.066 256.439L142.63 300.03H137.634L132.638 272.161L119.079 301.459L106.233 272.161L101.238 300.03H96.2422L104.092 256.439Z" fill="url(#paint0_linear)"/>
<path d="M161.897 287.881L156.902 300.03H151.906L171.175 257.154L189.73 300.03H184.734L179.739 288.596H161.897V287.881ZM171.175 267.158L164.038 283.594H177.598L171.175 267.158Z" fill="url(#paint1_linear)"/>
<path d="M202.576 258.583H210.426C216.849 258.583 221.845 259.298 226.127 263.586C231.122 267.873 233.263 272.875 233.263 279.307C233.263 285.024 231.122 290.74 226.84 294.313C221.845 298.601 216.849 299.315 210.426 299.315H202.576V258.583ZM210.426 295.743C215.422 295.743 219.704 295.028 223.272 291.455C226.84 288.597 228.268 284.309 228.268 279.307C228.268 274.305 226.127 270.017 223.272 267.159C219.704 263.586 215.422 262.871 210.426 262.871H206.858V295.743H210.426Z" fill="url(#paint2_linear)"/>
<path d="M247.537 258.583H268.947V262.871H252.533V275.019H268.947V279.307H252.533V295.743H268.947V300.03H247.537V258.583Z" fill="url(#paint3_linear)"/>
<path d="M314.62 299.315H310.338V257.868H314.62V299.315Z" fill="url(#paint4_linear)"/>
<path d="M331.033 256.439L363.148 290.025V257.869H367.43V300.744L336.029 267.873V299.315H331.747V256.439H331.033Z" fill="url(#paint5_linear)"/>
<path d="M26.3054 361.485H37.7238V365.773H22.0234V325.041H26.3054V361.485Z" fill="url(#paint6_linear)"/>
<path d="M54.8522 349.337C54.8522 352.195 54.8522 355.768 56.9932 358.627C59.1342 361.485 61.9888 362.2 65.557 362.2C68.4116 362.2 71.9799 360.77 73.4072 358.627C75.5482 355.768 75.5482 352.195 75.5482 349.337V325.041H79.8301V350.766C79.8301 355.054 79.8301 358.627 76.2618 362.2C73.4072 365.058 69.1253 367.202 65.557 367.202C61.9888 367.202 57.7068 365.773 54.8522 362.914C51.284 359.341 50.5703 355.768 50.5703 350.766V325.041H54.8522V349.337Z" fill="url(#paint7_linear)"/>
<path d="M93.3875 325.041H98.3831L106.947 340.762L115.511 325.041H120.506L109.088 345.049L121.22 366.487H116.224L106.947 349.337L97.6694 366.487H92.6738L104.806 345.049L93.3875 325.041Z" fill="url(#paint8_linear)"/>
<path d="M134.781 325.041H156.191V329.328H139.777V341.476H156.191V345.764H139.777V362.2H156.191V366.487H134.781V325.041Z" fill="url(#paint9_linear)"/>
<path d="M178.313 322.182L193.3 356.483L208.287 322.182L216.85 365.772H211.855L206.859 337.903L193.3 367.916L180.454 338.618L175.458 366.487H170.463L178.313 322.182Z" fill="url(#paint10_linear)"/>
<path d="M230.411 325.041H236.834C243.97 325.041 250.393 327.899 250.393 336.474C250.393 340.047 248.966 342.905 246.111 344.335C251.107 345.764 253.961 350.051 253.961 355.054C253.961 362.914 247.539 366.487 238.975 366.487H229.697V325.041H230.411ZM234.693 342.905H236.12C241.116 342.905 245.398 342.191 245.398 335.759C245.398 329.328 241.829 328.614 236.12 328.614H233.979V342.905H234.693ZM234.693 361.485H238.975C243.97 361.485 249.68 360.056 249.68 353.624C249.68 347.193 243.257 346.478 238.261 346.478H233.979V361.485H234.693Z" fill="url(#paint11_linear)"/>
<path d="M310.339 345.764C310.339 357.912 300.348 367.202 288.929 367.202C277.511 367.202 267.52 357.912 267.52 345.764C267.52 334.331 277.511 324.326 288.929 324.326C300.348 324.326 310.339 333.616 310.339 345.764ZM271.801 345.764C271.801 355.054 279.652 362.914 288.929 362.914C298.207 362.914 306.057 355.054 306.057 345.764C306.057 336.474 298.92 328.614 288.929 328.614C279.652 328.614 271.801 335.76 271.801 345.764Z" fill="url(#paint12_linear)"/>
<path d="M328.893 349.337C328.893 352.195 328.893 355.768 331.034 358.627C333.175 361.485 336.03 362.2 339.598 362.2C342.453 362.2 346.021 360.77 347.448 358.627C349.589 355.768 349.589 352.195 349.589 349.337V325.041H353.871V350.766C353.871 355.054 353.871 358.627 350.303 362.2C347.448 365.058 343.166 367.202 339.598 367.202C336.03 367.202 331.748 365.773 328.893 362.914C325.325 359.341 324.611 355.768 324.611 350.766V325.041H328.893V349.337Z" fill="url(#paint13_linear)"/>
<path d="M374.569 365.773H370.287V325.041H375.996C383.847 325.041 390.983 327.184 390.983 336.474C390.983 342.905 386.701 347.193 380.992 347.908L393.838 366.487H388.128L375.996 348.622H374.569V365.773ZM374.569 343.62H375.996C380.992 343.62 386.701 342.905 386.701 336.474C386.701 330.043 381.706 329.328 375.996 329.328H374.569V343.62Z" fill="url(#paint14_linear)"/>
<path d="M445.932 345.049C445.932 350.766 445.218 355.053 441.65 359.341C438.082 363.628 432.373 366.487 426.663 366.487C415.245 366.487 405.254 357.197 405.254 345.049C405.254 333.615 414.531 323.611 426.663 323.611C433.8 323.611 439.509 327.184 443.791 332.186L440.223 335.045C436.655 330.042 432.373 327.184 425.95 327.184C416.672 327.184 408.822 335.045 408.822 344.334C408.822 348.622 410.249 352.91 413.818 355.768C416.672 358.626 420.954 360.77 425.236 360.77C432.373 360.77 440.223 355.768 440.223 347.907H428.091V343.62H445.932V345.049Z" fill="url(#paint15_linear)"/>
<path d="M460.92 176.405C460.92 154.967 454.498 116.379 405.255 99.9429C397.405 97.0845 389.555 96.3699 381.705 96.3699C371 96.3699 360.295 98.5137 349.591 103.516C339.599 89.9386 325.326 80.6488 307.485 74.932C306.771 74.932 297.494 72.0737 284.648 72.0737C271.089 72.0737 251.82 75.6466 233.979 89.9386C216.851 74.932 197.582 71.3591 184.023 71.3591C171.177 71.3591 161.186 74.2174 160.473 74.932C142.631 80.6488 128.358 89.9386 118.367 103.516C108.376 98.5137 97.671 96.3699 86.2526 96.3699C78.4024 96.3699 70.5522 97.7991 62.702 99.9429C14.1736 115.664 7.03711 154.252 7.03711 176.405C7.03711 190.697 9.89172 200.701 9.89172 202.13L32.7286 293.598L34.1559 296.457L37.7242 295.742H39.1515L42.7198 295.028L42.0061 291.455L17.7419 199.272C17.7419 199.272 17.0283 197.128 16.3146 192.84C15.6009 189.267 14.8873 182.836 14.8873 176.405C14.8873 152.823 23.4511 121.381 65.5567 107.089C71.9795 104.945 79.1161 103.516 86.2526 103.516C95.5301 103.516 104.808 105.66 113.371 109.233C106.235 121.381 101.953 135.673 101.953 151.394C101.953 161.398 103.38 170.688 106.949 179.978C116.226 206.418 142.631 221.424 146.199 222.853H146.913L149.768 224.283L151.195 221.424V220.71C159.759 205.703 164.041 190.697 164.041 174.976C164.041 147.106 149.054 120.666 124.79 106.374C134.067 94.9407 146.199 86.3656 161.9 82.078C161.9 82.078 164.041 81.3634 167.609 80.6488C171.177 79.9342 176.173 79.2196 182.596 79.2196C194.728 79.2196 211.856 82.078 226.842 94.9407C212.569 109.947 204.005 132.1 204.005 155.681C204.005 159.254 204.005 162.113 204.719 165.686C207.574 191.411 226.129 209.991 229.697 213.564L230.41 214.278L232.551 216.422L235.406 214.278L236.12 213.564C238.261 211.42 258.957 192.126 261.811 164.971C261.811 162.113 262.525 158.54 262.525 154.967C262.525 131.385 253.961 109.233 239.688 94.2261C255.388 81.3634 272.516 78.505 284.648 78.505C295.353 78.505 303.203 80.6488 305.344 81.3634C321.044 86.3656 333.177 94.2261 342.454 105.66C318.19 119.952 303.203 145.677 303.203 174.261C303.203 189.982 307.485 204.989 316.049 219.995V220.71L317.476 223.568L320.331 222.139H321.044C323.899 220.71 350.304 205.703 359.582 179.263C362.436 170.688 364.577 160.684 364.577 150.679C364.577 135.673 361.009 121.381 353.159 108.518C361.723 104.945 371 102.801 380.278 102.801C387.414 102.801 394.551 104.23 400.974 106.374C443.079 120.666 450.929 151.394 450.929 175.69C450.929 187.838 448.788 196.413 448.075 198.557L425.951 289.311L425.238 292.884L428.806 293.598H430.233L433.802 294.313L434.515 290.74L458.066 200.701V201.416C457.352 201.416 460.92 190.697 460.92 176.405ZM136.208 124.239C149.768 137.817 157.618 155.681 157.618 174.976C157.618 187.838 154.05 200.701 147.627 212.849C144.772 211.42 141.204 208.562 136.922 204.989C129.785 199.272 120.508 189.267 116.226 176.405C113.371 168.544 111.944 159.969 111.944 150.679C111.944 137.102 115.512 123.525 121.935 112.806C126.931 116.379 131.213 119.952 136.208 124.239ZM254.675 155.681C254.675 158.54 254.675 161.398 253.961 164.257C252.534 177.119 246.825 188.553 241.829 194.984C238.974 199.272 236.12 202.13 233.979 204.274C233.979 204.274 233.979 204.274 233.265 203.559C228.27 197.843 215.424 182.836 213.283 163.542C213.283 160.684 212.569 157.825 212.569 154.967C212.569 133.529 219.706 113.52 233.265 99.2283C247.538 114.235 254.675 134.244 254.675 155.681ZM357.441 151.394C357.441 159.969 356.013 169.259 353.159 177.119C348.877 189.982 339.599 199.272 332.463 205.703C328.181 209.276 324.613 211.42 322.472 212.849C322.472 212.849 321.758 212.849 321.758 213.564C315.335 200.701 311.767 187.838 311.767 175.69C311.767 156.396 319.617 138.531 333.177 124.954C337.458 120.666 342.454 117.093 347.45 113.52C353.872 124.239 357.441 137.102 357.441 151.394ZM233.265 62.7839C249.679 62.7839 262.525 49.2066 262.525 33.4855C263.239 17.0497 249.679 3.47241 233.265 3.47241C216.851 3.47241 204.005 17.0497 204.005 32.7709C204.005 49.2066 217.565 62.7839 233.265 62.7839ZM233.265 11.333C245.397 11.333 254.675 21.3373 254.675 32.7709C254.675 44.919 244.684 54.2087 233.265 54.2087C221.133 54.2087 211.856 44.2044 211.856 32.7709C211.856 21.3373 221.847 11.333 233.265 11.333Z" fill="url(#paint16_linear)"/>
</g>
<defs>
<linearGradient id="paint0_linear" x1="96.0895" y1="278.961" x2="142.652" y2="278.961" gradientUnits="userSpaceOnUse">
<stop stop-color="#CE7900"/>
<stop offset="0.1647" stop-color="#E09927"/>
<stop offset="0.3884" stop-color="#F6C157"/>
<stop offset="0.5" stop-color="#FFD069"/>
<stop offset="0.6116" stop-color="#F6C157"/>
<stop offset="0.8353" stop-color="#E09927"/>
<stop offset="1" stop-color="#CE7900"/>
</linearGradient>
<linearGradient id="paint1_linear" x1="152.145" y1="278.307" x2="189.559" y2="278.307" gradientUnits="userSpaceOnUse">
<stop stop-color="#CE7900"/>
<stop offset="0.1647" stop-color="#E09927"/>
<stop offset="0.3884" stop-color="#F6C157"/>
<stop offset="0.5" stop-color="#FFD069"/>
<stop offset="0.6116" stop-color="#F6C157"/>
<stop offset="0.8353" stop-color="#E09927"/>
<stop offset="1" stop-color="#CE7900"/>
</linearGradient>
<linearGradient id="paint2_linear" x1="202.35" y1="279.288" x2="232.903" y2="279.288" gradientUnits="userSpaceOnUse">
<stop stop-color="#CE7900"/>
<stop offset="0.1647" stop-color="#E09927"/>
<stop offset="0.3884" stop-color="#F6C157"/>
<stop offset="0.5" stop-color="#FFD069"/>
<stop offset="0.6116" stop-color="#F6C157"/>
<stop offset="0.8353" stop-color="#E09927"/>
<stop offset="1" stop-color="#CE7900"/>
</linearGradient>
<linearGradient id="paint3_linear" x1="247.726" y1="279.288" x2="269.02" y2="279.288" gradientUnits="userSpaceOnUse">
<stop stop-color="#CE7900"/>
<stop offset="0.1647" stop-color="#E09927"/>
<stop offset="0.3884" stop-color="#F6C157"/>
<stop offset="0.5" stop-color="#FFD069"/>
<stop offset="0.6116" stop-color="#F6C157"/>
<stop offset="0.8353" stop-color="#E09927"/>
<stop offset="1" stop-color="#CE7900"/>
</linearGradient>
<linearGradient id="paint4_linear" x1="309.883" y1="279.068" x2="314.457" y2="279.068" gradientUnits="userSpaceOnUse">
<stop stop-color="#CE7900"/>
<stop offset="0.1647" stop-color="#E09927"/>
<stop offset="0.3884" stop-color="#F6C157"/>
<stop offset="0.5" stop-color="#FFD069"/>
<stop offset="0.6116" stop-color="#F6C157"/>
<stop offset="0.8353" stop-color="#E09927"/>
<stop offset="1" stop-color="#CE7900"/>
</linearGradient>
<linearGradient id="paint5_linear" x1="331.305" y1="279.122" x2="367.902" y2="279.122" gradientUnits="userSpaceOnUse">
<stop stop-color="#CE7900"/>
<stop offset="0.1647" stop-color="#E09927"/>
<stop offset="0.3884" stop-color="#F6C157"/>
<stop offset="0.5" stop-color="#FFD069"/>
<stop offset="0.6116" stop-color="#F6C157"/>
<stop offset="0.8353" stop-color="#E09927"/>
<stop offset="1" stop-color="#CE7900"/>
</linearGradient>
<linearGradient id="paint6_linear" x1="21.8993" y1="345.435" x2="37.803" y2="345.435" gradientUnits="userSpaceOnUse">
<stop stop-color="#CE7900"/>
<stop offset="0.1647" stop-color="#E09927"/>
<stop offset="0.3884" stop-color="#F6C157"/>
<stop offset="0.5" stop-color="#FFD069"/>
<stop offset="0.6116" stop-color="#F6C157"/>
<stop offset="0.8353" stop-color="#E09927"/>
<stop offset="1" stop-color="#CE7900"/>
</linearGradient>
<linearGradient id="paint7_linear" x1="50.4119" y1="345.79" x2="79.7116" y2="345.79" gradientUnits="userSpaceOnUse">
<stop stop-color="#CE7900"/>
<stop offset="0.1647" stop-color="#E09927"/>
<stop offset="0.3884" stop-color="#F6C157"/>
<stop offset="0.5" stop-color="#FFD069"/>
<stop offset="0.6116" stop-color="#F6C157"/>
<stop offset="0.8353" stop-color="#E09927"/>
<stop offset="1" stop-color="#CE7900"/>
</linearGradient>
<linearGradient id="paint8_linear" x1="92.591" y1="345.435" x2="121.89" y2="345.435" gradientUnits="userSpaceOnUse">
<stop stop-color="#CE7900"/>
<stop offset="0.1647" stop-color="#E09927"/>
<stop offset="0.3884" stop-color="#F6C157"/>
<stop offset="0.5" stop-color="#FFD069"/>
<stop offset="0.6116" stop-color="#F6C157"/>
<stop offset="0.8353" stop-color="#E09927"/>
<stop offset="1" stop-color="#CE7900"/>
</linearGradient>
<linearGradient id="paint9_linear" x1="134.938" y1="345.435" x2="156.233" y2="345.435" gradientUnits="userSpaceOnUse">
<stop stop-color="#CE7900"/>
<stop offset="0.1647" stop-color="#E09927"/>
<stop offset="0.3884" stop-color="#F6C157"/>
<stop offset="0.5" stop-color="#FFD069"/>
<stop offset="0.6116" stop-color="#F6C157"/>
<stop offset="0.8353" stop-color="#E09927"/>
<stop offset="1" stop-color="#CE7900"/>
</linearGradient>
<linearGradient id="paint10_linear" x1="170.337" y1="345.109" x2="216.899" y2="345.109" gradientUnits="userSpaceOnUse">
<stop stop-color="#CE7900"/>
<stop offset="0.1647" stop-color="#E09927"/>
<stop offset="0.3884" stop-color="#F6C157"/>
<stop offset="0.5" stop-color="#FFD069"/>
<stop offset="0.6116" stop-color="#F6C157"/>
<stop offset="0.8353" stop-color="#E09927"/>
<stop offset="1" stop-color="#CE7900"/>
</linearGradient>
<linearGradient id="paint11_linear" x1="230.328" y1="345.435" x2="254.563" y2="345.435" gradientUnits="userSpaceOnUse">
<stop stop-color="#CE7900"/>
<stop offset="0.1647" stop-color="#E09927"/>
<stop offset="0.3884" stop-color="#F6C157"/>
<stop offset="0.5" stop-color="#FFD069"/>
<stop offset="0.6116" stop-color="#F6C157"/>
<stop offset="0.8353" stop-color="#E09927"/>
<stop offset="1" stop-color="#CE7900"/>
</linearGradient>
<linearGradient id="paint12_linear" x1="267.39" y1="345.435" x2="310.196" y2="345.435" gradientUnits="userSpaceOnUse">
<stop stop-color="#CE7900"/>
<stop offset="0.1647" stop-color="#E09927"/>
<stop offset="0.3884" stop-color="#F6C157"/>
<stop offset="0.5" stop-color="#FFD069"/>
<stop offset="0.6116" stop-color="#F6C157"/>
<stop offset="0.8353" stop-color="#E09927"/>
<stop offset="1" stop-color="#CE7900"/>
</linearGradient>
<linearGradient id="paint13_linear" x1="324.494" y1="345.79" x2="353.793" y2="345.79" gradientUnits="userSpaceOnUse">
<stop stop-color="#CE7900"/>
<stop offset="0.1647" stop-color="#E09927"/>
<stop offset="0.3884" stop-color="#F6C157"/>
<stop offset="0.5" stop-color="#FFD069"/>
<stop offset="0.6116" stop-color="#F6C157"/>
<stop offset="0.8353" stop-color="#E09927"/>
<stop offset="1" stop-color="#CE7900"/>
</linearGradient>
<linearGradient id="paint14_linear" x1="370.109" y1="345.435" x2="393.854" y2="345.435" gradientUnits="userSpaceOnUse">
<stop stop-color="#CE7900"/>
<stop offset="0.1647" stop-color="#E09927"/>
<stop offset="0.3884" stop-color="#F6C157"/>
<stop offset="0.5" stop-color="#FFD069"/>
<stop offset="0.6116" stop-color="#F6C157"/>
<stop offset="0.8353" stop-color="#E09927"/>
<stop offset="1" stop-color="#CE7900"/>
</linearGradient>
<linearGradient id="paint15_linear" x1="405.426" y1="345.435" x2="446.01" y2="345.435" gradientUnits="userSpaceOnUse">
<stop stop-color="#CE7900"/>
<stop offset="0.1647" stop-color="#E09927"/>
<stop offset="0.3884" stop-color="#F6C157"/>
<stop offset="0.5" stop-color="#FFD069"/>
<stop offset="0.6116" stop-color="#F6C157"/>
<stop offset="0.8353" stop-color="#E09927"/>
<stop offset="1" stop-color="#CE7900"/>
</linearGradient>
<linearGradient id="paint16_linear" x1="7.03711" y1="149.997" x2="460.608" y2="149.997" gradientUnits="userSpaceOnUse">
<stop stop-color="#CE7900"/>
<stop offset="0.1647" stop-color="#E09927"/>
<stop offset="0.3884" stop-color="#F6C157"/>
<stop offset="0.5" stop-color="#FFD069"/>
<stop offset="0.6116" stop-color="#F6C157"/>
<stop offset="0.8353" stop-color="#E09927"/>
<stop offset="1" stop-color="#CE7900"/>
</linearGradient>
<clipPath id="clip0">
<rect x="0.175781" width="460" height="368" fill="white"/>
</clipPath>
</defs>
</svg>
