<svg width="387" height="327" viewBox="0 0 387 327" fill="none" xmlns="http://www.w3.org/2000/svg">
<g style="mix-blend-mode:screen" opacity="0.83">
<path d="M1.91371 166.679C1.34516 165.73 1.34516 164.545 1.91371 163.595L96.5311 5.64252C97.073 4.73785 98.0501 4.18414 99.1047 4.18414H288.534C289.588 4.18414 290.565 4.73785 291.107 5.64252L385.725 163.595C386.293 164.545 386.293 165.73 385.725 166.679L291.107 324.632C290.565 325.536 289.588 326.09 288.534 326.09H99.1047C98.0501 326.09 97.073 325.536 96.5311 324.632L1.91371 166.679Z" fill="#00226E"/>
<path d="M1.91371 166.679C1.34516 165.73 1.34516 164.545 1.91371 163.595L96.5311 5.64252C97.073 4.73785 98.0501 4.18414 99.1047 4.18414H288.534C289.588 4.18414 290.565 4.73785 291.107 5.64252L385.725 163.595C386.293 164.545 386.293 165.73 385.725 166.679L291.107 324.632C290.565 325.536 289.588 326.09 288.534 326.09H99.1047C98.0501 326.09 97.073 325.536 96.5311 324.632L1.91371 166.679Z" fill="url(#paint0_linear)"/>
</g>
<g style="mix-blend-mode:screen">
<path d="M1.91371 166.679C1.34516 165.73 1.34516 164.545 1.91371 163.595L96.5311 5.64252C97.073 4.73785 98.0501 4.18414 99.1047 4.18414H288.534C289.588 4.18414 290.565 4.73785 291.107 5.64252L385.725 163.595C386.293 164.545 386.293 165.73 385.725 166.679L291.107 324.632C290.565 325.536 289.588 326.09 288.534 326.09H99.1047C98.0501 326.09 97.073 325.536 96.5311 324.632L1.91371 166.679Z" fill="url(#paint1_linear)"/>
</g>
<path d="M5.13181 160.305C3.90002 162.361 3.90002 164.929 5.1318 166.985L96.6391 319.752C97.8132 321.712 99.9303 322.912 102.215 322.912H285.424C287.709 322.912 289.826 321.712 291 319.752L287.997 317.953L291 319.752L382.507 166.985C383.739 164.929 383.739 162.361 382.507 160.305L291 7.53839C289.826 5.57822 287.709 4.37851 285.424 4.37851H102.215C99.9303 4.37851 97.8132 5.57822 96.6391 7.53839L5.13181 160.305Z" stroke="url(#paint2_linear)" stroke-width="7"/>
<defs>
<linearGradient id="paint0_linear" x1="90.2794" y1="8.69525" x2="215.176" y2="253.928" gradientUnits="userSpaceOnUse">
<stop offset="0.0416667" stop-color="white" stop-opacity="0"/>
<stop offset="0.359375" stop-color="white"/>
<stop offset="0.666667" stop-color="white" stop-opacity="0.64"/>
<stop offset="1" stop-color="white" stop-opacity="0"/>
</linearGradient>
<linearGradient id="paint1_linear" x1="97.3054" y1="10.6584" x2="290.492" y2="295.037" gradientUnits="userSpaceOnUse">
<stop offset="0.125" stop-color="white" stop-opacity="0"/>
<stop offset="0.296875" stop-color="white"/>
<stop offset="0.781228" stop-color="white" stop-opacity="0.64"/>
<stop offset="1" stop-color="white" stop-opacity="0"/>
</linearGradient>
<linearGradient id="paint2_linear" x1="7.21094" y1="343.509" x2="366.695" y2="-29.4555" gradientUnits="userSpaceOnUse">
<stop stop-color="#FFC200"/>
<stop offset="1" stop-color="#FF785E"/>
</linearGradient>
</defs>
</svg>
