<svg width="763" height="326" viewBox="0 0 763 326" fill="none" xmlns="http://www.w3.org/2000/svg">
<g opacity="0.3">
<g style="mix-blend-mode:screen">
<path d="M378.189 -0.663376C377.621 -1.6125 377.621 -2.79753 378.189 -3.74666L472.806 -161.7C473.348 -162.604 474.326 -163.158 475.38 -163.158H664.809C665.864 -163.158 666.841 -162.604 667.383 -161.7L762 -3.74666C762.569 -2.79753 762.569 -1.6125 762 -0.663376L667.383 157.29C666.841 158.194 665.864 158.748 664.809 158.748L475.38 158.748C474.326 158.748 473.348 158.194 472.806 157.29L378.189 -0.663376Z" fill="url(#paint0_linear)"/>
</g>
</g>
<g style="mix-blend-mode:screen" opacity="0.83">
<path d="M82.5914 166.679C82.0229 165.73 82.0229 164.545 82.5914 163.596L177.209 5.64267C177.751 4.73801 178.728 4.1843 179.782 4.1843H369.211C370.266 4.1843 371.243 4.73801 371.785 5.64267L466.402 163.596C466.971 164.545 466.971 165.73 466.402 166.679L371.785 324.632C371.243 325.537 370.266 326.09 369.211 326.09H179.782C178.728 326.09 177.751 325.537 177.209 324.632L82.5914 166.679Z" fill="#00226E"/>
<path d="M82.5914 166.679C82.0229 165.73 82.0229 164.545 82.5914 163.596L177.209 5.64267C177.751 4.73801 178.728 4.1843 179.782 4.1843H369.211C370.266 4.1843 371.243 4.73801 371.785 5.64267L466.402 163.596C466.971 164.545 466.971 165.73 466.402 166.679L371.785 324.632C371.243 325.537 370.266 326.09 369.211 326.09H179.782C178.728 326.09 177.751 325.537 177.209 324.632L82.5914 166.679Z" fill="url(#paint1_linear)"/>
</g>
<g style="mix-blend-mode:screen">
<path d="M82.5914 166.679C82.0229 165.73 82.0229 164.545 82.5914 163.596L177.209 5.64267C177.751 4.73801 178.728 4.1843 179.782 4.1843H369.211C370.266 4.1843 371.243 4.73801 371.785 5.64267L466.402 163.596C466.971 164.545 466.971 165.73 466.402 166.679L371.785 324.632C371.243 325.537 370.266 326.09 369.211 326.09H179.782C178.728 326.09 177.751 325.537 177.209 324.632L82.5914 166.679Z" fill="url(#paint2_linear)"/>
</g>
<path d="M85.8076 160.305C84.5758 162.361 84.5758 164.929 85.8076 166.985L177.315 319.752C178.489 321.712 180.606 322.912 182.891 322.912H366.1C368.384 322.912 370.502 321.712 371.676 319.752L368.673 317.953L371.676 319.752L463.183 166.985C464.415 164.929 464.415 162.361 463.183 160.305L371.676 7.53836C370.502 5.57819 368.384 4.37848 366.1 4.37848H182.891C180.606 4.37848 178.489 5.57819 177.315 7.53836L85.8076 160.305Z" stroke="url(#paint3_linear)" stroke-width="7"/>
<g opacity="0.49">
<g style="mix-blend-mode:screen" opacity="0.83">
<path d="M-217.51 325.44C-218.079 324.491 -218.079 323.306 -217.51 322.357L-122.893 164.404C-122.351 163.499 -121.374 162.946 -120.319 162.946H69.1098C70.1643 162.946 71.1414 163.499 71.6833 164.404L166.301 322.357C166.869 323.306 166.869 324.491 166.301 325.44L71.6833 483.393C71.1414 484.298 70.1643 484.851 69.1098 484.851H-120.319C-121.374 484.851 -122.351 484.298 -122.893 483.393L-217.51 325.44Z" fill="#00226E"/>
<path d="M-217.51 325.44C-218.079 324.491 -218.079 323.306 -217.51 322.357L-122.893 164.404C-122.351 163.499 -121.374 162.946 -120.319 162.946H69.1098C70.1643 162.946 71.1414 163.499 71.6833 164.404L166.301 322.357C166.869 323.306 166.869 324.491 166.301 325.44L71.6833 483.393C71.1414 484.298 70.1643 484.851 69.1098 484.851H-120.319C-121.374 484.851 -122.351 484.298 -122.893 483.393L-217.51 325.44Z" fill="url(#paint4_linear)"/>
</g>
</g>
<defs>
<linearGradient id="paint0_linear" x1="473.581" y1="-156.684" x2="651.368" y2="105.286" gradientUnits="userSpaceOnUse">
<stop offset="0.125" stop-color="white" stop-opacity="0"/>
<stop offset="0.296875" stop-color="white"/>
<stop offset="0.661458" stop-color="white" stop-opacity="0.64"/>
<stop offset="1" stop-color="white" stop-opacity="0"/>
</linearGradient>
<linearGradient id="paint1_linear" x1="170.957" y1="8.6954" x2="295.854" y2="253.928" gradientUnits="userSpaceOnUse">
<stop offset="0.0416667" stop-color="white" stop-opacity="0"/>
<stop offset="0.359375" stop-color="white"/>
<stop offset="0.666667" stop-color="white" stop-opacity="0.64"/>
<stop offset="1" stop-color="white" stop-opacity="0"/>
</linearGradient>
<linearGradient id="paint2_linear" x1="177.983" y1="10.6586" x2="371.17" y2="295.037" gradientUnits="userSpaceOnUse">
<stop offset="0.125" stop-color="white" stop-opacity="0"/>
<stop offset="0.296875" stop-color="white"/>
<stop offset="0.781228" stop-color="white" stop-opacity="0.64"/>
<stop offset="1" stop-color="white" stop-opacity="0"/>
</linearGradient>
<linearGradient id="paint3_linear" x1="87.8867" y1="343.509" x2="447.371" y2="-29.4556" gradientUnits="userSpaceOnUse">
<stop stop-color="#FFC200"/>
<stop offset="1" stop-color="#FF785E"/>
</linearGradient>
<linearGradient id="paint4_linear" x1="-152.586" y1="170.484" x2="78.1187" y2="285.762" gradientUnits="userSpaceOnUse">
<stop offset="0.0416667" stop-color="white" stop-opacity="0"/>
<stop offset="0.359375" stop-color="white"/>
<stop offset="0.666667" stop-color="white" stop-opacity="0.64"/>
<stop offset="1" stop-color="white" stop-opacity="0"/>
</linearGradient>
</defs>
</svg>
