<svg width="387" height="326" viewBox="0 0 387 326" fill="none" xmlns="http://www.w3.org/2000/svg">
<g style="mix-blend-mode:screen" opacity="0.83">
<path d="M1.59145 166.679C1.0229 165.73 1.02289 164.545 1.59144 163.596L96.2088 5.64267C96.7507 4.73801 97.7279 4.1843 98.7824 4.1843H288.211C289.266 4.1843 290.243 4.73801 290.785 5.64267L385.402 163.596C385.971 164.545 385.971 165.73 385.402 166.679L290.785 324.632C290.243 325.537 289.266 326.09 288.211 326.09H98.7824C97.7279 326.09 96.7507 325.537 96.2088 324.632L1.59145 166.679Z" fill="#00226E"/>
<path d="M1.59145 166.679C1.0229 165.73 1.02289 164.545 1.59144 163.596L96.2088 5.64267C96.7507 4.73801 97.7279 4.1843 98.7824 4.1843H288.211C289.266 4.1843 290.243 4.73801 290.785 5.64267L385.402 163.596C385.971 164.545 385.971 165.73 385.402 166.679L290.785 324.632C290.243 325.537 289.266 326.09 288.211 326.09H98.7824C97.7279 326.09 96.7507 325.537 96.2088 324.632L1.59145 166.679Z" fill="url(#paint0_linear)"/>
</g>
<g style="mix-blend-mode:screen">
<path d="M1.59145 166.679C1.0229 165.73 1.02289 164.545 1.59144 163.596L96.2088 5.64267C96.7507 4.73801 97.7279 4.1843 98.7824 4.1843H288.211C289.266 4.1843 290.243 4.73801 290.785 5.64267L385.402 163.596C385.971 164.545 385.971 165.73 385.402 166.679L290.785 324.632C290.243 325.537 289.266 326.09 288.211 326.09H98.7824C97.7279 326.09 96.7507 325.537 96.2088 324.632L1.59145 166.679Z" fill="url(#paint1_linear)"/>
</g>
<path d="M4.80759 160.305C3.5758 162.361 3.5758 164.929 4.80758 166.985L96.3149 319.752C97.489 321.712 99.6061 322.912 101.891 322.912H285.1C287.384 322.912 289.502 321.712 290.676 319.752L287.673 317.953L290.676 319.752L382.183 166.985C383.415 164.929 383.415 162.361 382.183 160.305L290.676 7.53836C289.502 5.57819 287.384 4.37848 285.1 4.37848H101.891C99.6061 4.37848 97.489 5.57819 96.3149 7.53836L4.80759 160.305Z" stroke="url(#paint2_linear)" stroke-width="7"/>
<defs>
<linearGradient id="paint0_linear" x1="89.9571" y1="8.6954" x2="214.854" y2="253.928" gradientUnits="userSpaceOnUse">
<stop offset="0.0416667" stop-color="white" stop-opacity="0"/>
<stop offset="0.359375" stop-color="white"/>
<stop offset="0.666667" stop-color="white" stop-opacity="0.64"/>
<stop offset="1" stop-color="white" stop-opacity="0"/>
</linearGradient>
<linearGradient id="paint1_linear" x1="96.9831" y1="10.6586" x2="290.17" y2="295.037" gradientUnits="userSpaceOnUse">
<stop offset="0.125" stop-color="white" stop-opacity="0"/>
<stop offset="0.296875" stop-color="white"/>
<stop offset="0.781228" stop-color="white" stop-opacity="0.64"/>
<stop offset="1" stop-color="white" stop-opacity="0"/>
</linearGradient>
<linearGradient id="paint2_linear" x1="6.88672" y1="343.509" x2="366.371" y2="-29.4556" gradientUnits="userSpaceOnUse">
<stop stop-color="#FFC200"/>
<stop offset="1" stop-color="#FF785E"/>
</linearGradient>
</defs>
</svg>
